<?xml version="1.0" encoding="utf-8"?>
<!-- Generator: Adobe Illustrator 23.0.0, SVG Export Plug-In . SVG Version: 6.00 Build 0)  -->
<svg version="1.1" id="圖層_1" xmlns="http://www.w3.org/2000/svg" xmlns:xlink="http://www.w3.org/1999/xlink" x="0px" y="0px"
	 viewBox="0 0 32 32" style="enable-background:new 0 0 32 32;" xml:space="preserve">
<style type="text/css">
	.st0{fill:#EA5514;}
</style>
<path class="st0" d="M30.8,0H1.3C0.6,0,0,0.6,0,1.3v29.3C0,31.3,0.6,32,1.3,32c0,0,0,0,0,0H17V20h-4v-5h4v-4c0-4.1,2.6-6.2,6.3-6.2
	c1.8,0,3.3,0.2,3.7,0.2v4.3h-2.6c-2,0-2.5,1-2.5,2.4V15h5l-1,5h-4l0.1,12h8.6c0.7,0,1.3-0.6,1.3-1.3V1.3c0.1-0.6-0.4-1.2-1.1-1.3
	C30.9,0,30.8,0,30.8,0z"/>
</svg>
