<?xml version="1.0" encoding="utf-8"?>
<!-- Generator: Adobe Illustrator 23.0.0, SVG Export Plug-In . SVG Version: 6.00 Build 0)  -->
<svg version="1.1" id="圖層_1" xmlns="http://www.w3.org/2000/svg" xmlns:xlink="http://www.w3.org/1999/xlink" x="0px" y="0px"
	 viewBox="0 0 108.2 20.7" style="enable-background:new 0 0 108.2 20.7;" xml:space="preserve">
<style type="text/css">
	.st0{fill:#F5A888;}
</style>
<path class="st0" d="M36.7,14.2v-1.2c0-3.8,2.2-6.3,6.6-6.3c4.2,0,6,2.5,6,6.2v2.1h-8.6c0.1,1.8,0.9,2.6,3.2,2.6
	c1.5,0,3-0.3,4.3-0.8l0.7,2.8c-1.7,0.7-3.4,1-5.2,1C38.7,20.7,36.7,18.1,36.7,14.2z M40.8,12.5h4.9v-0.3c0-1.5-0.6-2.6-2.4-2.6
	C41.5,9.6,40.8,10.7,40.8,12.5L40.8,12.5z M54.9,18.4v2h-3.8v-20L55.2,0v8.9c0.7-1.4,2.2-2.2,3.8-2.1c3.7,0,5.5,2.8,5.5,6.5v0.8
	c0,3.7-1.8,6.5-5.5,6.5C57.3,20.8,55.7,19.9,54.9,18.4z M55.2,13v1.4c0,1.9,0.9,3.1,2.6,3.1c2,0,2.7-1.4,2.7-3.3v-1
	c0-1.9-0.7-3.3-2.7-3.3C56.1,10,55.2,11.1,55.2,13z M10.5,14.1v-0.9c0-3.7,1.8-6.5,5.5-6.5c1.6-0.1,3.2,0.8,3.9,2.3v-2h3.9v13.3
	h-3.9v-2c-0.7,1.5-2.2,2.4-3.9,2.3C12.3,20.7,10.5,17.9,10.5,14.1z M14.6,13.2v1c0,2,0.7,3.3,2.6,3.3c1.7,0,2.5-1.2,2.5-3.1v-1.3
	c0-1.9-0.8-3.1-2.5-3.1C15.3,10,14.6,11.3,14.6,13.2L14.6,13.2z M80.6,14.1v-0.7c0-3.8,2.2-6.6,6.7-6.6s6.7,2.8,6.7,6.6v0.7
	c0,3.8-2.2,6.6-6.7,6.6S80.6,17.9,80.6,14.1L80.6,14.1z M84.7,13.1v1.2c0,1.8,0.7,3.2,2.6,3.2s2.6-1.4,2.6-3.2v-1.2
	c0-1.8-0.7-3.2-2.6-3.2S84.7,11.4,84.7,13.1L84.7,13.1z M65.9,14.1v-0.7c0-3.8,2.2-6.6,6.7-6.6s6.7,2.8,6.7,6.6v0.7
	c0,3.8-2.2,6.6-6.7,6.6S65.9,17.9,65.9,14.1L65.9,14.1z M69.9,13.1v1.2c0,1.8,0.7,3.2,2.6,3.2s2.6-1.4,2.6-3.2v-1.2
	c0-1.8-0.7-3.2-2.6-3.2S70,11.4,69.9,13.1L69.9,13.1z M25.3,14v-0.6c0-4.1,2.2-6.6,7-6.6C33.7,6.7,35,7,36.2,7.7l-0.9,2.8
	c-0.8-0.4-1.8-0.6-2.7-0.6c-2.2,0-3.2,1.3-3.2,3.4v0.8c0,2.2,1,3.4,3.2,3.4c0.9,0,1.9-0.2,2.7-0.6l0.9,2.9c-1.2,0.6-2.5,1-3.9,0.9
	C27.5,20.7,25.3,18.1,25.3,14L25.3,14z M103.8,20.4l-4.2-6.5v6.5h-4.1v-20L99.7,0v13.4l4-6.3h4.3l-4.2,6.6l4.4,6.7L103.8,20.4z
	 M2.7,20.4v-10H0V7.1h2.7v-2C2.7,1.8,4.1,0,7.9,0c0.8,0,1.6,0,2.4,0.1v3.1H8.5C7.2,3.2,6.8,3.8,6.8,5v2h3.4l-0.3,3.3H6.8v10
	L2.7,20.4z"/>
</svg>
