<?xml version="1.0" encoding="utf-8"?>
<!-- Generator: Adobe Illustrator 23.0.0, SVG Export Plug-In . SVG Version: 6.00 Build 0)  -->
<svg version="1.1" id="圖層_1" xmlns="http://www.w3.org/2000/svg" xmlns:xlink="http://www.w3.org/1999/xlink" x="0px" y="0px"
	 viewBox="0 0 94.2 31" style="enable-background:new 0 0 94.2 31;" xml:space="preserve">
<style type="text/css">
	.st0{fill:#F5A888;}
</style>
<path class="st0" d="M58.9,26.4l3-1.2c0.6,1.6,2.2,2.7,3.9,2.7c2.6,0,4.1-1.6,4.1-4.5v-1.1h-0.1c-1,1.2-2.5,1.8-4.1,1.8
	c-4.2-0.1-7.5-3.6-7.4-7.7c0-4.2,3.3-7.6,7.4-7.8c1.5,0,3,0.6,4.1,1.7h0.1V9h3.2V23c0,5.7-3.4,8.1-7.4,8.1
	C62.8,31,60.1,29.2,58.9,26.4z M61.7,16.3c-0.1,2.5,1.8,4.5,4.2,4.7c0,0,0.1,0,0.1,0c2.3,0,4.1-2,4.1-4.7c0-2.7-1.8-4.7-4.1-4.7
	C63.6,11.7,61.6,13.8,61.7,16.3C61.7,16.3,61.7,16.3,61.7,16.3L61.7,16.3z M41.5,16.3c-0.1-4.2,3.3-7.7,7.5-7.8c0.1,0,0.2,0,0.3,0
	c4.2-0.1,7.7,3.3,7.8,7.5c0,0.1,0,0.2,0,0.3c0.1,4.2-3.3,7.7-7.6,7.8c-0.1,0-0.1,0-0.2,0c-4.2,0.1-7.7-3.3-7.8-7.5
	C41.5,16.5,41.5,16.4,41.5,16.3L41.5,16.3z M44.9,16.3c-0.1,2.5,1.8,4.6,4.3,4.7c0,0,0.1,0,0.1,0c2.5-0.1,4.4-2.1,4.4-4.6
	c0,0,0-0.1,0-0.1c0.1-2.5-1.8-4.6-4.2-4.7c0,0-0.1,0-0.1,0c-2.5,0-4.4,2.1-4.4,4.6C44.9,16.2,44.9,16.3,44.9,16.3L44.9,16.3z
	 M24.8,16.3c-0.1-4.2,3.3-7.7,7.5-7.8c0.1,0,0.2,0,0.3,0c4.2-0.1,7.7,3.3,7.8,7.5c0,0.1,0,0.2,0,0.3c0.1,4.2-3.3,7.7-7.6,7.8
	c-0.1,0-0.1,0-0.2,0c-4.2,0.1-7.7-3.3-7.8-7.5C24.8,16.5,24.8,16.4,24.8,16.3L24.8,16.3z M28.2,16.3C28,18.8,30,20.9,32.4,21
	c0,0,0.1,0,0.1,0c2.5-0.1,4.4-2.1,4.4-4.6c0,0,0-0.1,0-0.1c0.1-2.5-1.8-4.6-4.2-4.7c0,0-0.1,0-0.2,0c-2.5,0.1-4.4,2.1-4.4,4.6
	C28.2,16.2,28.2,16.3,28.2,16.3L28.2,16.3z M79.9,16.3c0-4.6,3.3-7.8,7.3-7.8c3,0.1,5.7,2.1,6.6,4.9l0.4,0.9l-10.4,4.3
	c0.7,1.5,2.1,2.4,3.8,2.3c1.6,0,3-0.8,3.8-2.1l2.6,1.8c-1.4,2.2-3.9,3.4-6.5,3.4c-4.2,0.1-7.6-3.3-7.7-7.5
	C79.9,16.5,79.9,16.4,79.9,16.3L79.9,16.3z M83.3,16.1l6.9-2.9c-0.5-1.1-1.7-1.7-2.9-1.6C85,11.7,83.2,13.7,83.3,16.1
	C83.3,16,83.3,16.1,83.3,16.1L83.3,16.1z M0,12C0.1,5.4,5.5,0,12.2,0c3.1,0,6.1,1.1,8.2,3.3l-2.3,2.3c-1.6-1.5-3.7-2.4-5.9-2.3
	c-4.8,0-8.6,3.9-8.6,8.6c0,0,0,0.1,0,0.1c-0.1,4.8,3.8,8.7,8.5,8.7c0,0,0.1,0,0.1,0c2.3,0.1,4.5-0.8,6.1-2.4c1-1.1,1.7-2.6,1.8-4.1
	h-7.9V11h11.1c0.1,0.7,0.2,1.3,0.2,2c0.1,2.8-0.9,5.6-2.8,7.7c-2.2,2.3-5.2,3.5-8.4,3.4C5.5,24.1,0.1,18.7,0,12L0,12z M75.2,23.6
	V0.9h3.3v22.7L75.2,23.6z M73.2,9L73.2,9z"/>
</svg>
