<?xml version="1.0" encoding="utf-8"?>
<!-- Generator: Adobe Illustrator 23.0.0, SVG Export Plug-In . SVG Version: 6.00 Build 0)  -->
<svg version="1.1" id="圖層_1" xmlns="http://www.w3.org/2000/svg" xmlns:xlink="http://www.w3.org/1999/xlink" x="0px" y="0px"
	 viewBox="0 0 32 32" style="enable-background:new 0 0 32 32;" xml:space="preserve">
<style type="text/css">
	.st0{fill:#EA5514;}
</style>
<path class="st0" d="M25.1,32H6.9C3.1,32,0,28.9,0,25.1c0,0,0,0,0,0V6.9C0,3.1,3.1,0,6.9,0c0,0,0,0,0,0h18.1C28.9,0,32,3.1,32,6.9
	c0,0,0,0,0,0v18.1C32,28.9,28.9,32,25.1,32C25.1,32,25.1,32,25.1,32z M16,5.6C10.3,5.6,5.6,10.3,5.6,16S10.3,26.4,16,26.4
	c1.1,0,2.2-0.2,3.2-0.5l0.6-0.2c0.2-0.1,0.3-0.3,0.3-0.5l-0.6-1.8c-0.1-0.2-0.2-0.3-0.4-0.3c0,0-0.1,0-0.1,0l-0.6,0.2
	c-0.8,0.3-1.6,0.4-2.4,0.4c-4.2,0-7.6-3.4-7.6-7.6c0-4.2,3.4-7.6,7.6-7.6c4.2,0,7.6,3.4,7.6,7.6c0,0.9-0.2,1.8-0.5,2.7
	c-0.2,0.7-0.8,1.2-1.2,1.2c-0.6,0-1.1-0.5-1.1-1.1v-7.3c0-0.2-0.2-0.4-0.4-0.4c0,0,0,0,0,0h-1.9c-0.2,0-0.4,0.2-0.4,0.4v0.2L18,11.5
	c-2.5-1.3-5.5-0.4-6.9,2.1s-0.4,5.5,2.1,6.9c0.7,0.4,1.6,0.6,2.4,0.6c1,0,1.9-0.3,2.7-0.8l0.1-0.1l0.1,0.1c0.3,0.7,0.8,1.3,1.4,1.7
	c0.6,0.4,1.4,0.6,2.1,0.6c1.8-0.1,3.3-1.3,3.8-3.1c0.4-1.1,0.6-2.3,0.6-3.5C26.4,10.3,21.7,5.6,16,5.6z M15.6,18.5
	c-1.4,0-2.5-1.1-2.5-2.5c0-1.4,1.1-2.5,2.5-2.5c1.4,0,2.5,1.1,2.5,2.5c0,0,0,0,0,0C18.1,17.4,17,18.5,15.6,18.5z"/>
</svg>
