<?xml version="1.0" encoding="utf-8"?>
<!-- Generator: Adobe Illustrator 23.0.0, SVG Export Plug-In . SVG Version: 6.00 Build 0)  -->
<svg version="1.1" id="圖層_1" xmlns="http://www.w3.org/2000/svg" xmlns:xlink="http://www.w3.org/1999/xlink" x="0px" y="0px"
	 viewBox="0 0 96.5 22.4" style="enable-background:new 0 0 96.5 22.4;" xml:space="preserve">
<style type="text/css">
	.st0{fill:#F5A888;}
</style>
<path class="st0" d="M90.5,21c-0.1-0.7,0.5-1.4,1.2-1.5c0,0,0.1,0,0.1,0c0.8-0.1,1.5,0.5,1.5,1.2c0,0,0,0.1,0,0.1
	c0.1,0.7-0.4,1.4-1.1,1.4c-0.1,0-0.1,0-0.2,0C91.2,22.4,90.5,21.9,90.5,21z M10.3,22.3c-0.5-0.1-0.9-0.1-1.4-0.1
	c-0.5,0-0.9,0.1-1.4,0.1l0,0l0,0l0.2-9.5C6.3,10.6,2.4,3.6,0,0l0,0l0,0C1,0.3,2,0.3,3,0l0,0l0,0c1.5,2.7,3.9,6.5,5.9,9.8
	c2-3.2,5-8.3,5.9-9.8l0,0l0,0l0,0c1,0.2,2,0.2,3,0l0,0l0,0c-1.1,1.5-5.2,8.5-7.6,12.8h0L10.3,22.3z M68,11.2c0-6.6,4.8-10.1,11-10.1
	C86,1.1,90,5.2,90,11.3c0,6.4-4.3,10.1-11,10.1C71.2,21.3,68,16.6,68,11.2z M70.9,11.1c0,6.7,3.8,9.1,8.1,9.1c3.9,0,8.1-2.2,8.1-9
	c0-6.3-3.4-9.1-8.1-9.1C75.2,2.2,70.9,4.2,70.9,11.1L70.9,11.1z M47.9,11.2c0-5.1,3.3-9.1,9.5-9.1c5.8,0,9.5,3.4,9.5,9.2
	c0,5.1-3.1,9-9.6,9C51.5,20.3,47.9,16.8,47.9,11.2L47.9,11.2z M50.8,11.3c0,5,2.4,8,6.6,8c3.8,0,6.6-2.6,6.6-8s-2.8-8-6.6-8h-0.2
	C53.8,3.3,50.8,5.6,50.8,11.3L50.8,11.3z M27.7,20L27.7,20c-0.7-1.7-1.4-3.5-2-5.2c-2.4-0.1-4.8-0.1-7.2,0l0,0
	c-0.7,1.8-1.4,3.6-2.1,5.2l0,0l0,0c-1-0.2-1.9-0.2-2.9,0l0,0l0,0c2.5-5,5.2-11.7,7.6-17.7l0,0c0.7,0.2,1.4,0.2,2.1,0l0,0l0,0
	c2.3,5.7,5.8,14.4,7.6,17.7h0h0C29.7,19.8,28.7,19.8,27.7,20L27.7,20z M25.2,13.6C24.1,10.9,23,8.1,22,5.4c-0.6,1.8-1.9,5-3.1,8.2
	C21,13.7,23.1,13.7,25.2,13.6L25.2,13.6z M13.4,20C13.4,20,13.4,20,13.4,20L13.4,20z M44.1,20L44.1,20L44.1,20
	c0.1-2.7,0.2-5.5,0.2-8.2c-3.3,0-6.6,0-9.9,0l0,0c0,2.7,0.1,5.5,0.2,8.2h0h0c-1-0.2-2-0.2-2.9,0c0.2-5.9,0.3-11.8,0-17.7
	c1,0.2,2,0.2,2.9,0l0,0l0,0c-0.1,2.7-0.2,5.5-0.2,8.2l0,0c3.3,0.1,6.6,0.1,9.9,0c0-2.8-0.1-5.5-0.2-8.2c1,0.2,2,0.2,2.9,0
	c-0.3,5.9-0.2,11.8,0,17.7C46.1,19.8,45,19.8,44.1,20L44.1,20z M92,17.4L92,17.4L92,17.4L92,17.4L92,17.4c0.7-5.1,1.1-10.4,1.5-15.7
	C93.5,1,94,0.3,94.8,0.2c0.1,0,0.1,0,0.2,0c0.1,0,0.2,0,0.3,0l0,0c0.7,0,1.3,0.6,1.2,1.4c0,0.3-0.1,0.6-0.2,0.9
	c-0.5,2.2-2.4,9.9-3.2,15.1l0,0v0C92.8,17.5,92.4,17.4,92,17.4L92,17.4z"/>
</svg>
