<?xml version="1.0" encoding="utf-8"?>
<!-- Generator: Adobe Illustrator 23.0.0, SVG Export Plug-In . SVG Version: 6.00 Build 0)  -->
<svg version="1.1" id="圖層_1" xmlns="http://www.w3.org/2000/svg" xmlns:xlink="http://www.w3.org/1999/xlink" x="0px" y="0px"
	 viewBox="0 0 189.4 45.5" style="enable-background:new 0 0 189.4 45.5;" xml:space="preserve">
<style type="text/css">
	.st0{fill:#EA5514;}
</style>
<path class="st0" d="M8.1,32.3C8,39,7.8,42.2,7.8,43.5c0,1.2,0.3,1.6,2.1,1.6c2.8,0,4.1-0.7,4.1-2.1c0-1.2-0.1-4.2-0.1-15.7V16.6
	c1.2-0.5,1.5-0.8,1.5-1.2c0-0.5-0.5-0.9-3.2-2c1.8-2.5,3.5-5.1,4.9-7.9c1.7-0.5,2.2-0.9,2.2-1.6s-0.5-1.1-7.5-3.8
	c-0.2,1.2-0.5,2.3-0.9,3.5C8,11.7,3.9,20.1,0.1,24.4c-0.2,0.2,0.2,0.5,0.4,0.4c2.9-1.9,5.4-4.2,7.7-6.7L8.1,32.3z M28.1,26.3
	c0-3.5-3.3-6.9-10-7.8c-0.3,0-0.5,0.4-0.2,0.5c2.3,1.5,3.2,3.9,3.3,7.7c0.1,2.4,1.3,3.9,3.2,3.9C26.4,30.6,28.1,29.1,28.1,26.3z
	 M37.8,13.1V4.2c1.7-0.7,2-1.1,2-1.6c0-0.9-1.3-1.3-8.4-2.1c0.3,2.7,0.4,4.7,0.4,12.6H20.9c-1.3,0-3.4-0.1-5.7-0.3l0.4,1.6
	C18,14.1,20,14,20.9,14h10.9v22.1c0,2-0.6,2.5-2.2,2.6c-1,0.1-2.6,0.2-5.8,0.2c-0.3,0-0.3,0.4,0,0.5c3.9,1.2,5,2.9,5.5,4.6
	c0.2,0.9,0.7,1.1,1.7,1.1c1.2,0,2.5-0.3,3.6-0.7c2-0.7,3.5-2.6,3.5-6c0-1.8-0.3-11.2-0.3-19.5V14h8c0.2,0,0.5-0.1,0.5-0.4
	c0,0,0-0.1,0-0.1c0-0.4-0.1-0.6-1.6-2.1C42.2,9,42,8.9,41.6,8.9c-0.5,0-0.7,0.1-3.4,4.1L37.8,13.1z M58.5,8.4v5.5H57
	c-1,0-2.7,0-5.8-0.3l0.4,1.6c1.8-0.2,3.5-0.3,5.3-0.3h14.8c0.6,0,0.8-0.2,0.8-0.5c0-0.4-0.1-0.5-1.4-1.9c-1.6-1.6-1.7-1.7-2.1-1.7
	c-0.3,0-0.4,0-2.8,3.1h-2.1V8.4h8.8c0.6,0,0.8-0.2,0.8-0.5s-0.1-0.6-1.9-2.4c-1.3-1.3-1.6-1.5-2-1.5s-0.4,0.1-3,3.4h-2.7V3.8
	c1.2-0.6,1.7-1.1,1.7-1.6c0-0.6-0.4-1.1-7.7-1.8c0.1,2,0.2,3.8,0.2,6.4v0.5h-3.1c-1,0-2.7,0-5.8-0.3l0.4,1.6
	c1.8-0.2,3.5-0.3,5.3-0.3L58.5,8.4z M64.5,29.4c1.7,1.3,2.9,3.2,3.1,5.4c0.3,1.6,1,2.5,2.5,2.5c1.7,0,3-1.4,3-3.1c0-0.1,0-0.1,0-0.2
	c0-2.3-2.5-5.1-8.6-5.3v-0.4c0.9-0.4,1.2-0.7,1.2-1.1h7.3c0.3,0,0.5-0.2,0.5-0.6c0-0.3-0.1-0.7-1.5-2.1c-1.8-1.8-2.2-2-2.5-2
	c-0.3,0-0.5,0.1-3.2,3.7H55.1c-1.8,0-3.6-0.1-5.4-0.4l0.5,1.7c1.6-0.2,3.2-0.3,4.8-0.3h3.8c0.1,1.2,0.1,1.8,0.1,2.5v1.1
	c-0.6-0.5-2.1-1.1-5.5-2.4c-0.1,1-0.4,2.1-0.5,2.6c-0.8,3.8-2.3,7.3-4.6,10.5c-0.1,0.1-0.1,0.3,0.1,0.4c0.1,0.1,0.2,0.1,0.3,0
	c3.8-2.3,7-5.5,9.3-9.4c0.4-0.1,0.7-0.2,1-0.4v5.5c0.1,0.8-0.4,1.6-1.3,1.7c-0.1,0-0.2,0-0.2,0c-1,0.1-2,0.2-3.1,0.2
	c-0.3,0-0.4,0.3-0.1,0.4c1.7,0.5,3,1.9,3.5,3.6c0.2,1,0.5,1.2,1.2,1.2c1.3,0,2.6-0.3,3.7-0.9c1.5-0.8,2.1-2.1,2.1-4.3
	c0-0.8-0.2-5.4-0.2-9.4L64.5,29.4z M78.2,11.9h9.5c-0.6,2.6-1,4.2-1.6,6.3c-0.1,0.3,0.1,0.4,0.3,0.3c2.3-1.4,3.2-2,4.5-2.7
	c0.8-0.5,1.7-0.8,2.6-0.9c1.2-0.2,1.6-0.5,1.6-1.2c0-0.7-0.1-1-2.1-2.9C90.1,8.1,89.9,8,89.4,8c-0.4,0-0.6,0.1-3.1,2.9h-7.6
	c1.2-2.3,2.2-4.7,3-7.1c1.7-0.4,1.8-0.7,1.8-1.3s-1-1.1-7.9-2.5c-0.1,1.9-0.2,2.7-0.4,4c-0.8,6-2.4,12.6-4.3,16.4
	c0-0.3-0.1-0.5-1.4-1.7c-2-1.9-2.2-2-2.5-2c-0.4,0-0.5,0.1-3,3.4h-6.6c-1.8,0-3.6-0.1-5.4-0.4l0.5,1.7c1.6-0.2,3.3-0.3,4.9-0.3h13.2
	c-0.2,0.4-0.5,0.8-0.7,1.1c-0.2,0.2,0.1,0.5,0.4,0.3c2.9-2.6,5.3-5.6,7.2-9c0,0.9,0,1.6,0,2.4C76.9,35,70.9,41.8,62.8,44.8
	c-0.3,0.1-0.1,0.5,0.1,0.5c10.6-2.3,18.2-8.7,19.5-24.5l0.1-0.9v0.9c-0.1,4.5,0.3,8.9,1,13.3c0.6,3.6,2,7,4.1,9.9
	c0.4,0.5,0.6,0.6,1,0.6c0.3,0,0.5-0.1,1.2-0.9c1.1-1.3,2.9-3.2,5-3.7c0.3,0,0.3-0.3,0-0.4c-3.3-2.2-6-5.2-8-8.6
	c-2.4-4.5-3.7-9.6-3.8-14.7c1.1-0.5,1.4-0.9,1.4-1.3c0-0.7-0.5-1.1-6.7-2.3L78.2,11.9z M125.5,1.8c1.2,0.9,2,2.4,2.3,4.6
	c0.2,2,1.2,3,2.9,3c1.7,0,3.2-1.4,3.2-3.1c0,0,0-0.1,0-0.1c0-2.6-2.5-4.9-8.2-4.9C125.4,1.2,125.3,1.6,125.5,1.8z M140.1,11.5
	c0.5,0,0.7-0.2,0.7-0.6c0-0.3-0.2-0.6-1.7-2.1c-2.4-2.3-2.6-2.4-3.1-2.4c-0.5,0-0.7,0-3.7,4.2h-8.7c-0.2-2-0.3-4.1-0.4-6.3
	c1.5-0.7,1.8-1,1.8-1.5c0-0.8-0.5-1.2-7.7-2c0.3,1.8,0.4,3.2,0.7,6.1c0.1,1.2,0.2,2.5,0.3,3.7h-10.2c-0.5-0.4-2-1-7.1-2
	c0.4,3.7,0.5,7.4,0.4,11.1c0,16.2-1.5,21.2-4.7,24.9c-0.2,0.2,0,0.5,0.3,0.3c5.8-3.7,10-11.6,10-23.4v-0.6h5.6
	c-0.1,3.3-0.5,6.5-1.2,9.7c-0.3,1.3-1.1,2.3-2.2,2.4c-1.1,0.1-2.2,0.2-3.4,0.1c-0.1,0-0.2,0.1-0.2,0.2c0,0.1,0.1,0.2,0.2,0.2
	c1.9,0.5,2.5,1.6,2.9,3.5c0.2,0.8,0.7,1,1.6,1c2.6-0.2,4.9-1.9,6-4.4c0.8-2,1.4-4.5,1.8-11.2c1.2-0.9,1.3-1,1.3-1.5
	c0-0.4-0.2-0.6-1.6-1.8c-2.4-1.9-2.5-2-3.1-2c-0.5,0-0.6,0-2.7,2.7H107v-7.7c0.4-0.2,0.7-0.4,1.1-0.6h10.4
	c0.5,5.5,1.7,10.9,3.6,16.1c0.4,1.1,0.9,2.2,1.4,3.2c-3.2,5.5-7.9,9.9-13.5,12.9c-0.2,0.1,0,0.6,0.3,0.5c6-1.8,10.9-4.1,15.8-9
	c1.8,2.7,4.1,5,6.8,6.8c1.3,0.9,2.8,1.4,4.4,1.4c1.7,0,3.1-1.3,3.2-3c0,0,0-0.1,0-0.1c0-0.9-0.3-1.7-0.7-2.5
	c-0.3-0.7-0.5-1.4-0.5-2.1c0.5-2.3,1.2-4.5,2.1-6.7c0.1-0.3-0.2-0.4-0.4-0.2c-3.4,4.4-4.8,6-5.7,6c-0.5,0-1-0.2-1.4-0.5
	c-1.5-1.2-2.7-2.6-3.8-4.1c2.4-3.4,4.3-7.1,5.7-11c1.4-0.3,1.8-0.7,1.8-1.2c0-0.7-0.4-1.1-7.2-4.3c-0.3,1.5-0.6,3-0.9,4.3
	c-0.6,2.5-1.4,4.9-2.4,7.2c-1.8-4.3-2.9-8.9-3.4-13.6H140.1z M158.5,9c0.8-0.3,1.1-0.6,1.1-1.1h7.4c0.3,0,0.5-0.3,0.5-0.6
	c0,0,0,0,0,0c0-0.4-0.2-0.7-1.7-2.2c-2.2-2.2-2.4-2.4-2.9-2.4c-0.4,0-0.5,0.2-3.4,4.1h-9c-1.7,0-3.5-0.1-5.2-0.3l0.5,1.6
	c1.6-0.2,3.1-0.3,4.7-0.3h1.7c0.1,1.5,0.2,2.9,0.1,4.4v16.5c-1.5,0.3-3,0.6-4.3,0.9c-1.1,0.2-2.1,0.4-3.2,0.5c2.9,6.7,3.4,7.6,4,7.6
	c0.4,0,1.2-0.3,1.4-2c5-2.6,12.3-7,16.6-9.8c0.2-0.1,0-0.6-0.3-0.5c-2.2,0.6-5.1,1.3-8.2,2L158.5,9z M176,13.4
	c0.1-2.8,0.2-6,0.2-9.6c1.6-0.8,1.8-1.3,1.8-1.7c0-0.7-1.1-1.4-8.1-2c0.2,1.2,0.3,2.6,0.3,8.4c0,1.8,0,3.4,0,4.9h-3.3
	c-1.8,0-3.6-0.1-5.4-0.4l0.5,1.7c1.6-0.2,3.3-0.3,4.9-0.3h3.2c-0.4,9.7-1.7,14.9-4,19.2c-2.7,5-7.3,9.6-11.8,11.5
	c-0.3,0.1,0,0.5,0.3,0.4c6.1-1.6,11.5-5.1,15.5-9.9c3.5-4.4,5.2-9.6,5.8-21.2h6c-0.1,9.5-0.3,15.7-1.2,21.1
	c-0.5,2.9-1.6,3.5-3.2,3.6c-1,0-3.2,0.1-6.1,0c-0.3,0-0.3,0.4,0,0.5c3.9,1.4,5.2,2.4,5.8,4.6c0.2,0.9,0.5,1.2,1.3,1.2
	c4.8,0,7.3-2.3,8.3-7.1c0.7-3.6,1.1-9.6,1.2-21.7c1.2-1,1.4-1.2,1.4-1.6s-0.1-0.7-2-2.2c-2.3-1.9-2.5-2-3-2s-0.6,0.1-3.1,2.9
	L176,13.4z"/>
</svg>
