<?xml version="1.0" encoding="utf-8"?>
<!-- Generator: Adobe Illustrator 23.0.0, SVG Export Plug-In . SVG Version: 6.00 Build 0)  -->
<svg version="1.1" id="圖層_1" xmlns="http://www.w3.org/2000/svg" xmlns:xlink="http://www.w3.org/1999/xlink" x="0px" y="0px"
	 viewBox="0 0 89.1 327.8" style="enable-background:new 0 0 89.1 327.8;" xml:space="preserve">
<style type="text/css">
	.st0{fill:#EA5514;}
</style>
<g transform="translate(44.549 163.893)">
	<g transform="translate(-44.549 -163.893)">
		<path class="st0" d="M65.6,8.5c3.5,0.1,5.1,1.8,5.1,3.7c0.1,1-0.7,2-1.7,2.1c-0.1,0-0.2,0-0.3,0c-1,0-1.5-0.5-1.7-1.7
			c0-1.3-0.5-2.6-1.5-3.5c0,7.7,0.1,9.2,0.1,9.8c0,1-1.1,1.4-2.6,1.4c-1.3,0-1.6-0.3-1.6-1.2c0-0.7,0.1-2.5,0.2-6.6v-0.7
			c-2,2.5-4.5,4.5-7.3,5.9c-0.2,0.1-0.4-0.2-0.3-0.3c2.5-1.9,5.4-7.5,6.2-11.1H59c-1.2,0-2.5,0.1-3.7,0.3L55,5.3
			c1.3,0.2,2.7,0.3,4,0.3h2.7c0-3.1,0-3.8-0.1-5.6c5.1,0.4,5.4,0.6,5.4,1.2c0,0.4-0.2,0.7-1.3,1.1v3.2h0.3C67.6,3.1,67.7,3,68,3
			s0.4,0,1.6,1.4c1,1.1,1.1,1.3,1.1,1.5s-0.1,0.4-0.4,0.4h-4.8V8.5z M60.3,21.6c0.9,1.9,1.3,3.9,1.3,6c0.1,2.1-1.5,4-3.7,4.1
			c-0.1,0-0.1,0-0.2,0c-1.3,0.1-2.4-1-2.5-2.3c0,0,0-0.1,0-0.1c0-1.1,0.6-2,1.5-2.6c1.9-1,3.1-3,3.1-5.1
			C59.9,21.5,60.2,21.5,60.3,21.6z M67.7,27.6c0,1.3,0.4,1.5,3.6,1.5c4,0,5.1-0.4,6.1-1.4c1-1,1.7-2.3,2.7-5c0.1-0.2,0.3-0.2,0.3,0
			c-0.1,2.3-0.3,3.7-0.3,4.5c0,0.6,0.2,1.3,0.7,1.7c0.5,0.4,0.7,1,0.8,1.6c0,1.6-1.1,2.8-10.5,2.8c-7,0-7.7-0.9-7.7-3.6
			c0-1.3,0.1-4,0.1-5.5c0-1.2-0.1-2.4-0.2-3.5c4.8,0.4,5.5,0.8,5.5,1.3c0,0.3-0.2,0.5-1.1,1L67.7,27.6z M76.1,24.1
			c0,1.3-1,2.5-2.4,2.5c0,0-0.1,0-0.1,0c-1,0.1-2-0.6-2.1-1.7c0-0.1,0-0.2,0-0.3c-0.3-2.1-1-3.4-2.2-4.2c-0.2-0.1-0.1-0.3,0.1-0.3
			C74.4,20.2,76.1,22.1,76.1,24.1L76.1,24.1z M75.4,18.4c0,1-0.9,1.5-2.8,1.5c-1.2,0-1.4-0.3-1.5-1c0-0.5,0.1-3.9,0.1-9.7
			c0-5.6,0-6.7-0.2-8.3c3.6,0.8,4.7,1.1,5,1.5h5.1c1.6-1.8,1.7-1.9,2-1.9c0.4,0,0.5,0.1,2.1,1.3c1.5,1.2,1.7,1.4,1.7,1.7
			s-0.1,0.4-1,1.3v3.6c0,6.9,0.1,9.4,0.1,9.8c0,1-1.1,1.5-3.1,1.5c-1.1,0-1.4-0.3-1.4-1.2v-1h-6.2L75.4,18.4z M75.9,3.2
			c-0.2,0.1-0.3,0.2-0.5,0.3v3.7h6.2v-4L75.9,3.2z M75.4,7.9v4h6.2v-4L75.4,7.9z M81.5,16.7v-4.1h-6.2v4.1H81.5z M88.3,26.6
			c0.2,1.5-0.9,2.8-2.4,2.9c-0.1,0-0.3,0-0.4,0c-1.2,0-2.2-0.8-2.3-2.4c-0.3-2.7-1-4.5-2.6-5.7c-0.1-0.1-0.1-0.2-0.1-0.2
			c0-0.1,0.1-0.1,0.2-0.1C85.4,21.5,88.3,23.6,88.3,26.6L88.3,26.6z"/>
		<path class="st0" d="M66.3,54.4c0,5.9,0.2,8.5,0.2,9.5c0,1.1-0.7,1.8-3,1.8c-0.9,0-1.2-0.4-1.2-1.4v-0.8h-2.7v3.1
			c0,1.1-1,1.5-2.9,1.5c-0.8,0-1.1-0.2-1.1-1.3c0-1,0.1-6.7,0.1-11.9c0-4.1,0-6.2-0.1-8.2c3.4,0.9,4.5,1.4,4.8,1.8H62
			c1.4-1.9,1.6-2,1.9-2c0.4,0,0.5,0,2.1,1.3c1.4,1.1,1.5,1.3,1.5,1.6c0,0.4-0.1,0.5-1,1.3V54.4z M62.3,62.8V49.2h-1.9
			c-0.2,0.2-0.5,0.4-0.8,0.5v13.1L62.3,62.8z M81.6,51.4c2.7-3.5,2.8-3.6,3.2-3.6s0.6,0.1,2.6,2.1c1.2,1.2,1.4,1.4,1.4,1.8
			s-0.1,0.5-0.6,0.5H72.3c-1.5,2.3-3.3,4.4-5.2,6.4c-0.1,0.1-0.5,0-0.4-0.2c1.2-1.9,3.1-7.4,4-12.3C70.8,45,71,44,71,43.1
			c5.8,1.3,6.1,1.7,6.1,2.1c0,0.6-0.3,0.8-1.6,1.2c-0.8,1.7-1.7,3.4-2.8,5H81.6z M76.6,57.7c2.1-2.3,2.2-2.3,2.6-2.3
			c0.4,0,0.6,0.1,2.1,1.3c1.6,1.4,1.8,1.7,1.8,2c0,0.5,0,0.6-2.7,1.9c-6.5,7.5-7.6,9-7.6,9.8s0.1,1.1,5.4,1.1c3.8,0,5.3-0.4,6.1-1.3
			c1.3-1.6,2.3-3.5,2.8-5.5c0.1-0.2,0.3-0.1,0.3,0.1c-0.2,3-0.2,4-0.2,4.4c0,0.6,0.2,1.1,0.6,1.6c0.4,0.6,0.6,1.2,0.6,1.9
			c0,1.7-1.1,2.9-10.8,2.9c-8.3,0-9.3-1.4-9.3-3.7c0-1.9,0.1-2.5,8.5-13.5h-4.2c-1.2,0-2.4,0.1-3.5,0.3l-0.4-1.2
			c1.3,0.2,2.6,0.3,3.9,0.3L76.6,57.7z"/>
		<path class="st0" d="M84.7,97.1c1.5-2.8,1.7-3,1.9-3s0.4,0.1,1.3,1.4c1.1,1.5,1.2,1.6,1.2,1.9s-0.2,0.5-0.6,0.5h-3.8v3.2
			c0,11.7,0.2,15,0.2,16.8c0,1-0.7,1.7-2.8,1.7c-1.4,0-1.7-0.2-1.7-1.4V116h-4v2c0,1.2-1.1,1.7-2.8,1.7c-1.4,0-1.7-0.4-1.7-1.3
			c0-1,0.3-5.5,0.3-17.1v-3.5h-1.7c0.5,0.6,0.6,0.8,0.6,1c0,0.3-0.2,0.4-0.7,0.4h-5.7v7.2h0.2c1.7-2.1,1.8-2.2,2.1-2.2
			c0.4,0,0.6,0.1,2.2,1.5c1.1,1,1.3,1.3,1.3,1.6s-0.1,0.4-1.1,1.3v1.9c0,2.7,0.2,5,0.2,6c0,1.1-1.3,1.8-2.6,1.8
			c-1.3,0-1.7-0.3-1.7-1.5V116h-5.3v1.7c0,1.1-0.9,1.7-2.6,1.7c-1.3,0-1.5-0.2-1.5-1.4c0-0.6,0.2-4,0.2-7.6c0-2.3,0-3.7-0.1-5.5
			c2.8,0.7,4,1.2,4.4,1.5h0.2v-7.2h-2.1c-1.2,0-2.4,0.1-3.6,0.3l-0.3-1.2c1.3,0.2,2.6,0.2,4,0.3h2.1V96c0-1.6,0-2.6,0-3.5
			c-2.1,0.2-4.1,0.3-6.2,0.3c-0.2,0-0.3-0.4-0.1-0.4c3.9-1,7.7-2.4,11.2-4.4c0.4-0.2,0.8-0.5,1.1-0.8c3.9,2.8,4.3,3.3,4.3,4
			c0,0.6-0.5,0.6-2.3,0.5c-1,0.1-2.1,0.3-3.1,0.4c0,0.1,0,0.1,0,0.2c0,0.4-0.2,0.5-0.8,0.8v5.5h1.2c1.9-2.8,2.1-2.9,2.3-2.9
			c0.3,0,0.4,0.1,1.7,1.4h2.3c0.1-3.4,0-6.9-0.3-10.3c4.5,0.6,5.6,1,5.6,1.5c0,0.5-0.3,0.8-1.2,1.3v7.5h4c0.1-3.4,0-6.9-0.3-10.3
			c4.4,0.5,5.9,1,5.9,1.4s-0.3,0.8-1.3,1.2L84.7,97.1z M65.4,115.3v-8.1h-4.9c-0.1,0.1-0.3,0.3-0.5,0.4v7.7L65.4,115.3z M76.3,97.8
			v7.5h4v-7.5H76.3z M80.3,115.3v-9.3h-4v9.3H80.3z"/>
		<path class="st0" d="M57.9,155.1c0.9,1.4,1.3,3.1,1.3,4.7c0.1,1.5-1,2.9-2.6,3c-1,0.1-1.8-0.5-2-1.5c0-0.1,0-0.2,0-0.3
			c0-0.5,0.3-1,1.2-1.9c1.1-1,1.7-2.5,1.7-4.1C57.4,154.9,57.7,154.9,57.9,155.1z M67.1,131.4c1.2-1.7,1.3-1.7,1.6-1.7
			c0.2,0,0.4,0,1.8,1.2c1.1,0.9,1.3,1.1,1.3,1.4c0,0.3-0.1,0.4-1,1.1v3.1c0,2.7,0.2,5.4,0.2,6.3c0,1.2-0.6,1.6-2.5,1.6
			c-0.8,0-0.9-0.3-0.9-1.2v-0.4h-2.7v4.2h1.2c1.8-2.2,2-2.4,2.3-2.4c0.3,0,0.4,0,1.8,1.3c1,0.9,1.1,1.2,1.1,1.4s-0.1,0.4-0.4,0.4h-6
			v2.7c2.1-0.2,4.1-0.5,6.3-0.8c0.1,0,0.2,0,0.2,0.1c0,0.1,0,0.2-0.1,0.2c-4.5,2-9.2,3.7-14,5c-0.2,0.8-0.5,1-0.8,1
			c-0.5,0-0.9-0.6-1.9-5c0.8,0,1.6,0,2.3,0c1.7-0.1,3.1-0.2,4.5-0.3v-3h-1.6c-1.2,0-2.5,0.1-3.7,0.3l-0.4-1.3c1.3,0.2,2.7,0.3,4,0.3
			h1.6v-4.2h-2.6v0.9c0,1-0.6,1.3-1.9,1.3c-1.2,0-1.3-0.1-1.3-1c0-0.7,0.2-4,0.2-8.9c0-3,0-4.1-0.1-5.3c2.5,0.8,3.4,1.2,3.7,1.5
			L67.1,131.4z M58.9,134.4c1.5,0.4,2.6,1.6,2.9,3.1v-3.9c0-0.5,0-1,0-1.6h-2.3c-0.2,0.2-0.4,0.3-0.6,0.4L58.9,134.4z M58.9,142.1
			h2.9V139c-0.1,0.7-0.7,1.3-1.4,1.3c-0.6,0-1-0.5-1-1.2c0-0.5,0.1-1,0.2-1.8c0.1-0.8-0.1-1.6-0.6-2.3L58.9,142.1z M63.4,159.4
			c0,1.7-0.8,2.5-2.2,2.5c-0.8-0.1-1.3-0.7-1.3-1.5c0-0.5,0.1-0.9,0.1-1.7c0.3-1.3,0-2.7-0.7-3.9c-0.1-0.2,0.1-0.3,0.3-0.2
			C61.8,155.3,63.3,157.2,63.4,159.4L63.4,159.4z M67.5,159c0.1,1-0.6,2-1.6,2.1c-0.1,0-0.1,0-0.2,0c-1,0-1.5-0.8-1.5-1.8
			c0-1.9-0.8-3.8-2.3-5c-0.2-0.1,0.1-0.3,0.3-0.2C66.2,154.9,67.5,156.9,67.5,159L67.5,159z M67.6,132.1h-2.5c0,0.2-0.2,0.3-0.5,0.6
			v6.5c0.3-1.2,0.5-2.7,0.7-3.6c0.1-0.6,0.1-1,0.2-1.7c0.7,0.3,1.5,0.7,2.1,1.2L67.6,132.1z M67.6,142.1v-5.9
			c-0.1,0.1-0.3,0.2-0.4,0.3c-0.7,1.1-1.5,2.2-2.6,3.9v1.8L67.6,142.1z M71.5,157.9c0,1.1-0.5,2.2-1.9,2.2c-0.7,0-1.4-0.5-1.5-1.9
			c-0.1-2-1.4-3.7-3.2-4.5c-0.2-0.1-0.1-0.3,0.1-0.3C69.8,153.5,71.5,155.8,71.5,157.9L71.5,157.9z M82.9,138.7c2.1-2.8,2.3-3,2.7-3
			c0.4,0,0.7,0.3,2.1,1.7c1.2,1.2,1.3,1.4,1.3,1.7c0,0.3-0.2,0.4-0.5,0.4H81v8.4h1.3c1.6-2.1,1.8-2.2,2.1-2.2c0.4,0,0.8,0.2,2.1,1.4
			c1.4,1.2,1.6,1.4,1.6,1.8s-0.2,0.5-1.1,1.3v3.6c0,2.7,0.2,5.9,0.2,7.3c0,1.1-1.3,1.7-2.9,1.7c-1.3,0-1.4-0.2-1.4-1.4v-1.2h-7v1.3
			c0,1.1-0.6,1.7-2.7,1.7c-1.3,0-1.4-0.2-1.4-1.4c0-0.6,0.2-4.4,0.2-9.9c0-1.9,0-3.7-0.1-5.6c3.1,0.9,4.1,1.3,4.5,1.6h0.5v-11.3
			c0.1-2.3,0-4.7-0.3-7c5.1,0.4,5.6,0.8,5.6,1.4c0,0.4-0.3,0.6-1.3,1.1v6.7L82.9,138.7z M82.9,159.4v-10.8h-6.6
			c-0.1,0.2-0.3,0.3-0.4,0.4v10.4L82.9,159.4z"/>
		<path class="st0" d="M68,207.5v-36h1.2v36H68z"/>
		<path class="st0" d="M68,243.5v-36h1.2v36H68z"/>
		<path class="st0" d="M20.2,44.8c1.2,0,2.7,0.1,4.3,0.1c3.4,0.1,6.8-0.1,10.1-0.6c0.2,0,0.3,0.3,0.1,0.4c-1.5,0.8-2.6,2.3-2.8,4
			c-0.1,0.5-0.5,0.9-1,0.9c-1.9,0.1-3.8,0.2-5.7,0.1c-5.5,0-9-0.8-11.4-2.3c-2.1-1.2-3.5-3.3-4-5.6c-2.5,3.4-5.7,6.2-9.5,8
			c-0.2,0.1-0.4-0.2-0.2-0.3c2.4-1.8,5.7-7,7.3-13c0.2-0.8,0.4-1.4,0.5-2.3c5.3,1.8,5.5,2,5.5,2.5c0,0.5-0.1,0.6-1.4,1
			c-0.5,1.3-1.2,2.5-1.9,3.6c0.7,1.2,1.8,2.1,3.2,2.5c0.7,0.3,1.4,0.5,2.2,0.6v-7.5c0-1.3,0-2.4-0.1-3.7H5.8c-1.4,0-2.7,0.1-4.1,0.3
			l-0.4-1.2c1.9,0.2,3.3,0.3,4.5,0.3h21.5c2.5-3.2,2.6-3.2,2.9-3.2s0.5,0,2.4,1.9c1.3,1.2,1.4,1.3,1.4,1.7c0,0.2-0.1,0.4-0.3,0.4
			c0,0,0,0-0.1,0H21c0,0.3-0.2,0.4-0.8,0.7V39h4.4c2.4-3,2.4-3,2.8-3c0.4,0,0.5,0,2.4,1.8c1.2,1.2,1.3,1.2,1.3,1.5
			c0,0.2-0.1,0.3-0.3,0.4c0,0-0.1,0-0.1,0H20.2V44.8z M12,29.7c0,1-0.9,1.5-3,1.5c-1.3,0-1.6-0.3-1.6-1.2c0-0.6,0.1-3.5,0.1-7.8
			c0-1.8,0-4-0.1-5.5c4,0.8,4.9,1.2,5.2,1.5h9.5c1.7-1.9,1.8-2,2.2-2c0.4,0,0.5,0,2.4,1.4c1.5,1.2,1.6,1.3,1.6,1.6
			c0,0.3-0.1,0.4-0.9,1.1v3.2c0,3.1,0.2,4.6,0.2,5.3c0,1-1.1,1.6-3.2,1.6c-1.4,0-1.7-0.2-1.7-1.3v-0.7H12V29.7z M12.6,19
			c-0.2,0.2-0.4,0.3-0.6,0.4V23h10.7v-4L12.6,19z M22.7,27.9v-4.1H12v4.1H22.7z"/>
		<path class="st0" d="M21.6,64c2.8,0.6,3.1,1.1,3.1,1.4c0,0.5-0.4,0.8-1.5,0.9c-1,1.9-2.2,3.6-3.6,5.3c0.9,0.3,1,0.5,1,0.8
			c0,0.4-0.1,0.5-0.9,0.9v5.2c0,6.6,0.3,12.2,0.3,13.4c0,1-1.2,1.6-3.3,1.6c-1.4,0-1.8-0.3-1.8-1.4c0-1,0.2-6.1,0.2-13.6v-2.1
			c-4.3,4.1-9.3,7.3-14.7,9.5c-0.2,0.1-0.4-0.3-0.3-0.4c5.3-3.2,13.2-12.1,16.7-19.1c0.4-0.7,0.7-1.5,1-2.3H6.7
			c-1.3,0-2.7,0.1-4.7,0.3L1.7,63c2.4,0.2,3.8,0.3,5.1,0.3h19.4c2.9-3.3,3-3.5,3.4-3.5c0.4,0,0.5,0.1,2.6,1.9
			c1.3,1.2,1.6,1.6,1.6,1.8S33.5,64,33.2,64L21.6,64z M34.3,81.3c0,2.2-1.3,3.3-2.8,3.3c-1.3,0-2.1-0.7-2.8-2.6
			c-1.3-3.9-4.1-7.9-7.5-9.8c-0.1-0.1-0.1-0.2,0-0.3c0-0.1,0.1-0.1,0.2-0.1C29,72.7,34.3,77.3,34.3,81.3z"/>
		<path class="st0" d="M6.2,109.4c0.1,0.3,0.1,0.7,0.1,1c0,2-0.9,4.1-3,4.1c-1.1,0.1-2.2-0.7-2.3-1.8c0-0.1,0-0.2,0-0.3
			c0-0.9,0.4-1.7,1.2-2.2c1.5-1.1,2.3-2.1,2.3-3.7c0-0.2,0.2-0.2,0.4,0c0.5,0.6,0.9,1.4,1.2,2.2h9.3c0-1,0-2-0.1-3H9.6
			c-1.3,0-2.6,0.1-3.9,0.3l-0.4-1.2c1.9,0.2,3.2,0.3,4.3,0.3H25c2-2.5,2.2-2.6,2.5-2.6c0.3,0,0.4,0,2,1.4c1.4,1.2,1.4,1.4,1.4,1.6
			c0,0.2-0.1,0.3-0.4,0.3h-10c0,0.3-0.2,0.4-0.7,0.6v2.3h8.1c1.8-2.1,2.1-2.2,2.4-2.2c0.3,0,0.7,0.1,2.8,1.9
			c1.4,1.2,1.7,1.6,1.7,2.2c0,0.4-0.4,0.7-1.4,0.8c-0.6,0-1.2,0.2-1.7,0.5c-0.7,0.4-1.5,0.8-3.3,1.8c-0.2,0.1-0.3,0-0.3-0.2
			c0.4-1.3,0.7-2.6,0.9-4h-9.1v0.3c0,3.7,0.2,7.1,0.2,7.7c0,0.9-0.7,1.3-3,1.3c-1.4,0-1.8-0.4-1.8-1.2c0-0.7,0.2-4.1,0.2-8.2
			L6.2,109.4z M28.3,119.7c2.2-2.6,2.4-2.8,2.8-2.8c0.3,0,0.6,0.2,2.1,1.5c1.3,1.2,1.4,1.4,1.4,1.7c0,0.2-0.1,0.3-0.4,0.3H20.4
			c0,0.4-0.2,0.5-1.1,0.7c-1.4,1.1-2.2,1.8-3.3,2.6h9.6c1.8-1.9,1.9-2,2.3-2c0.4,0,0.6,0,2.7,1.5c0.7,0.5,0.9,0.7,0.9,1
			c0,0.3-0.1,0.4-1,1.3v2c0,3.2,0.1,4.8,0.1,5.3c0.1,1.4-0.7,2.8-2.1,3.3c-0.7,0.3-1.4,0.4-2.2,0.4c-0.6,0-0.8-0.3-0.9-0.9
			c-0.3-1.1-1.1-1.9-2.1-2.2v0.8c0,0.9-0.7,1.3-3.2,1.3c-0.9,0-1-0.3-1-1.2c0-0.4,0.1-4.3,0.1-7.5c0-1,0-1.7,0-2.4h-2.4
			c-0.1,0.1-0.2,0.3-0.4,0.4v2c0,3.2,0.1,6.9,0.1,7.4c0,0.9-0.7,1.3-3,1.3c-1.1,0-1.3-0.3-1.3-1.2c0-0.4,0.1-4.2,0.1-7.6
			c0-1,0-1.7,0-2.3H9.9c-0.2,0.2-0.4,0.4-0.6,0.5v1.4c0,4.8,0,8,0,8.6c0,1-0.7,1.5-2.8,1.5c-1.2,0-1.4-0.3-1.4-1.1
			c0-0.8,0.2-4.8,0.2-8.2c0-1.7,0-2.8-0.1-4.6c3.4,0.6,4.5,0.9,4.8,1.2h4c0.3-1.2,0.5-2.2,0.7-3.3H5.8c-1.4,0-2.9,0.1-4.3,0.3
			l-0.4-1.2c1.9,0.2,3.5,0.3,4.6,0.3L28.3,119.7z M4.9,115.8c1,0.1,2.1,0.2,3.1,0.2h2.3c1.4-1.7,1.5-1.8,1.7-1.8
			c0.2,0,0.4,0.1,1.4,1c0.8,0.8,0.9,1,0.9,1.2c0,0.2-0.1,0.3-0.2,0.3c0,0-0.1,0-0.1,0H8c-0.6,0-1.7,0-2.8,0.1L4.9,115.8z M9.8,113.2
			c-0.6,0-1.7,0-2.8,0.1l-0.3-1c1,0.1,2.1,0.2,3.1,0.2h0.5c1.4-1.7,1.5-1.8,1.7-1.8s0.3,0,1.4,1c0.8,0.7,0.9,0.9,0.9,1.2
			c0,0.2-0.1,0.3-0.2,0.3c0,0-0.1,0-0.1,0H9.8z M20.6,115.8c1.1,0.1,2.1,0.2,3.2,0.2H26c1.5-1.8,1.6-1.9,1.9-1.9
			c0.1,0,0.4,0.1,1.7,1.2c0.8,0.7,0.9,0.9,0.9,1.1c0,0.3-0.1,0.4-0.3,0.4h-6.4c-0.7,0-1.8,0-2.9,0.1L20.6,115.8z M23.3,113.2
			c-0.6,0-1.3,0-2.4,0.1l-0.3-1c0.9,0.1,1.8,0.2,2.7,0.2h0.4c1.4-1.7,1.5-1.8,1.7-1.8s0.4,0.1,1.3,1c0.8,0.8,0.9,0.9,0.9,1.2
			c0,0.2-0.1,0.3-0.2,0.3c0,0-0.1,0-0.1,0H23.3z M23.1,126.8c0,2.2,0,4.8,0.1,6.2c0.8,0,1.5,0,2.3-0.1c0.3,0,0.6-0.3,0.5-0.6v-7.8
			h-2.5c0,0.1-0.2,0.2-0.4,0.4L23.1,126.8z"/>
		<path class="st0" d="M27.5,165.9c2.5-3,2.7-3.2,3-3.2s0.6,0.1,2.4,1.8c1.4,1.3,1.5,1.5,1.5,1.7c0,0.3-0.1,0.4-0.4,0.4H23.8
			c2.3,0.5,2.7,0.8,2.7,1.2c0,0.4-0.3,0.6-1.6,1c-0.7,1.2-1.4,2.4-2.2,3.5c2,0.4,3.9,1.1,5.6,2.2c1.5,0.9,2.1,1.7,2.1,3
			c-0.1,1.2-1.1,2.2-2.3,2.2c-1,0-2-0.5-2.7-1.3c-1.6-1.4-3.3-2.5-5.1-3.5c-4.1,3.5-9.8,4.9-18.4,4.6c-0.2,0-0.3-0.4,0-0.4
			c6.4-0.5,11.6-2.4,15-5.9c-1.5-0.6-3.1-1.1-4.6-1.5l-1,1.4c-0.5,0.7-1.3,1.1-2.1,1c-1.6,0-3.1-0.3-3.1-1c0-0.3,0.2-0.6,0.4-0.8
			c1.6-2.1,3-4,4.2-5.8H5.5c-1.5,0-3,0.1-4.5,0.3l-0.3-1.2c1.6,0.2,3.2,0.3,4.8,0.3h5.4c0.9-1.3,1.6-2.7,2.3-4
			c0.3-0.5,0.5-1,0.7-1.5H8.6v0.1c0,1.5-0.9,2-2.8,2c-1.2,0-1.4-0.2-1.4-1.3c0-0.4,0.1-2.7,0.1-4.5c0-1.9,0-3.6-0.1-5
			c3.8,0.9,4.8,1.2,5,1.7h2.4v-3.9H6.9c-1.8,0-3.7,0.1-5.5,0.3l-0.3-1.2c1.9,0.2,3.9,0.3,5.8,0.3h20.8c2.5-3,2.6-3,2.9-3
			s0.5,0,2.2,1.6c1.4,1.3,1.5,1.4,1.5,1.7c0,0.2-0.1,0.4-0.3,0.4c0,0-0.1,0-0.1,0H23.5c0,0.2-0.3,0.4-0.5,0.5v3.4h2.8
			c1.9-2,2-2.1,2.3-2.1c0.4,0,0.6,0.1,2.3,1.4c1.3,1,1.3,1.1,1.3,1.4c0,0.3-0.1,0.4-1,1.2v0.8c0,1.8,0.2,4,0.2,4.4
			c0,1-0.9,1.7-3,1.7c-1.5,0-1.7-0.3-1.7-1.3v-0.5H15c3.6,1,4.2,1.4,4.2,1.9c0,0.5-0.4,0.8-1.7,1.2c-0.5,0.8-1,1.6-1.5,2.4
			L27.5,165.9z M8.6,159.7h3.2v-5.5H9.3c-0.2,0.2-0.4,0.3-0.6,0.5L8.6,159.7z M15.5,166.6c-1,1.4-2,3-3,4.5c2.1,0.1,3.9,0.2,5.7,0.4
			c0.6-0.8,1.2-1.7,1.6-2.7c0.3-0.7,0.6-1.4,0.9-2.2L15.5,166.6z M15.8,153.4h3.2v-3.9h-2.6c0,0.1-0.3,0.3-0.5,0.5L15.8,153.4z
			 M18.9,159.7v-5.5h-3.2v5.5H18.9z M23,154.1v5.5h3.2v-5.5H23z"/>
		<path class="st0" d="M9,211.4c1.9-0.3,3.8-0.6,5.6-1c0.2,0,0.4,0.3,0.2,0.4c-3.4,2.2-7,4.3-10.7,6.1c-0.1,1.3-0.5,1.5-0.8,1.5
			c-0.6,0-1-0.3-2.8-6c0.8,0,1.5,0,2.3-0.1l2.1-0.3v-8.9c-1.2,0-2.4,0.1-3.6,0.3l-0.3-1.2c1.3,0.2,2.6,0.2,3.9,0.3v-5.8
			c0-1.1,0-2.3-0.1-3.3c-1.3,0-2.5,0.1-3.7,0.3l-0.3-1.2c1.4,0.2,2.8,0.3,4.2,0.3h3.7c2-2.6,2.1-2.6,2.3-2.6s0.4,0.1,1.9,1.6
			c1,1,1.1,1.1,1.1,1.3c0,0.2-0.2,0.4-0.4,0.4c0,0,0,0,0,0H9.8c0,0.3-0.3,0.6-0.8,0.8v8.3c1.7-2.3,1.7-2.4,2-2.4
			c0.3,0,0.4,0,1.5,1.3c1,1.2,1.1,1.3,1.1,1.5c0,0.2-0.1,0.3-0.4,0.3H9V211.4z M28.5,220.6c2.3-3,2.4-3,2.7-3s0.5,0.1,2.3,1.7
			c1.4,1.2,1.5,1.4,1.5,1.7c0,0.2-0.1,0.3-0.3,0.4c0,0-0.1,0-0.1,0H13c-0.8,0-2.4,0.1-4.1,0.3l-0.4-1.2c1.8,0.2,3.4,0.3,4.4,0.3h7.8
			v-6.6h-3.3c-1.2,0-2.4,0.1-3.6,0.3l-0.3-1.2c1.3,0.2,2.6,0.2,4,0.3h3.3v-6.6h-2.6v0.8c0,1.4-0.8,1.9-2.5,1.9
			c-1.3,0-1.7-0.2-1.7-1.3c0-0.6,0.2-4.7,0.2-11.1c0-3.5,0-4.8-0.2-6.9c3.4,0.8,4.5,1.1,4.8,1.4h8.5c1.6-1.7,1.7-1.8,2.1-1.8
			c0.4,0,0.6,0.1,2.4,1.5c1.4,1.2,1.5,1.3,1.5,1.6c0,0.3-0.1,0.5-1.2,1.3v4.2c0,4.3,0.2,7.9,0.2,8.7c0,1-0.8,1.7-3,1.7
			c-1.3,0-1.5-0.2-1.5-1.3v-0.7H25v6.6h2.4c2.1-2.7,2.3-2.9,2.7-2.9c0.3,0,0.6,0.2,2.2,1.7c1.3,1.2,1.4,1.4,1.4,1.7
			s-0.1,0.3-0.4,0.3H25v6.6L28.5,220.6z M18.8,192.1c-0.2,0.2-0.4,0.4-0.6,0.5v6.2h2.6v-4.9c0-0.8,0-1.3-0.1-1.8L18.8,192.1z
			 M20.7,206v-6.4h-2.6v6.4H20.7z M25,198.9h2.8v-6.7h-2.1c0,0.2-0.2,0.5-0.6,0.7L25,198.9z M27.8,206v-6.4H25v6.4H27.8z"/>
		<path class="st0" d="M26.1,241.2c1.9-2.1,2.1-2.2,2.4-2.2s0.7,0.2,2.4,1.5c1.2,0.9,1.5,1.3,1.5,1.5s-0.2,0.6-1.1,1.2v6.5
			c0,7.7,0.2,13.1,0.2,14.1c0,1.1-1,1.8-3.1,1.8c-1.6,0-1.8-0.3-1.8-1.3v-1.7H8.2v1.7c0,1-0.9,1.7-3.1,1.7c-1.3,0-1.5-0.2-1.5-1.3
			c0-1,0.3-7.6,0.3-15.5c0-5.4,0-7.8-0.2-9.7c3.9,0.8,5.1,1.3,5.4,1.7h5.9v-0.1c0-3.9,0-6.3-0.1-8.3c5.6,0.5,6.1,0.7,6.1,1.3
			c0,0.4-0.4,0.6-1.2,1.1v6L26.1,241.2z M14.9,242H9c-0.2,0.2-0.5,0.4-0.8,0.5v8.5h6.7L14.9,242z M8.2,262h6.7v-10.3H8.2V262z
			 M19.6,242v9h7v-9H19.6z M26.6,262v-10.3h-7V262H26.6z"/>
		<path class="st0" d="M15,290.3c0,7.4,0.3,12.1,0.3,13c0,1.1-0.9,1.6-2.7,1.6c-1.3,0-1.6-0.2-1.6-1.4v-1.8H6.2v3.5
			c0,1.1-0.9,1.6-2.5,1.6c-1.3,0-1.6-0.1-1.6-1.4c0-1,0.3-7.6,0.3-12c0-5.5,0-8.1-0.1-10.9c1.6,0.4,2.7,0.8,3.4,1
			c0.2-1.8,0.3-3.2,0.4-5c0-0.6,0-1.2,0-2.2c4.9,1,5.6,1.2,5.6,1.8c0,0.4-0.3,0.8-1.4,1.1C9,281,8,282.5,6.8,284.1h3.9
			c1.5-1.8,1.6-1.9,1.9-1.9c0.4,0,0.5,0,1.9,1.3c1.5,1.3,1.6,1.4,1.6,1.8s-0.1,0.4-1.1,1.2L15,290.3z M6.9,284.8
			c-0.1,0.2-0.3,0.3-0.8,0.6v7.1h4.8v-7.6L6.9,284.8z M10.9,301v-7.8H6.2v7.8L10.9,301z M28.4,283.4c1.8-2.2,1.9-2.2,2.3-2.2
			c0.4,0,0.6,0.1,2.6,1.7c1,0.9,1.2,1,1.2,1.4c0,0.4-0.1,0.5-1.2,1.3c0,10-0.2,15.8-0.9,18.8c-0.8,3.5-2.9,4.9-6.2,4.9
			c-0.8,0-0.9-0.2-1.1-0.9c-0.5-1.9-1.5-3-4.2-3.7c-0.2-0.1-0.2-0.4,0-0.4c1.7,0.1,3.5,0.1,5.2,0c1.2-0.1,1.9-0.6,2.2-2.8
			c0.4-2.8,0.8-7.4,0.7-17.4h-7.3c-1.6,2.5-3.5,4.8-5.7,6.8c-0.2,0.1-0.4-0.1-0.3-0.3c1.5-2.3,3.1-7.7,3.9-12.5
			c0.1-0.9,0.3-1.5,0.3-2.4c5.7,1.4,6,1.8,6,2.3c0,0.4-0.3,0.6-1.5,1c-0.7,1.5-1.4,3-2.3,4.4L28.4,283.4z M20.7,296
			c-0.1-2.8-0.5-4.6-2.1-6c-0.2-0.1,0-0.4,0.2-0.3c4.7,0.6,6.8,3.2,6.8,5.9c0,2.1-1.2,3.1-2.8,3.1C21.6,298.7,20.8,297.9,20.7,296
			L20.7,296z"/>
		<path class="st0" d="M30.3,327.8c-2.5,0-4.5-2-4.5-4.5c0-2.5,2-4.5,4.5-4.5c2.5,0,4.5,2,4.5,4.5c0,2.4-1.9,4.5-4.3,4.5
			C30.4,327.8,30.4,327.8,30.3,327.8z M30.3,320c-1.8,0-3.3,1.5-3.3,3.3c0,1.8,1.5,3.3,3.3,3.3s3.3-1.5,3.3-3.3l0,0
			C33.6,321.5,32.2,320,30.3,320C30.4,320,30.3,320,30.3,320L30.3,320z"/>
	</g>
</g>
</svg>
