<?xml version="1.0" encoding="utf-8"?>
<!-- Generator: Adobe Illustrator 23.0.0, SVG Export Plug-In . SVG Version: 6.00 Build 0)  -->
<svg version="1.1" id="圖層_1" xmlns="http://www.w3.org/2000/svg" xmlns:xlink="http://www.w3.org/1999/xlink" x="0px" y="0px"
	 viewBox="0 0 88.9 307.2" style="enable-background:new 0 0 88.9 307.2;" xml:space="preserve">
<style type="text/css">
	.st0{fill:#EA5514;}
</style>
<g transform="translate(44.469 153.576)">
	<g transform="translate(-44.468 -153.576)">
		<path class="st0" d="M82.3,20.6C83.8,19,84,19,84.3,19c0.4,0,0.5,0,2.1,1.4c1.5,1.2,1.6,1.4,1.6,1.8s-0.1,0.5-1.2,1.2
			c-0.8,4.9-1.6,7.7-2.7,8.9c-1.2,1.2-2.8,1.8-4.5,1.7c-0.9,0-1.2-0.1-1.3-0.9c-0.4-1.6-1-2.3-3.6-3.1c-0.2-0.1-0.2-0.4,0-0.4
			c1.9,0,2.8,0,3.9-0.1c0.9,0.1,1.9-0.4,2.3-1.2c0.9-2.2,1.5-4.5,1.6-6.8H66c-4.1,4.3-7.8,6.9-11.3,8.1c-0.2,0.1-0.3-0.3-0.1-0.4
			c2.3-1.2,6.4-5,9.1-9.5c2-3.2,3.6-6.5,4.8-10h-5.1c-1.4,0-2.8,0.1-4.2,0.3l-0.4-1.2c1.5,0.2,3.1,0.3,4.6,0.3h5.4
			c0.4-1.3,0.8-2.6,1.1-4c0.4-1.6,0.7-3.2,0.9-4.9c5.4,1.7,6,2.2,6,2.7c0,0.5-0.4,0.9-1.7,1.2c-0.5,1.7-1,3.4-1.7,5h2.3
			c1.5-1.6,1.8-1.7,2.1-1.7c0.3,0,0.5,0.1,2,1.2C80.9,9.2,81,9.4,81,9.7s-0.1,0.4-1.2,1.2c-0.4,1.1-0.9,2.7-1.4,4.1H79
			c1.6-1.6,1.7-1.7,2-1.7c0.3,0,0.6,0.1,1.9,1.2c1.2,1,1.4,1.1,1.4,1.4c0,0.4-0.1,0.5-1,1.1c-0.3,1.2-0.7,2.4-1.1,3.7L82.3,20.6z
			 M64.3,23.7c1.2,1.2,1.8,2.8,1.8,4.5c0,1.3-0.9,3.2-2.8,3.2c-1.2,0.1-2.2-0.7-2.3-1.8c0-0.1,0-0.1,0-0.2c0-0.8,0.4-1.5,1-1.9
			c1.3-0.8,2.1-2.2,2.1-3.7C64,23.6,64.2,23.5,64.3,23.7L64.3,23.7z M62.1,1.2c3.7,0.2,5.9,2.1,5.9,4.1c0.1,1.5-1,2.8-2.5,2.9
			c0,0-0.1,0-0.1,0c-1.1,0.1-2-0.8-2.1-1.8c0-0.1,0-0.2,0-0.3c0-2.3-0.3-3.8-1.5-4.6C61.8,1.4,61.9,1.2,62.1,1.2L62.1,1.2z
			 M70.2,15.6c-1,1.8-2.2,3.4-3.5,5h11c0.6-1.9,1.1-3.6,1.4-5H70.2z M71.3,27.9c0,1.2-1,2.2-2.2,2.2c-0.9,0-1.7-0.7-1.7-1.6
			c0-0.1,0-0.2,0-0.3c0.2-2.3,0.1-3.7-0.5-4.6c-0.1-0.2,0-0.3,0.2-0.3C70.2,24.2,71.3,26.3,71.3,27.9z M73,9.6
			c-0.7,1.8-1.5,3.6-2.4,5.3h3.5c0.7-2.2,1.3-3.9,1.6-5.3L73,9.6z M74.1,28.9c-0.8,0.1-1.6-0.5-1.7-1.4c0-0.1,0-0.2,0-0.3
			c0-1.6,0-3.1-1.1-4.1c-0.1-0.1-0.1-0.3,0.1-0.3c3.2,0.5,4.7,2.1,4.7,4.1C76.2,28,75.2,28.9,74.1,28.9z M75.9,22.6
			c-0.2-0.1-0.1-0.3,0.1-0.3c3,0.3,4.9,1.4,4.9,3.6c0,1-0.9,1.9-1.9,1.9c-0.9,0.1-1.7-0.5-1.8-1.4c0,0,0-0.1,0-0.1
			C77.1,24.7,77,23.3,75.9,22.6L75.9,22.6z"/>
		<path class="st0" d="M60.3,56.5c-1.7,2-3.7,3.7-5.9,5.2c-0.2,0.1-0.4-0.1-0.3-0.3c2.6-2.9,5.6-8.8,7.9-15.6
			c0.3-0.8,0.5-1.7,0.7-2.6c5.2,2.1,5.7,2.4,5.7,3s-0.3,0.8-1.6,1.1c-1,2-2.3,4-3.6,5.8c2.3,0.8,2.7,1.1,2.7,1.5
			c0,0.3-0.2,0.6-1.1,0.9v8.1c0,8.7,0.1,10.9,0.1,11.8c0,1-1.1,1.5-3.2,1.5c-1.4,0-1.6-0.3-1.6-1.2s0.1-3.4,0.2-8.4L60.3,56.5z
			 M81.8,56.9c2.6-3.4,2.7-3.5,3.1-3.5c0.4,0,0.5,0.1,2.6,2.1c1.3,1.3,1.4,1.5,1.4,1.7s-0.2,0.4-0.5,0.4H79c0,10.8,0.2,17,0.2,17.9
			c0,1-0.9,1.5-3.2,1.5c-1.6,0-1.9-0.1-1.9-1.3c0-1,0.3-6.9,0.3-18.1h-4.2c-0.8,0-2.4,0.1-4.1,0.3l-0.4-1.2c1.8,0.2,3.4,0.3,4.4,0.3
			h4.2c0-10.6,0-11.7-0.2-13.7c5.8,0.5,6.2,0.9,6.2,1.4c0,0.4-0.4,0.6-1.3,1.2v11.1H81.8z"/>
		<path class="st0" d="M69.2,96.3c0,4.6,0.1,7.5,0.1,8c0,0.9-0.7,1.3-2.2,1.3c-1,0-1.2-0.2-1.2-1.1c0-0.3,0.1-2.4,0.1-5.7
			c-0.2,0.2-0.4,0.3-0.7,0.4c-0.5,3.5-1.9,5.6-4.6,7c-0.2,2.5-0.8,5-1.7,7.4c-1,2.6-2.5,4.9-4.6,6.7c-0.1,0.1-0.2,0-0.3,0
			c-0.1-0.1-0.1-0.2,0-0.2c1.2-1.7,1.9-3.7,2.2-5.8c0.5-3.1,0.7-6.6,0.7-13.7c0-5.7-0.1-8.1-0.4-10.9c4,1,5,1.3,5.2,1.7h7.7v-0.9
			c0-1.3,0-2.6-0.2-3.9c5.7,0.4,6.4,0.8,6.4,1.3c0,0.4-0.2,0.6-1.5,1.2v2.3h7c2.6-3,2.7-3.1,3.1-3.1s0.5,0.1,2.4,1.9
			c1.2,1.2,1.3,1.3,1.3,1.6c0,0.2-0.1,0.4-0.4,0.4h-26c-0.2,0.2-0.4,0.3-0.7,0.4v7.3c0,2.4-0.1,4.3-0.2,6c1.2-1.4,1.7-3.9,1.7-6.9
			c0-0.5,0-0.9-0.1-1.4c1.3,0.1,2.5,0.3,3.7,0.7v-1.7h-0.5c-1.2,0-2.4,0.1-3.6,0.3l-0.3-1.2c1.3,0.2,2.6,0.2,4,0.3H66
			c0-1,0-2-0.1-3.1c3.6,0.3,4.1,0.5,4.1,0.9c0,0.3-0.2,0.5-0.8,0.8v1.4h0.9c1.5-2,1.7-2.2,1.9-2.2s0.4,0,1.5,1.1
			c0.6,0.6,1,0.9,1.1,1.1h2.8c0-1,0-2-0.1-3.1c3.7,0.3,4.2,0.5,4.2,0.9c0,0.3-0.2,0.5-0.8,0.8v1.4h2.1c1.7-2.1,1.8-2.3,2.1-2.3
			c0.3,0,0.5,0.1,1.8,1.3c1.1,1,1.2,1.2,1.2,1.4c0,0.2-0.1,0.3-0.5,0.3h-6.7c0,4.7,0.1,7.6,0.1,8c0,0.9-0.7,1.3-2.3,1.3
			c-1,0-1.2-0.2-1.2-1.1c0-0.3,0.1-2.4,0.1-5.6C77.3,99,77.1,99,77,99.1c-0.3,2.6-1.8,4.9-4.1,6.2c2.2,0.6,2.4,0.8,2.4,1.2
			c0,0.5-0.4,0.7-1.8,0.9c-1.2,0.8-2.2,1.5-3.3,2.3c0.8,0.5,1.3,1.4,1.3,2.4c0,1.4-1.1,2.5-2.5,2.4c-0.8,0.1-1.6-0.4-1.9-1.3
			c-0.4-1.9-1.8-3.5-3.6-4.2c-0.2-0.1-0.1-0.3,0.1-0.4c1.6-0.3,3.3-0.2,4.9,0.2c0.4-1,0.7-1.9,1-3.1c0.1-0.4,0.2-0.8,0.3-1.3
			c1,0.3,1.8,0.4,2.4,0.6c1.1-1.2,1.9-3.5,1.9-6.4c0-0.5,0-0.9-0.1-1.4c1.1,0.1,2.3,0.3,3.4,0.6v-1.6H69.2z M87.1,117.4
			c0,1.5-1.1,2.7-2.6,2.7c0,0-0.1,0-0.1,0c-1.1,0-2-0.8-2.1-1.8c-0.1-0.7-0.3-1.3-0.6-1.9c-6,1.1-10,1.8-18.5,3.1
			c-0.4,0.7-0.5,0.8-0.8,0.8c-0.5,0-0.7-0.3-2.2-5.4c1.2,0.1,1.6,0.1,2.9,0.1c3.1,0.1,5.8,0.1,8.5,0.1c1.5-2.1,2.9-4.4,4.1-6.7
			c0.3-0.6,0.6-1.3,0.9-1.9c5.2,1.9,5.5,2.1,5.5,2.6c0,0.5-0.5,0.6-1.9,0.8c-2.5,1.9-4.4,3.4-7.1,5.3c2.6,0,5.2,0,8-0.1
			c-0.6-1.1-1.5-1.9-2.6-2.5c-0.1-0.1-0.1-0.2-0.1-0.3c0-0.1,0.1-0.1,0.2-0.1C84.8,112.3,87.1,115,87.1,117.4L87.1,117.4z
			 M72.9,102.6c0,0.8-0.6,1-1.9,1c-0.7,0-1-0.3-1-0.9c0-0.5,0.1-1.5,0.1-3c0-1,0-1.7,0-2.4c3.1,0.4,3.5,0.5,3.5,0.9
			c0,0.3-0.1,0.4-0.7,0.6L72.9,102.6z M84.4,101.2c0,0.5,0.1,0.6,0.8,0.6s1-0.1,1.3-0.6c0.5-0.9,0.9-1.8,1.2-2.8
			c0.1-0.2,0.3-0.1,0.3,0.1c-0.1,1.2-0.1,2-0.1,2.4c0,0.4,0.1,0.7,0.4,0.9c0.4,0.3,0.6,0.8,0.5,1.3c0,0.8-0.8,1.5-3.9,1.5
			c-2.8,0-3.3-0.5-3.3-1.3c0-0.6,0.1-1.7,0.1-3.2c0-1,0-1.8-0.1-2.6c3,0.3,3.7,0.4,3.7,0.8c0,0.3-0.1,0.4-0.9,0.8L84.4,101.2z"/>
		<path class="st0" d="M68.3,164.5v-36h1.2v36H68.3z"/>
		<path class="st0" d="M68.3,200.5v-36h1.2v36H68.3z"/>
		<path class="st0" d="M18.9,38.2c2.5,1.5,3,1.8,3,2.2c0,0.5-0.2,0.6-1.7,0.7c-2.6,1.5-5.5,2.3-8.5,2.6c0.4,0.3,0.9,0.6,1.4,0.8
			c1.2,0.4,3.5,0.5,7.1,0.5c5,0,10-0.3,15-0.9c0.2,0,0.3,0.3,0.1,0.4c-1.1,0.8-1.9,2-2.1,3.3c-0.1,0.8-0.4,1.2-1.1,1.3
			c-0.9,0.1-2.6,0.2-7.9,0.2c-8.2,0-10-0.5-11.8-2c-1.3-1.1-2.2-2.6-2.6-4.2c-1.5,1.8-3.2,3.5-5,5.1c-0.4,1-0.6,1.3-1,1.3
			c-0.4,0-1-0.6-3-4.9c0.7-0.2,1.5-0.4,2.2-0.6C3.9,43.5,5,43,6,42.5V32.4H4.4c-1.1,0-2.1,0.1-3.2,0.3l-0.3-1.2
			c1.2,0.2,2.3,0.3,3.5,0.3h1.2c1.8-2.1,1.9-2.3,2.3-2.3c0.4,0,0.5,0.1,1.8,1.2c1.6,1.4,1.8,1.6,1.8,2.1c0,0.3-0.2,0.5-1.2,1.3v8.5
			c0.3,0.5,0.7,0.9,1.2,1.3c2.3-1.1,4.3-2.7,5.8-4.7c0.1-0.2,0.2-0.4,0.4-0.6h-1.9c-1.1,0-1.9,0.1-4,0.3l-0.3-1.2
			c1.4,0.2,2.9,0.2,4.4,0.3h0.6V34h-0.2c-1.2,0-2.4,0.1-3.6,0.3L12.2,33c1.3,0.2,2.6,0.2,4,0.3h0.2c0-1.5,0-2.3-0.1-3.9
			c4.2,0.3,4.7,0.5,4.7,1c0,0.3-0.1,0.5-0.9,1v1.8h3.3c0-1.5,0-2.3-0.1-3.9c4.2,0.3,4.7,0.5,4.7,1c0,0.3-0.1,0.5-0.8,1v1.8h0.9
			c1.9-2.4,2-2.4,2.2-2.4c0.3,0,0.4,0,1.6,1.3c1,1,1.2,1.2,1.2,1.5c0,0.2-0.1,0.4-0.3,0.4c0,0,0,0-0.1,0H27v3.5h1.7
			c2-2.5,2.1-2.6,2.3-2.6c0.3,0,0.5,0.1,1.9,1.4c1.2,1.1,1.2,1.2,1.2,1.5c0,0.2-0.1,0.4-0.4,0.4L18.9,38.2z M3.6,17.5
			c4.5,0.5,6.7,2.6,6.7,4.9c0.1,1.4-0.9,2.6-2.2,2.7c-0.2,0-0.3,0-0.5,0c-1.4,0-2-0.9-2.1-2.7c0-1.8-0.8-3.4-2.1-4.6
			C3.2,17.7,3.4,17.5,3.6,17.5z M15.4,19.3c-1.3,0-2.6,0.1-3.9,0.3l-0.4-1.2c1.4,0.2,2.8,0.3,4.2,0.3h1.5c1.2-1.4,1.3-1.5,1.6-1.5
			c0.3,0,0.5,0,1.7,1c0.9,0.8,1,0.9,1,1.3c0,0.3-0.1,0.4-0.8,1v0.7c0,0.5,0.1,1.5,0.1,2.1c0,0.7-0.5,1.2-2.1,1.2c-1,0-1.4-0.4-1.4-1
			v-0.8h-1.6c-0.2,0.1-0.3,0.2-0.5,0.3v2.3c0,0.8,0.2,1.1,1.9,1.1c1.9,0,2.4-0.3,3.3-1.4c0.6-0.7,1-1.5,1.4-2.3
			c0.1-0.1,0.3-0.1,0.3,0.1c-0.2,0.7-0.3,1.5-0.4,2.2c0,0.3,0,0.6,0.2,0.9c0.3,0.4,0.4,0.8,0.5,1.3c0,1.2-0.9,2.1-5.2,2.1
			c-4.3,0-4.9-0.6-4.9-2.3c0-0.8,0-1.7,0-2.7c0-0.7,0-1.9-0.1-3.6c2.6,0.7,3.3,1,3.6,1.3H17v-2.6H15.4z M20,37.5h3.3V34H20V37.5z
			 M26.7,19.3c-1.3,0-2.6,0.1-3.9,0.3l-0.4-1.2c1.4,0.2,2.8,0.3,4.2,0.3h1.3c1.3-1.5,1.4-1.5,1.7-1.5c0.4,0,0.5,0,1.7,1.1
			c1,0.9,1.1,1,1.1,1.3c0,0.3-0.1,0.4-0.8,1v0.7c0,0.5,0.1,1.5,0.1,2.1c0,0.7-0.8,1.2-2.3,1.2c-1,0-1.4-0.4-1.4-1v-0.8h-1.6
			c-0.2,0.1-0.3,0.2-0.5,0.3v2.2c0,0.8,0.2,1.1,1.8,1.1c2.3,0,3-0.3,3.9-1.4c0.5-0.7,1-1.4,1.4-2.1c0.1-0.2,0.3-0.1,0.3,0.1
			c-0.2,0.7-0.3,1.5-0.4,2.2c0,0.3,0,0.7,0.2,1c0.3,0.4,0.4,0.8,0.5,1.3c0,1.2-0.9,1.9-5.8,1.9c-4.3,0-4.9-0.6-4.9-2.3
			c0-0.8,0-1.7,0-2.7c0-0.7,0-1.9-0.1-3.6c2.7,0.7,3.5,1,3.7,1.3h1.5v-2.6H26.7z M31.7,42.4c0,1-0.7,1.8-1.7,1.8c0,0-0.1,0-0.1,0
			c-0.8,0-1.3-0.3-2.1-1.3c-1.2-1.6-2.8-2.9-4.6-3.6c-0.2-0.1-0.1-0.4,0.1-0.4C30,38.8,31.7,40.9,31.7,42.4z"/>
		<path class="st0" d="M9.4,75.2c1.4-0.4,2.7-0.8,4.2-1.2c0.1,0,0.2,0,0.3,0.1s0,0.2-0.1,0.3c-1.5,1.2-3.1,2.3-4.4,3.3
			c0,8.6,0.2,10.3,0.2,11.4c0.1,1.4-0.6,2.7-1.8,3.5c-0.7,0.5-1.6,0.7-2.4,0.8c-0.6,0-0.8-0.2-1-0.9c-0.3-1.2-1-2.3-3.2-3
			c-0.2-0.1-0.2-0.4,0-0.4c1.4-0.1,2.2-0.1,3.2-0.3c0.8-0.1,1.2-0.6,1.2-1.8v-6.8l-1.6,1.1c-0.3,0.8-0.5,1-0.8,1
			c-0.4,0-0.6-0.1-2.3-5.1c1-0.1,1.9-0.3,3.2-0.6l1.5-0.4v-7.3H4.9c-1.2,0-2.4,0.1-3.5,0.3L1,67.9c1.3,0.2,2.6,0.3,3.9,0.3h0.5
			c0.1-2.7,0-5.4-0.3-8c4.5,0.4,5.5,0.7,5.5,1.3c0,0.4-0.3,0.7-1.3,1.2V68c1.5-2.7,1.6-2.7,1.9-2.7c0.3,0,0.4,0,1.4,1.5
			c0.4,0.6,0.6,0.9,0.7,1.1c0.1-0.9,0.1-2.3,0.1-3.9c0-1.3,0-2.4-0.1-3.6c2.7,0.5,3.7,0.9,4,1.2h10.9c1.4-1.6,1.5-1.7,1.8-1.7
			c0.3,0,0.5,0,1.8,1.1c1.2,0.9,1.3,1.1,1.3,1.4c0,0.3-0.1,0.4-1,1.1v0.7c0,1.2,0.2,2.8,0.2,3.7c0,1.2-1,1.6-2.4,1.6
			c-1.1,0-1.4-0.3-1.4-1.1H16.9v0.4c0,1-0.8,1.3-2.3,1.3c-1,0-1.2-0.1-1.2-1.2v-0.2c-0.1,0-0.1,0.1-0.2,0.1H9.4V75.2z M29.2,76.4
			c2.1-2.5,2.2-2.6,2.4-2.6c0.4,0,0.5,0,1.8,1.3s1.3,1.4,1.3,1.6s-0.1,0.3-0.4,0.3h-8.5c3.2,1,3.4,1.3,3.4,1.7s-0.2,0.5-1.2,0.7
			c-1.4,1.3-2.2,1.9-3,2.7h3.6c2.1-2.6,2.2-2.6,2.5-2.6s0.4,0,1.8,1.4c1.3,1.3,1.3,1.4,1.3,1.6s-0.1,0.3-0.4,0.3h-8.9
			c0,0.4-0.1,0.5-0.6,0.8v3.2h3c2.1-2.7,2.2-2.7,2.5-2.7s0.4,0,1.8,1.5c1.2,1.3,1.3,1.4,1.3,1.6s-0.1,0.3-0.4,0.3h-8.2
			c0,2.2,0.1,4,0.1,4.4c0,1-0.8,1.6-3,1.6c-1.3,0-1.4-0.3-1.4-1.2c0-0.5,0.1-2.4,0.1-4.7h-3.5c-1.2,0-2.4,0.1-3.6,0.3l-0.3-1.2
			c1.3,0.2,2.6,0.2,4,0.3h3.5c0-1.8,0-3.1,0-4H16c-1.2,0-2.4,0.1-3.6,0.3L12,81.8c1.3,0.2,2.6,0.2,4,0.3h2.7c-0.8-0.2-1.2-0.9-1.2-2
			c0-1.5,0-2.6-0.8-3h-0.8c-1.2,0-2.4,0.1-3.6,0.3l-0.3-1.2c1.3,0.2,2.6,0.2,4,0.3h4.5V73h-2.6c-1.2,0-2.5,0.1-3.7,0.3L13.6,72
			c1.3,0.2,2.7,0.3,4,0.3h2.6c0-1.1,0-2.3-0.2-3.4c5,0.4,5.6,0.6,5.6,1.2c0,0.4-0.2,0.6-1.2,1v1.2h2.4c2-2.4,2.1-2.4,2.4-2.4
			s0.4,0.1,1.8,1.4c1,1,1.2,1.2,1.2,1.4S32.1,73,31.9,73h-7.4v3.4L29.2,76.4z M17.6,62.3c-0.2,0.2-0.4,0.3-0.6,0.4v5h1.8V64
			c0-0.5,0-1.1,0-1.7L17.6,62.3z M23.7,82.1c0.3-1.3,0.6-2.4,0.8-3.6c0.1-0.5,0.1-0.9,0.2-1.4h-7.1c2.8,0.5,3.6,1.8,3.6,3.1
			c0,0.9-0.6,1.7-1.4,2L23.7,82.1z M23.7,64c0-0.5,0-1.1,0-1.7h-1.2c0,0.3-0.1,0.4-0.5,0.6v4.8h1.8L23.7,64z M27.4,62.3
			c0,0.3-0.1,0.4-0.5,0.6v4.8h1.9v-5.4L27.4,62.3z"/>
		<path class="st0" d="M23.5,106.1c2.3-2.3,2.4-2.4,2.8-2.4c0.4,0,0.6,0,3.5,2.5c1.5,1.3,1.7,1.6,1.7,1.9c0,0.6-0.3,0.7-2.5,1.2
			c-2.6,1.3-5.1,2.7-8,4.2c0.9,0.2,1,0.4,1,0.7c0,0.4-0.1,0.6-1.6,1.3v4.1c0,5.3,0.3,10.6,0.3,11.9c0.1,1.6-0.7,3.2-2.2,4
			c-1.2,0.6-2.6,0.9-4,0.9c-0.6,0.1-1.1-0.4-1.2-0.9c-0.5-1.7-1.2-2.8-4-3.6c-0.2-0.1-0.2-0.4,0-0.4c1.6,0.1,3.1,0.1,4.7-0.1
			c1.2-0.1,1.6-0.7,1.6-1.7v-9.6c0.1-2.4,0-4.9-0.3-7.3c1.8,0.2,3.2,0.4,4.2,0.5c1.4-2,2.8-4.2,4.2-6.4H9c-1.3,0-2.6,0.1-4.6,0.3
			l-0.4-1.2c2.4,0.2,3.7,0.3,5,0.3L23.5,106.1z"/>
		<path class="st0" d="M4.2,160c-1.1,1.6-2.4,3.1-3.8,4.4c-0.2,0.1-0.4-0.1-0.3-0.3c1.8-2.8,3.9-8.5,5.4-15.5
			c0.2-0.8,0.4-1.7,0.5-2.6c5.2,1.8,5.5,2.3,5.5,2.7c0,0.4-0.3,0.8-1.7,1.2C9,152,8,154,6.8,156c1.9,0.8,2.3,1.1,2.3,1.5
			c0,0.3-0.2,0.6-1.1,0.9v8.1c0,8.6,0.1,10.9,0.1,11.8c0,1-0.9,1.5-2.7,1.5c-1.4,0-1.6-0.3-1.6-1.2s0.1-3.4,0.2-8.7L4.2,160z
			 M13.8,172.6v2.5c0,0.9-0.7,1.4-2.4,1.4c-1.3,0-1.5-0.2-1.5-1.3c0-0.6,0.3-3.9,0.3-8.4c0-2.8,0-3.5-0.1-5.4c1.1,0.2,2.3,0.6,3.3,1
			v-7.1h-0.5c-0.6,0-1.8,0.1-3.5,0.3l-0.4-1.2c1.3,0.2,2.6,0.3,3.9,0.3h0.5v-2c0-2.1,0-4.2-0.2-6.3c4.9,0.6,5.4,0.9,5.4,1.4
			c0,0.4-0.2,0.6-1.3,1.2v5.7h0.2c1.5-2.3,1.5-2.4,1.8-2.4c0.3,0,0.4,0,1.6,1.5c0.8,0.9,0.8,1.1,0.8,1.3c0,0.2-0.1,0.3-0.4,0.3h-4
			v7.2c1.3-1.5,1.4-1.6,1.7-1.6c0.3,0,0.4,0,1.9,1.4c0.9,0.8,1,1,1,1.3c0,0.3-0.1,0.4-1,1v2.4c0,3.2,0.1,5.4,0.1,6.1
			c0,1-1,1.4-2.8,1.4c-0.9,0-1.2-0.3-1.2-1.2v-0.9L13.8,172.6z M17.2,171.9v-8.4h-2.9c-0.1,0.2-0.3,0.3-0.4,0.5v7.9L17.2,171.9z
			 M28.8,155.2c3,0.8,3.7,1.3,3.7,1.8c0,0.3-0.2,0.5-1.3,0.9c-0.3,4.2-1.3,8.3-3,12.2c2,2.2,4.3,4.1,6.9,5.5
			c0.2,0.1,0.1,0.3-0.1,0.4c-1.3,0.5-2.3,1.6-2.8,2.9c-0.2,0.4-0.4,0.7-0.7,0.7c-0.4,0-0.8-0.2-1.1-0.5c-1.8-1.5-3.3-3.2-4.6-5.2
			c-2.7,3.2-6.4,5.5-10.5,6.5c-0.2,0-0.4-0.3-0.2-0.4c3.6-1.5,6.9-4.8,9.1-9.3c-1-4.1-1.4-8.4-1.2-12.6c-0.8,1.2-1.7,2.4-2.7,3.4
			c-0.1,0.1-0.4-0.1-0.3-0.3c1.2-2.2,2.3-6.4,2.9-12.8c0.1-0.9,0.1-1.4,0.1-2.4c4.8,1.3,5.3,1.5,5.3,2c0,0.4-0.1,0.7-1.2,1
			c-0.6,1.9-1.3,3.7-2.2,5.5h4.6c1.9-2.7,2.1-2.8,2.3-2.8c0.3,0,0.4,0,1.8,1.4c1.1,1.1,1.3,1.3,1.3,1.7c0,0.2-0.1,0.4-0.4,0.4
			c0,0,0,0,0,0L28.8,155.2z M24.8,155.2c-0.3,0.5-0.6,1-0.9,1.5c0.1,3.3,0.7,6.6,1.9,9.7c0.9-3.7,1.3-7.5,1.4-11.3L24.8,155.2z"/>
		<path class="st0" d="M30.9,200.2c1.5-2.8,1.7-3,1.9-3s0.4,0.1,1.3,1.4c1.1,1.5,1.2,1.6,1.2,1.9s-0.2,0.5-0.6,0.5h-3.8v3.2
			c0,11.7,0.2,15,0.2,16.8c0,1-0.7,1.7-2.8,1.7c-1.4,0-1.7-0.2-1.7-1.4v-2.1h-4v2c0,1.2-1.1,1.7-2.8,1.7c-1.4,0-1.7-0.4-1.7-1.3
			c0-1,0.3-5.5,0.3-17.1v-3.5h-1.7c0.5,0.6,0.6,0.8,0.6,1c0,0.3-0.2,0.4-0.7,0.4h-5.7v7.2h0.2c1.7-2.1,1.8-2.2,2.1-2.2
			c0.4,0,0.6,0.1,2.2,1.5c1.1,1,1.3,1.3,1.3,1.6s-0.1,0.4-1.1,1.3v1.9c0,2.7,0.2,5,0.2,6c0,1.1-1.3,1.8-2.6,1.8
			c-1.3,0-1.7-0.3-1.7-1.5v-0.8H6.3v1.7c0,1.1-0.9,1.7-2.6,1.7c-1.3,0-1.5-0.2-1.5-1.4c0-0.6,0.2-4,0.2-7.6c0-2.3,0-3.7-0.1-5.5
			c2.8,0.7,4,1.2,4.4,1.5h0.2v-7.2H4.8c-1.2,0-2.4,0.1-3.6,0.3l-0.3-1.2c1.3,0.2,2.6,0.2,4,0.3h2.1v-2.5c0-1.6,0-2.6,0-3.5
			c-2.1,0.2-4.1,0.3-6.2,0.3c-0.2,0-0.3-0.4-0.1-0.4c3.9-1,7.7-2.4,11.2-4.4c0.4-0.2,0.8-0.5,1.1-0.8c3.9,2.8,4.3,3.3,4.3,4
			c0,0.6-0.5,0.6-2.3,0.5c-1,0.1-2.1,0.3-3.1,0.4c0,0.1,0,0.1,0,0.2c0,0.4-0.2,0.5-0.8,0.8v5.5h1.2c1.9-2.8,2.1-2.9,2.3-2.9
			c0.3,0,0.4,0.1,1.7,1.4h2.3c0.1-3.4,0-6.9-0.3-10.3c4.5,0.6,5.6,1,5.6,1.5c0,0.5-0.3,0.8-1.2,1.3v7.5h4c0.1-3.4,0-6.9-0.3-10.3
			c4.4,0.5,5.9,1,5.9,1.4s-0.3,0.8-1.3,1.2L30.9,200.2z M11.7,218.4v-8.1H6.8c-0.1,0.1-0.3,0.3-0.5,0.4v7.7L11.7,218.4z M22.6,200.9
			v7.5h4v-7.5H22.6z M26.6,218.4v-9.3h-4v9.3H26.6z"/>
		<path class="st0" d="M4.1,258.2c0.9,1.4,1.3,3.1,1.3,4.7c0.1,1.5-1,2.9-2.6,3c-1,0.1-1.8-0.5-2-1.5c0-0.1,0-0.2,0-0.3
			c0-0.5,0.3-1,1.2-1.9c1.1-1,1.7-2.5,1.7-4.1C3.7,258,4,258,4.1,258.2z M13.4,234.5c1.2-1.7,1.3-1.7,1.6-1.7c0.2,0,0.4,0,1.8,1.2
			c1.1,0.9,1.3,1.1,1.3,1.4c0,0.3-0.1,0.4-1,1.1v3.1c0,2.7,0.2,5.4,0.2,6.3c0,1.2-0.6,1.6-2.5,1.6c-0.8,0-0.9-0.3-0.9-1.2v-0.4h-2.7
			v4.2h1.2c1.8-2.2,2-2.4,2.3-2.4c0.3,0,0.4,0,1.8,1.3c1,0.9,1.1,1.2,1.1,1.4s-0.1,0.4-0.4,0.4h-6v2.7c2.1-0.2,4.1-0.5,6.3-0.8
			c0.1,0,0.2,0,0.2,0.1c0,0.1,0,0.2-0.1,0.2c-4.5,2-9.2,3.7-14,5c-0.2,0.8-0.5,1-0.8,1c-0.5,0-0.9-0.6-1.9-5c0.8,0,1.6,0,2.3,0
			c1.7-0.1,3.1-0.2,4.5-0.3v-3H6.1c-1.2,0-2.5,0.1-3.7,0.3L2,249.8c1.3,0.2,2.7,0.3,4,0.3h1.6v-4.2H5.1v0.9c0,1-0.6,1.3-1.9,1.3
			c-1.2,0-1.3-0.1-1.3-1c0-0.7,0.2-4,0.2-8.9c0-3,0-4.1-0.1-5.3c2.5,0.8,3.4,1.2,3.7,1.5L13.4,234.5z M5.1,237.5
			c1.5,0.4,2.6,1.6,2.9,3.1v-3.9c0-0.5,0-1,0-1.6H5.7c-0.2,0.2-0.4,0.3-0.6,0.4L5.1,237.5z M5.1,245.2H8v-3.1
			c-0.1,0.7-0.7,1.3-1.4,1.3c-0.6,0-1-0.5-1-1.2c0-0.5,0.1-1,0.2-1.8c0.1-0.8-0.1-1.6-0.6-2.3L5.1,245.2z M9.7,262.5
			c0,1.7-0.8,2.5-2.2,2.5c-0.8-0.1-1.3-0.7-1.3-1.5c0-0.5,0.1-0.9,0.1-1.7c0.3-1.3,0-2.7-0.7-3.9c-0.1-0.2,0.1-0.3,0.3-0.2
			C8.1,258.4,9.6,260.3,9.7,262.5L9.7,262.5z M13.8,262.1c0.1,1-0.6,2-1.6,2.1c-0.1,0-0.1,0-0.2,0c-1,0-1.5-0.8-1.5-1.8
			c0-1.9-0.8-3.8-2.3-5c-0.2-0.1,0.1-0.3,0.3-0.2C12.4,258,13.8,260,13.8,262.1L13.8,262.1z M13.8,235.2h-2.5c0,0.2-0.2,0.3-0.5,0.6
			v6.5c0.3-1.2,0.5-2.7,0.7-3.6c0.1-0.6,0.1-1,0.2-1.7c0.7,0.3,1.5,0.7,2.1,1.2L13.8,235.2z M13.8,245.2v-5.9
			c-0.1,0.1-0.3,0.2-0.4,0.3c-0.7,1.1-1.5,2.2-2.6,3.9v1.8L13.8,245.2z M17.7,261c0,1.1-0.5,2.2-1.9,2.2c-0.7,0-1.4-0.5-1.5-1.9
			c-0.1-2-1.4-3.7-3.2-4.5c-0.2-0.1-0.1-0.3,0.1-0.3C16.1,256.6,17.7,258.9,17.7,261L17.7,261z M29.1,241.8c2.1-2.8,2.3-3,2.7-3
			c0.4,0,0.7,0.3,2.1,1.7c1.2,1.2,1.3,1.4,1.3,1.7c0,0.3-0.2,0.4-0.5,0.4h-7.6v8.4h1.3c1.6-2.1,1.8-2.2,2.1-2.2
			c0.4,0,0.8,0.2,2.1,1.4c1.4,1.2,1.6,1.4,1.6,1.8s-0.2,0.5-1.1,1.3v3.6c0,2.7,0.2,5.9,0.2,7.3c0,1.1-1.3,1.7-2.9,1.7
			c-1.3,0-1.4-0.2-1.4-1.4v-1.2h-7v1.3c0,1.1-0.6,1.7-2.7,1.7c-1.3,0-1.4-0.2-1.4-1.4c0-0.6,0.2-4.4,0.2-9.9c0-1.9,0-3.7-0.1-5.6
			c3.1,0.9,4.1,1.3,4.5,1.6h0.5v-11.3c0.1-2.3,0-4.7-0.3-7c5.1,0.4,5.6,0.8,5.6,1.4c0,0.4-0.3,0.6-1.3,1.1v6.7L29.1,241.8z
			 M29.1,262.5v-10.8h-6.5c-0.1,0.2-0.3,0.3-0.4,0.4v10.4L29.1,262.5z"/>
		<path class="st0" d="M20.9,283.1c0-4.2-1.9-5.9-4.4-5.9c-2.1,0-3.7,1.4-3.7,2.7c0,0.4,0.2,0.8,0.5,1c0.7,0.5,1.2,1.3,1.2,2.1
			c0.1,1.4-1,2.6-2.4,2.7c-0.1,0-0.2,0-0.3,0c-1.5,0-2.7-1.1-2.7-2.5c0-0.1,0-0.1,0-0.2c0-3.5,4.1-6.7,8.8-6.7
			c5.3,0,8.5,2.8,8.5,6.8c0,3.1-1.1,5-5.6,8.5c-2.7,2.2-3.3,3-3.3,5c0,0.4,0.1,0.8,0.2,1.2c-0.1,0.4-0.4,0.7-0.8,0.7
			c-0.3,0-0.4-0.2-0.4-0.4c0-4,0.3-5.1,1.9-7.5C20.4,287.6,20.9,286,20.9,283.1z M19.9,304.2c0,1.6-1.3,2.9-2.9,3s-2.9-1.3-3-2.9
			s1.3-2.9,2.9-3c0,0,0,0,0,0C18.6,301.3,19.9,302.6,19.9,304.2z"/>
	</g>
</g>
</svg>
