<?xml version="1.0" encoding="utf-8"?>
<!-- Generator: Adobe Illustrator 23.0.0, SVG Export Plug-In . SVG Version: 6.00 Build 0)  -->
<svg version="1.1" id="圖層_1" xmlns="http://www.w3.org/2000/svg" xmlns:xlink="http://www.w3.org/1999/xlink" x="0px" y="0px"
	 viewBox="0 0 40 40" style="enable-background:new 0 0 40 40;" xml:space="preserve">
<style type="text/css">
	.st0{fill:#EA5514;}
</style>
<g transform="translate(-937 -42)">
	<path class="st0" d="M957,80c-9.9,0-18-8-18-18c0-7.2,4.3-13.8,11-16.6c9.2-3.9,19.7,0.4,23.6,9.6s-0.4,19.7-9.6,23.6
		C961.8,79.5,959.4,80,957,80z M947.2,71.9c0.6,0,1.2,0.2,1.8,0.4c1.2,0.5,2.6,0.8,3.9,0.8c2.4,0.1,4.7-0.6,6.5-2
		c2.5-1.8,3.1-5.4,1.3-8c-0.4-0.5-0.8-0.9-1.3-1.3l-2.6-2.3c-1.1-1-2.2-2.2-2.2-4c0-2.1,1.8-3.6,4.5-3.6c1.1,0,2.1,0.3,3,0.9
		c1,0.7,1.6,1.8,1.5,2.9c0,0.6-0.1,1.1-0.2,1.6l0,0.1h0.4l2-5.6l-0.4-0.1c-0.1,0.5-0.6,0.8-1.1,0.8c-0.6,0-1.2-0.2-1.7-0.4
		c-1.1-0.4-2.2-0.6-3.4-0.7c-1.9,0-3.8,0.5-5.4,1.6c-1.3,0.9-2.2,2.4-2.2,4c0,2.2,1.2,3.8,2.9,5.3l2.1,1.9c1.1,0.9,1.8,2.2,1.8,3.6
		c0,1.3-0.5,2.5-1.4,3.4c-1.1,0.9-2.6,1.4-4,1.3c-1.2,0-2.3-0.4-3.3-1c-1-0.7-1.7-1.8-1.7-3c0-0.6,0.2-1.2,0.4-1.7l0,0h-0.4
		l-2.1,5.8l0.4,0.1C946.2,72.3,946.6,71.9,947.2,71.9z M965.6,61.8L965.6,61.8c-0.2,0.4-0.4,0.8-0.7,1.2l-0.1,0.1
		c0,0.1-0.1,0.1-0.1,0.2c-0.3,0.3-0.5,0.7-0.5,1.1c0,0.4,0.4,0.8,0.8,0.8c0,0,0,0,0.1,0c0.5,0,0.9-0.4,0.9-0.9c0,0,0,0,0-0.1
		c0-0.2,0-0.5-0.1-0.7l0-0.2C965.6,62.9,965.6,62.4,965.6,61.8L965.6,61.8c0.4,0.5,0.7,1,0.9,1.6c0.2,0.7,0.4,1.2,1.1,1.2
		c0.5,0,0.9-0.4,0.9-0.9c0-0.4-0.3-0.7-0.8-0.9c-0.7-0.2-1.3-0.6-2-1c0.2,0,0.4,0,0.6,0c0.4,0,0.8,0,1.2,0.1l0.2,0
		c0.2,0,0.4,0,0.5,0.1c0.5,0,0.9-0.3,0.9-0.8c0,0,0-0.1,0-0.1c0-0.5-0.4-0.9-0.9-0.9c-0.5,0.1-0.9,0.3-1.2,0.7
		c-0.4,0.4-0.8,0.7-1.3,0.9c0.2-0.5,0.5-0.9,0.8-1.3c0-0.1,0.1-0.1,0.1-0.2c0.3-0.3,0.5-0.7,0.5-1.1c0-0.4-0.4-0.8-0.8-0.8
		c0,0,0,0-0.1,0c-0.5,0-0.9,0.4-0.9,0.9c0,0,0,0,0,0.1c0,0.2,0,0.5,0.1,0.7l0,0.2c0.1,0.5,0.1,1,0.1,1.6c-0.3-0.5-0.6-1-0.8-1.5
		c-0.3-0.7-0.4-1.2-1.1-1.2c-0.5,0-0.9,0.4-0.9,0.9c0,0.4,0.3,0.7,0.8,0.9C964.3,61,964.9,61.3,965.6,61.8c-0.2,0-0.4,0-0.6,0
		c-0.4,0-0.8,0-1.2-0.1l-0.2,0c-0.2,0-0.4,0-0.5-0.1c-0.5,0-0.9,0.3-0.9,0.8c0,0,0,0.1,0,0.1c0,0.5,0.4,0.9,0.9,0.9
		c0.5-0.1,0.9-0.3,1.2-0.7C964.6,62.3,965.1,62,965.6,61.8L965.6,61.8z"/>
	<path class="st0" d="M957,82c-11,0-20-9-20-20c0-8,4.8-15.3,12.2-18.4c10.2-4.3,21.9,0.5,26.2,10.6c4.3,10.2-0.5,21.9-10.6,26.2
		C962.3,81.5,959.7,82,957,82z M957,42.5c-10.8,0-19.5,8.7-19.5,19.5c0,7.8,4.7,14.9,11.9,18c9.9,4.2,21.4-0.5,25.6-10.4
		s-0.5-21.4-10.4-25.6c0,0,0,0,0,0C962.2,43,959.6,42.5,957,42.5z"/>
</g>
</svg>
