<?xml version="1.0" encoding="utf-8"?>
<!-- Generator: Adobe Illustrator 23.0.0, SVG Export Plug-In . SVG Version: 6.00 Build 0)  -->
<svg version="1.1" id="圖層_1" xmlns="http://www.w3.org/2000/svg" xmlns:xlink="http://www.w3.org/1999/xlink" x="0px" y="0px"
	 viewBox="0 0 219.5 40" style="enable-background:new 0 0 219.5 40;" xml:space="preserve">
<style type="text/css">
	.st0{fill:#EA5514;}
</style>
<g transform="translate(-402 -150)">
	<path class="st0" d="M450.3,183.1l0.5,0.1c0.1-0.7,0.7-1.1,1.4-1.2c1.9,0,3.1,1.5,7,1.5c6.9,0,10.9-4,10.9-8.1c0-2.7-1.2-4.2-3-5.8
		l-3.2-2.9c-1.4-1.3-2.7-2.7-2.7-4.9c0-2.7,2.3-4.4,5.5-4.4c2.3,0,5.5,1.4,5.5,4.7c0,0.7-0.1,1.4-0.3,2.1h0.4l2.5-6.9l-0.5-0.1
		c-0.2,0.6-0.7,1-1.3,0.9c-1.6,0-3.2-1.3-6.3-1.3c-5.1,0-9.3,3.1-9.3,7c0,2.6,1.3,4.5,3.6,6.6l2.6,2.3c1.4,1.1,2.2,2.7,2.2,4.5
		c0,3.4-2.4,5.8-6.7,5.8c-2.7,0-6.2-1.7-6.2-5c0-0.7,0.2-1.5,0.5-2.1h-0.5L450.3,183.1z M488.3,183.5c0.4-0.7,1-1.3,1.6-1.9
		c0.7-0.7,1.3-1.3,2.4-2.2l1.8-1.5c2.4-2,5.3-4.7,5.3-8c0-1.4-0.6-2.8-2.2-2.8c-1-0.1-1.9,0.7-2,1.7c0,0,0,0.1,0,0.1
		c0,1.4,0.8,2,0.8,3.5c0,2.2-1,4.2-4.5,7c-0.1-0.7-0.3-1.4-0.7-2.1c-0.8-1.7-1.8-4-1.8-5.6c0-1.8,0.7-3.4,2.1-4.5l-0.3-0.4l-0.7,0.6
		l-0.9,0.8c-0.3-0.7-1.1-1.2-1.8-1.1c-1-0.1-1.9,0.7-2,1.7c0,0,0,0.1,0,0.1c0,1.4,0.8,2,0.8,3.5c0,2.2-1.3,4.2-4.8,7
		c-0.1-0.7-0.3-1.4-0.7-2.1c-0.8-1.7-1.8-4-1.8-5.6c0-1.8,0.7-3.4,2.1-4.5l-0.3-0.4l-0.7,0.6c-2.5,2-4.4,4.2-4.4,6.8
		c0.1,1.2,0.4,2.3,1,3.3l0.9,2c0.4,0.6,0.6,1.3,0.6,2c0,0.6-0.1,1.2-0.4,1.7l0.4,0.3c0.4-0.7,1-1.3,1.6-1.9c0.7-0.7,1.3-1.3,2.4-2.2
		l1.8-1.5c0.7-0.5,1.4-1.1,2.1-1.8c0.2,0.5,0.4,0.9,0.6,1.4l0.9,2c0.4,0.6,0.6,1.3,0.6,2c0,0.6-0.1,1.2-0.4,1.7L488.3,183.5z
		 M512.8,179.1c-0.7,1-2.6,3.7-5.8,3.7c-1.7,0-2.8-0.8-2.8-3.2c0.1-1.8,0.4-3.5,1-5.2c0.5,0.1,1,0.1,1.5,0.1c1.9,0,8.6-0.6,8.6-4.5
		c0-1.9-2.1-3-4.6-3c-5.4,0-10.2,6.5-10.2,10.8c0,3.2,2.3,5.6,5.9,5.6c4.2,0,6.3-3.4,6.8-4.1L512.8,179.1z M512,169.2
		c0,2.7-2.2,4.9-5.5,4.9c-0.4,0-0.7,0-1.1-0.1c0.8-2.5,2.7-6.4,5.2-6.4C511.4,167.6,512,168.1,512,169.2z M528.4,179.1
		c-0.7,1-2.6,3.7-5.8,3.7c-1.7,0-2.8-0.8-2.8-3.2c0.1-1.8,0.4-3.5,1-5.2c0.5,0.1,1,0.1,1.5,0.1c1.9,0,8.6-0.6,8.6-4.5
		c0-1.9-2.1-3-4.6-3c-5.4,0-10.2,6.5-10.2,10.8c0,3.2,2.3,5.6,5.9,5.6c4.2,0,6.3-3.4,6.8-4.1L528.4,179.1z M527.6,169.2
		c0,2.7-2.2,4.9-5.5,4.9c-0.4,0-0.7,0-1.1-0.1c0.8-2.5,2.7-6.4,5.2-6.4C527,167.6,527.6,168.1,527.6,169.2z M532.7,178.6
		c-0.3,0.7-0.4,1.4-0.5,2.1c0,1.8,1.2,2.7,3.2,2.7c2.3,0,4.4-1.4,5.1-3.6l-0.4-0.2c-0.4,1-1.7,2.9-3.2,2.9c-0.6,0-1.1-0.4-1.1-1
		c0,0,0-0.1,0-0.1c0-0.7,0.2-1.4,0.5-2.1l4.1-11.3h3.7l0.1-0.5h-3.7l1.3-3.5h-3.7l-1.3,3.5h-3.1l-0.1,0.5h3.1L532.7,178.6z
		 M561.4,167.6h-3.7l-0.7,1.9h0c0-1.3-1.1-2.4-2.4-2.3c0,0,0,0,0,0c-4.3,0-10.9,5.8-10.9,11.7c0,3.1,1.7,4.7,4,4.7
		c2.6,0,4.7-2.6,5.9-4.2h0.1c-0.2,0.6-0.3,1.2-0.3,1.9c0,1.4,1.1,2.3,2.8,2.3c2.3,0,4.4-1.5,5.1-3.7l-0.4-0.2c-0.3,0.6-1.4,3-3.2,3
		c-0.5,0-0.8-0.4-0.8-0.9c0.1-1.1,0.3-2.2,0.8-3.2L561.4,167.6z M554.1,177.4c-0.5,1.5-3.6,5.3-5.5,5.3c-0.9,0-1.2-0.6-1.2-2
		c0-4.1,3.7-13,7.3-13c1,0,1.9,0.8,1.9,1.9c0,0.1,0,0.2,0,0.3c-0.1,0.9-0.3,1.7-0.6,2.5L554.1,177.4z M571.8,167.6
		c0.8,0,1.3,0.5,1.3,1s-0.6,0.9-0.6,1.7c0,0.8,0.6,1.4,1.3,1.4c0.1,0,0.1,0,0.2,0c0.9,0.1,1.8-0.6,1.8-1.6c0-0.1,0-0.2,0-0.3
		c0-1.7-1.8-2.8-3.9-2.8c-3.1,0-6.1,2.3-6.1,4.8c0.1,1.3,0.6,2.5,1.4,3.5l1.7,2.3c0.6,0.7,0.9,1.7,0.9,2.6c-0.1,1.6-1.5,2.8-3.2,2.7
		c-0.8,0.1-1.6-0.5-1.7-1.3c0-0.1,0-0.2,0-0.3c0-0.7,0.4-1.5,0.4-2.2c0-0.6-0.5-1.1-1.1-1.1c0,0-0.1,0-0.1,0c-1.1,0-2,0.8-2,1.9
		c0,0.1,0,0.2,0,0.2c0,2.1,2.1,3.3,4.4,3.3c2.7,0,6.7-1.7,6.7-4.9c0-1-0.4-1.9-1-2.7l-2.1-2.8c-0.8-0.8-1.2-1.9-1.2-3
		C569,168.6,570.3,167.5,571.8,167.6C571.8,167.6,571.8,167.6,571.8,167.6z M577.6,178.6c-0.3,0.7-0.4,1.4-0.5,2.1
		c0,1.8,1.2,2.7,3.2,2.7c2.3,0,4.4-1.4,5.1-3.6l-0.4-0.2c-0.4,1-1.7,2.9-3.2,2.9c-0.6,0-1.1-0.4-1.1-1c0,0,0-0.1,0-0.1
		c0-0.7,0.2-1.4,0.5-2.1l4.1-11.3h3.7l0.1-0.5h-3.7l1.3-3.5H583l-1.3,3.5h-3.1l-0.1,0.5h3.1L577.6,178.6z M600.8,179.1
		c-0.7,1-2.6,3.7-5.8,3.7c-1.7,0-2.8-0.8-2.8-3.2c0.1-1.8,0.4-3.5,1-5.2c0.5,0.1,1,0.1,1.5,0.1c1.9,0,8.6-0.6,8.6-4.5
		c0-1.9-2.1-3-4.6-3c-5.4,0-10.2,6.5-10.2,10.8c0,3.2,2.3,5.6,5.9,5.6c4.2,0,6.3-3.4,6.8-4.1L600.8,179.1z M600,169.2
		c0,2.7-2.2,4.9-5.5,4.9c-0.4,0-0.7,0-1.1-0.1c0.8-2.5,2.7-6.4,5.2-6.4C599.4,167.6,600,168.1,600,169.2L600,169.2z M614.1,164.4
		c0.4-1.1,1-2,1.8-2.8c0.6-0.8,1.5-1.7,1.5-2.8c0-0.9-0.8-1.7-1.7-1.7c0,0-0.1,0-0.1,0c-1.1,0-1.9,0.8-2,1.8c0,0,0,0.1,0,0.1
		c0,0.7,0.1,1.3,0.3,2c0.3,1.1,0.3,2.2,0.1,3.3c-2.2-2.9-1.6-5.8-4.1-5.8c-1.1,0-1.9,0.9-1.9,2c0,0.7,0.4,1.4,1.7,1.9
		c1.5,0.5,2.9,1.2,4.2,2.1c-1.3,0.1-2.5,0.1-3.8-0.1c-0.5-0.1-1.1-0.2-1.6-0.2c-1-0.1-1.9,0.6-2,1.6c0,0.1,0,0.2,0,0.3
		c0,1.1,0.8,1.9,1.9,2c0.9,0,1.8-0.8,2.7-1.5c0.8-0.8,1.8-1.4,2.9-1.8c-0.4,1.1-1.1,2-1.8,2.8c-0.6,0.8-1.5,1.7-1.5,2.8
		c0,0.9,0.8,1.7,1.7,1.7c0,0,0.1,0,0.1,0c1.1,0,1.9-0.8,2-1.8c0,0,0-0.1,0-0.1c0-0.7-0.1-1.3-0.3-2c-0.2-1.1-0.3-2.2-0.1-3.4
		c2.2,2.9,1.6,5.8,4.1,5.8c1.1,0,1.9-0.9,1.9-2c0-0.7-0.4-1.4-1.7-1.9c-1.5-0.5-2.9-1.2-4.2-2.1c1.3-0.1,2.5-0.1,3.8,0.1
		c0.5,0.1,1.1,0.2,1.6,0.2c1,0.1,1.9-0.6,2-1.6c0-0.1,0-0.2,0-0.3c0-1.1-0.8-1.9-1.9-2c-0.9,0-1.8,0.8-2.7,1.5
		C616.1,163.3,615.2,163.9,614.1,164.4L614.1,164.4z"/>
	<g transform="translate(-535 108)">
		<path class="st0" d="M957,80c-9.9,0-18-8-18-18c0-7.2,4.3-13.8,11-16.6c9.2-3.9,19.7,0.4,23.6,9.6s-0.4,19.7-9.6,23.6
			C961.8,79.5,959.4,80,957,80z M947.2,71.9c0.6,0,1.2,0.2,1.8,0.4c1.2,0.5,2.6,0.8,3.9,0.8c2.4,0.1,4.7-0.6,6.5-2
			c2.5-1.8,3.1-5.4,1.3-8c-0.4-0.5-0.8-0.9-1.3-1.3l-2.6-2.3c-1.1-1-2.2-2.2-2.2-4c0-2.1,1.8-3.6,4.5-3.6c1.1,0,2.1,0.3,3,0.9
			c1,0.7,1.6,1.8,1.5,2.9c0,0.6-0.1,1.1-0.2,1.6l0,0.1h0.4l2-5.6l-0.4-0.1c-0.1,0.5-0.6,0.8-1.1,0.8c-0.6,0-1.2-0.2-1.7-0.4
			c-1.1-0.4-2.2-0.6-3.4-0.7c-1.9,0-3.8,0.5-5.4,1.6c-1.3,0.9-2.2,2.4-2.2,4c0,2.2,1.2,3.8,2.9,5.3l2.1,1.9c1.1,0.9,1.8,2.2,1.8,3.6
			c0,1.3-0.5,2.5-1.4,3.4c-1.1,0.9-2.6,1.4-4,1.3c-1.2,0-2.3-0.4-3.3-1c-1-0.7-1.7-1.8-1.7-3c0-0.6,0.2-1.2,0.4-1.7l0,0h-0.4
			l-2.1,5.8l0.4,0.1C946.2,72.3,946.6,71.9,947.2,71.9z M965.6,61.8L965.6,61.8c-0.2,0.4-0.4,0.8-0.7,1.2l-0.1,0.1
			c0,0.1-0.1,0.1-0.1,0.2c-0.3,0.3-0.5,0.7-0.5,1.1c0,0.4,0.4,0.8,0.8,0.8c0,0,0,0,0.1,0c0.5,0,0.9-0.4,0.9-0.9c0,0,0,0,0-0.1
			c0-0.2,0-0.5-0.1-0.7l0-0.2C965.6,62.9,965.6,62.4,965.6,61.8L965.6,61.8c0.4,0.5,0.7,1,0.9,1.6c0.2,0.7,0.4,1.2,1.1,1.2
			c0.5,0,0.9-0.4,0.9-0.9c0-0.4-0.3-0.7-0.8-0.9c-0.7-0.2-1.3-0.6-2-1c0.2,0,0.4,0,0.6,0c0.4,0,0.8,0,1.2,0.1l0.2,0
			c0.2,0,0.4,0,0.5,0.1c0.5,0,0.9-0.3,0.9-0.8c0,0,0-0.1,0-0.1c0-0.5-0.4-0.9-0.9-0.9c-0.5,0.1-0.9,0.3-1.2,0.7
			c-0.4,0.4-0.8,0.7-1.3,0.9c0.2-0.5,0.5-0.9,0.8-1.3c0-0.1,0.1-0.1,0.1-0.2c0.3-0.3,0.5-0.7,0.5-1.1c0-0.4-0.4-0.8-0.8-0.8
			c0,0,0,0-0.1,0c-0.5,0-0.9,0.4-0.9,0.9c0,0,0,0,0,0.1c0,0.2,0,0.5,0.1,0.7l0,0.2c0.1,0.5,0.1,1,0.1,1.6c-0.3-0.5-0.6-1-0.8-1.5
			c-0.3-0.7-0.4-1.2-1.1-1.2c-0.5,0-0.9,0.4-0.9,0.9c0,0.4,0.3,0.7,0.8,0.9C964.3,61,964.9,61.3,965.6,61.8c-0.2,0-0.4,0-0.6,0
			c-0.4,0-0.8,0-1.2-0.1l-0.2,0c-0.2,0-0.4,0-0.5-0.1c-0.5,0-0.9,0.3-0.9,0.8c0,0,0,0.1,0,0.1c0,0.5,0.4,0.9,0.9,0.9
			c0.5-0.1,0.9-0.3,1.2-0.7C964.6,62.3,965.1,62,965.6,61.8L965.6,61.8z"/>
		<path class="st0" d="M957,82c-11,0-20-9-20-20c0-8,4.8-15.3,12.2-18.4c10.2-4.3,21.9,0.5,26.2,10.6c4.3,10.2-0.5,21.9-10.6,26.2
			C962.3,81.5,959.7,82,957,82z M957,42.5c-10.8,0-19.5,8.7-19.5,19.5c0,7.8,4.7,14.9,11.9,18c9.9,4.2,21.4-0.5,25.6-10.4
			s-0.5-21.4-10.4-25.6c0,0,0,0,0,0C962.2,43,959.6,42.5,957,42.5z"/>
	</g>
</g>
</svg>
