<?xml version="1.0" encoding="utf-8"?>
<!-- Generator: Adobe Illustrator 23.0.0, SVG Export Plug-In . SVG Version: 6.00 Build 0)  -->
<svg version="1.1" id="圖層_1" xmlns="http://www.w3.org/2000/svg" xmlns:xlink="http://www.w3.org/1999/xlink" x="0px" y="0px"
	 viewBox="0 0 114.1 17.7" style="enable-background:new 0 0 114.1 17.7;" xml:space="preserve">
<style type="text/css">
	.st0{fill:#EA5514;}
</style>
<path class="st0" d="M0,17.4l0.3,0.1c0.1-0.4,0.5-0.8,0.9-0.8c1.2,0,2,1,4.7,1c4.6,0,7.3-2.7,7.3-5.4c0-1.5-0.7-3-2-3.9L9.1,6.6
	C8,5.8,7.3,4.6,7.3,3.3c0-1.8,1.6-3,3.7-3c1.6,0,3.7,0.9,3.7,3.1c0,0.5-0.1,1-0.2,1.4h0.3l1.7-4.6L16,0.2c-0.1,0.4-0.5,0.6-0.9,0.6
	C14.1,0.9,13,0,10.9,0C7.5,0,4.7,2,4.7,4.7c0,1.8,0.9,3,2.4,4.4l1.7,1.6c0.9,0.7,1.4,1.8,1.4,3c0,2.3-1.6,3.8-4.4,3.8
	c-1.8,0-4.1-1.1-4.1-3.3c0-0.5,0.1-1,0.3-1.4H1.7L0,17.4z M25.4,17.7c0.3-0.5,0.7-0.9,1.1-1.3c0.5-0.5,0.9-0.8,1.6-1.5l1.2-1
	c1.6-1.3,3.6-3.1,3.6-5.3c0-0.9-0.4-1.9-1.5-1.9c-0.7-0.1-1.3,0.5-1.3,1.1c0,0,0,0,0,0.1c0,1,0.6,1.3,0.6,2.3c0,1.5-0.7,2.8-3,4.7
	c-0.1-0.5-0.2-0.9-0.5-1.4c-0.6-1.2-1-2.4-1.2-3.7c0-1.2,0.5-2.3,1.4-3l-0.2-0.3L26.6,7L26,7.5c-0.2-0.5-0.7-0.8-1.2-0.7
	c-0.7-0.1-1.3,0.5-1.3,1.1c0,0,0,0,0,0.1c0,1,0.6,1.3,0.6,2.3c0,1.5-0.8,2.8-3.2,4.7c-0.1-0.5-0.2-0.9-0.5-1.4
	c-0.6-1.2-1-2.4-1.2-3.7c0-1.2,0.5-2.3,1.4-3l-0.2-0.3L19.8,7c-1.7,1.3-2.9,2.8-2.9,4.5c0.1,0.8,0.3,1.5,0.6,2.2l0.6,1.3
	c0.2,0.4,0.4,0.9,0.4,1.3c0,0.4-0.1,0.8-0.3,1.1l0.3,0.2c0.3-0.5,0.7-0.9,1.1-1.3c0.5-0.5,0.9-0.8,1.6-1.5l1.2-1
	c0.5-0.4,0.9-0.7,1.4-1.2c0.1,0.3,0.3,0.6,0.4,0.9l0.6,1.3c0.2,0.4,0.4,0.9,0.4,1.3c0,0.4-0.1,0.8-0.3,1.1L25.4,17.7z M41.7,14.8
	c-0.5,0.6-1.7,2.5-3.8,2.5c-1.1,0-1.8-0.6-1.8-2.1c0-1.2,0.3-2.3,0.7-3.4c0.3,0,0.7,0.1,1,0c1.3,0,5.7-0.4,5.7-3c0-1.3-1.4-2-3.1-2
	c-3.6,0-6.8,4.3-6.8,7.2c-0.1,2,1.5,3.7,3.5,3.7c0.1,0,0.3,0,0.4,0c1.9-0.1,3.6-1.1,4.5-2.7L41.7,14.8z M41.1,8.2
	c-0.1,1.9-1.6,3.3-3.5,3.3c-0.1,0-0.1,0-0.2,0c-0.2,0-0.5,0-0.7,0c0.5-1.7,1.8-4.3,3.5-4.3C40.8,7.1,41.1,7.5,41.1,8.2L41.1,8.2z
	 M52.1,14.8c-0.5,0.6-1.7,2.5-3.8,2.5c-1.1,0-1.8-0.6-1.8-2.1c0-1.2,0.3-2.3,0.7-3.4c0.3,0,0.7,0.1,1,0c1.3,0,5.7-0.4,5.7-3
	c0-1.3-1.4-2-3.1-2c-3.6,0-6.8,4.3-6.8,7.2c0,2,1.5,3.7,3.5,3.7c0.1,0,0.3,0,0.4,0c1.9-0.1,3.6-1.1,4.5-2.7L52.1,14.8z M51.5,8.2
	c-0.1,1.9-1.6,3.3-3.5,3.3c-0.1,0-0.1,0-0.2,0c-0.2,0-0.5,0-0.7,0c0.5-1.7,1.8-4.3,3.5-4.3C51.2,7.1,51.5,7.5,51.5,8.2L51.5,8.2z
	 M55,14.5c-0.2,0.4-0.3,0.9-0.3,1.4c0,1.2,0.8,1.8,2.1,1.8c1.5,0,2.9-0.9,3.4-2.4l-0.3-0.1c-0.3,0.7-1.1,1.9-2.2,1.9
	c-0.4,0-0.7-0.3-0.7-0.7c0,0,0-0.1,0-0.1c0-0.5,0.1-1,0.3-1.4l2.7-7.6h2.5l0.1-0.3h-2.5L61,4.8h-2.5l-0.9,2.3h-2.1l-0.1,0.3h2.1
	L55,14.5z M74.1,7.1h-2.5l-0.5,1.2h0c0-0.9-0.7-1.6-1.6-1.6c0,0,0,0,0,0c-2.9,0-7.3,3.9-7.3,7.8c0,2,1.1,3.1,2.6,3.1
	c1.8,0,3.1-1.7,3.9-2.8h0c-0.1,0.4-0.2,0.8-0.2,1.2c0,1,0.7,1.6,1.8,1.6c1.5,0,2.9-1,3.4-2.4l-0.3-0.1c-0.2,0.4-1,2-2.1,2
	c-0.4,0-0.5-0.2-0.5-0.6c0.1-0.7,0.2-1.5,0.5-2.2L74.1,7.1z M69.2,13.7c-0.3,1-2.4,3.5-3.7,3.5c-0.6,0-0.8-0.4-0.8-1.3
	c0-2.7,2.5-8.6,4.8-8.6c0.7,0,1.3,0.5,1.3,1.2c0,0.1,0,0.1,0,0.2c-0.1,0.6-0.2,1.1-0.4,1.7L69.2,13.7z M81,7.1
	c0.6,0,0.8,0.3,0.8,0.7S81.5,8.4,81.5,9c0,0.5,0.4,0.9,0.9,0.9c0,0,0.1,0,0.1,0c0.6,0,1.2-0.4,1.2-1.1c0-0.1,0-0.1,0-0.2
	c0-1.1-1.2-1.8-2.6-1.8C79,6.8,77,8.3,77,10c0.1,0.9,0.4,1.7,1,2.3l1.2,1.5c0.4,0.5,0.6,1.1,0.6,1.7c-0.1,1.1-1,1.9-2.1,1.8
	c-0.6,0.1-1.1-0.3-1.2-0.9c0-0.1,0-0.1,0-0.2c0-0.5,0.3-1,0.3-1.5c0-0.4-0.3-0.7-0.7-0.7c0,0,0,0-0.1,0c-0.7,0-1.3,0.5-1.3,1.3
	c0,0.1,0,0.1,0,0.2c0,1.4,1.4,2.2,3,2.2c1.8,0,4.5-1.1,4.5-3.3c0-0.6-0.3-1.3-0.6-1.8l-1.4-1.8c-0.5-0.6-0.8-1.3-0.8-2
	C79.2,7.8,80,7.1,81,7.1C81,7.1,81,7.1,81,7.1z M84.9,14.5c-0.2,0.4-0.3,0.9-0.3,1.4c0,1.2,0.8,1.8,2.1,1.8c1.5,0,2.9-0.9,3.4-2.4
	l-0.3-0.1c-0.3,0.7-1.1,1.9-2.2,1.9c-0.4,0-0.7-0.3-0.7-0.7c0,0,0-0.1,0-0.1c0-0.5,0.1-1,0.3-1.4L90,7.4h2.5l0.1-0.3h-2.5l0.9-2.4
	h-2.5l-0.9,2.3h-2.1l-0.1,0.3h2.1L84.9,14.5z M100.3,14.8c-0.5,0.6-1.7,2.5-3.8,2.5c-1.1,0-1.8-0.6-1.8-2.1c0-1.2,0.3-2.3,0.7-3.4
	c0.3,0,0.7,0.1,1,0c1.3,0,5.7-0.4,5.7-3c0-1.3-1.4-2-3.1-2c-3.6,0-6.8,4.3-6.8,7.2c0,2,1.5,3.7,3.6,3.7c0.1,0,0.3,0,0.4,0
	c1.9-0.1,3.6-1.1,4.5-2.7L100.3,14.8z M99.8,8.2c-0.1,1.9-1.6,3.3-3.5,3.3c-0.1,0-0.1,0-0.2,0c-0.2,0-0.5,0-0.7-0.1
	c0.5-1.7,1.8-4.3,3.5-4.3C99.4,7.1,99.8,7.5,99.8,8.2L99.8,8.2z M109.2,5c0.3-0.7,0.7-1.3,1.2-1.9c0.5-0.5,0.9-1.2,1-1.9
	c0-0.6-0.5-1.1-1.1-1.1c0,0-0.1,0-0.1,0c-0.7,0-1.3,0.5-1.3,1.2c0,0,0,0.1,0,0.1c0,0.5,0.1,0.9,0.2,1.3C109.2,3.4,109.2,4.2,109.2,5
	c-1.6-2-1.2-3.9-2.9-3.9c-0.7,0-1.3,0.6-1.3,1.3c0,0.5,0.3,0.9,1.1,1.2c1,0.3,1.9,0.8,2.8,1.4c-0.8,0.1-1.7,0-2.5-0.1
	c-0.3-0.1-0.7-0.1-1.1-0.1c-0.7-0.1-1.3,0.4-1.3,1.1c0,0.1,0,0.1,0,0.2c0,0.7,0.5,1.3,1.2,1.3c0.7-0.1,1.3-0.5,1.8-1
	c0.6-0.5,1.2-1,1.9-1.2c-0.3,0.7-0.7,1.3-1.2,1.9c-0.5,0.5-0.9,1.2-1,1.9c0,0.6,0.5,1.1,1.1,1.1c0,0,0.1,0,0.1,0
	c0.7,0,1.3-0.5,1.3-1.2c0,0,0-0.1,0-0.1c0-0.5-0.1-0.9-0.2-1.3c-0.2-0.7-0.2-1.5-0.1-2.2c1.5,1.9,1.1,3.9,2.7,3.9
	c0.7,0,1.3-0.6,1.2-1.3c0-0.5-0.3-0.9-1.1-1.2C111,6.1,110.1,5.6,109.2,5c0.9,0,1.7,0.1,2.5,0.2c0.3,0.1,0.7,0.1,1.1,0.1
	c0.7,0.1,1.3-0.4,1.3-1.1c0-0.1,0-0.1,0-0.2c0-0.7-0.5-1.3-1.2-1.3c-0.7,0.1-1.3,0.5-1.8,1C110.6,4.3,109.9,4.7,109.2,5L109.2,5z"/>
</svg>
