<?xml version="1.0" encoding="utf-8"?>
<!-- Generator: Adobe Illustrator 23.0.0, SVG Export Plug-In . SVG Version: 6.00 Build 0)  -->
<svg version="1.1" id="圖層_1" xmlns="http://www.w3.org/2000/svg" xmlns:xlink="http://www.w3.org/1999/xlink" x="0px" y="0px"
	 viewBox="0 0 1000 1000" style="enable-background:new 0 0 1000 1000;" xml:space="preserve">
<style type="text/css">
	.st0{fill:#EA5514;}
</style>
<g transform="translate(-937 -42)">
	<path class="st0" d="M1437,992c-248.6-0.2-450-201.8-449.8-450.4c0.1-180.7,108.3-343.8,274.7-414.2
		c229.1-96.4,493,11.1,589.5,240.3c96.3,228.7-10.7,492.2-239.2,589C1556.7,980.1,1497.2,992.1,1437,992z M1191.2,789.4
		c15.5,0,28.9,5,44.4,10.9c22.6,8.5,50.8,19.1,98.5,19.1c82.9,0,134.7-27.8,163.6-51c37.2-30,58.6-71.3,58.6-113.2
		c0-53.4-23-84.8-60.1-118l-65.3-58.7c-28.2-25.4-55.7-54-55.7-100.4c0-53.1,46.1-90.2,112.2-90.2c26.2,0,54,8.5,74.3,22.7
		c17.6,12.3,38.6,35,38.6,73.3c0,14-2,27.9-6,41.3l-0.6,2h8.8l50.6-140l-11-2.2c-5,11.4-11.4,19.1-26.4,19.1
		c-13.8,0-27.4-4.6-43.1-10c-21.4-7.3-48.1-16.4-85.2-16.4c-50.9,0-98.6,14.6-134.2,41.1c-35.9,26.7-55.6,62.6-55.6,101.1
		c0,56.2,29,94,72.6,133.4l52,47.6c30.8,28.5,44,55.7,44,90.9c0,34.7-12.3,64-35.6,84.8c-23.9,21.3-58.5,32.5-100,32.5
		c-28.8,0-59.8-9.6-83-25.6c-19.3-13.3-42.3-37.3-42.3-75.6c0-16,4.4-28.4,9.4-42.9l0.1-0.4h-9.5l-52,145.9l10.3,2.2
		C1165.7,799.7,1177.9,789.4,1191.2,789.4z M1651.6,536.9L1651.6,536.9c-4.3,11-5.7,12.7-18.6,29.6l-2.7,3.5
		c-1.1,1.5-2.4,3.1-3.6,4.7c-6.3,8.2-13.5,17.4-13.5,28.3c0,13.5,11,19.6,21.3,19.6c13.3,0,23-9.7,23-23c0-3.7-0.6-8-2.2-18.5
		l-0.7-4.9c-3.2-24.1-3-26.2-1.4-37.5l0.2-1.4c10.5,13.7,15.6,27.6,19.7,38.8c6.1,16.7,10.5,28.8,27.9,28.8
		c12,0,21.7-10.5,21.7-23.4c0-9.5-6.5-16.8-19.2-21.7c-9.3-3.5-34-12.9-48.9-23.8c4.6-0.5,9.2-0.8,13.8-0.8c9.5,0,18.8,1,30,2.5
		c1.6,0.2,3.2,0.5,4.8,0.7c4.5,0.8,9,1.2,13.6,1.4c14.2,0,23.4-8.5,23.4-21.7c0-12.2-10.1-23-21.7-23c-10.5,0-20.4,8.7-30.9,18
		c-9.8,8.6-21.4,17.9-33.4,21.3c4.6-11.6,5.3-12.8,20.9-33c1.1-1.5,2.3-3.1,3.6-4.7c6.4-8.2,13.5-17.4,13.5-28.3
		c0-13.5-11-19.6-21.3-19.6c-13.3,0-23,9.7-23,23c0,3.6,0.6,8,2.2,18.5l0.7,4.9c3.3,24.7,3.3,26.2,1.7,38.8
		c-10.4-13.6-15.6-27.5-19.8-38.7c-6.3-16.8-10.8-29-28.3-29c-12,0-21.7,10.5-21.7,23.4c0,9.5,6.5,16.8,19.2,21.7
		c15.9,6,35.7,14.2,48.9,23.8c-4.6,0.5-9.3,0.8-13.9,0.8c-9.5,0-18.8-1-29.9-2.4c-1.7-0.2-3.3-0.5-5-0.7c-4.4-0.8-8.9-1.2-13.4-1.4
		c-14.2,0-23.4,8.5-23.4,21.7c0,12.2,10.1,23,21.7,23c10.5,0,20.4-8.7,30.9-18C1626.2,550.8,1638.8,540.6,1651.6,536.9L1651.6,536.9
		z"/>
	<path class="st0" d="M1437,1042c-276.2-0.2-500-224.2-499.8-500.5c0.1-200.8,120.3-382,305.2-460.3
		c254.4-107.5,547.8,11.6,655.3,266.1c107.5,254.4-11.6,547.8-266.1,655.3C1570,1028.8,1503.9,1042.1,1437,1042z M1437,54.5
		c-269.3,0.2-487.5,218.6-487.3,488c0.1,195.7,117.3,372.4,297.6,448.7c248.2,104.4,534.1-12.2,638.5-260.5
		c104.2-247.7-11.7-533-259-637.9C1566.7,67.4,1502.2,54.4,1437,54.5z"/>
</g>
</svg>
