<?xml version="1.0" encoding="utf-8"?>
<!-- Generator: Adobe Illustrator 23.0.0, SVG Export Plug-In . SVG Version: 6.00 Build 0)  -->
<svg version="1.1" id="圖層_1" xmlns="http://www.w3.org/2000/svg" xmlns:xlink="http://www.w3.org/1999/xlink" x="0px" y="0px"
	 viewBox="0 0 59.3 218.7" style="enable-background:new 0 0 59.3 218.7;" xml:space="preserve">
<style type="text/css">
	.st0{fill:#EA5514;}
</style>
<g transform="translate(29.64 109.344)">
	<g transform="translate(-29.64 -109.345)">
		<path class="st0" d="M59.2,10.2c-1,0.5-1.8,1.4-2.3,2.4c-0.2,0.3-0.3,0.4-0.5,0.4c-0.2,0-0.4-0.1-0.5-0.1
			c-1.7-0.9-3.1-2.1-4.3-3.6c-1.7-2.1-3-4.6-3.7-7.2c-2.4,5-6.5,8.9-11.5,11.3c-0.1,0-0.3-0.2-0.1-0.3C38.7,11.4,42,7,44.1,2.1
			c0.3-0.7,0.5-1.4,0.7-2.1c3.8,0.8,4.2,1.1,4.2,1.4c0,0.3-0.2,0.4-0.8,0.6c1.4,2.2,3.3,4,5.6,5.4c1.7,1.1,3.6,2,5.5,2.6
			C59.3,10,59.3,10.2,59.2,10.2z M49.5,13.5c1.2-1.5,1.4-1.6,1.6-1.6c0.3,0,0.5,0.1,1.8,1.3c0.8,0.7,0.9,0.8,0.9,1.1
			c0,0.3-0.1,0.4-1,0.9c-0.7,2.4-1.5,4.8-2.5,7.2c-0.2,0.3-0.6,0.5-1,0.5c-1.1,0-2.2-0.3-2.2-0.8c0-0.3,0.1-0.6,0.2-0.8
			c1-2.3,1.9-4.7,2.6-7.1h-7c-1,0-1.9,0-2.9,0.2l-0.2-0.8c1,0.1,2.1,0.2,3.1,0.2L49.5,13.5z M45.4,10.4c-0.8,0-1.6,0.1-2.4,0.2
			l-0.2-0.8c0.9,0.1,1.8,0.2,2.7,0.2h2.1C48.9,8.1,49,8,49.2,8c0.2,0,0.3,0.1,1.5,1.2c0.7,0.7,0.8,0.7,0.8,0.9s-0.1,0.3-0.2,0.3
			L45.4,10.4z"/>
		<path class="st0" d="M48.8,38c0.6,2.6,2.1,4.9,4.2,6.6c1.8,1.6,3.8,2.8,6.1,3.6c0.1,0,0.1,0.2,0,0.2c-1.1,0.2-1.7,0.8-2.6,2.3
			c-0.3,0.4-0.4,0.5-0.6,0.5c-0.3-0.1-0.6-0.2-0.8-0.4c-2.1-1.3-3.8-3.1-4.9-5.3c-1-2.2-1.5-4.5-1.5-6.9c-0.2,2.4-0.9,4.7-2.2,6.7
			c-2.3,3.4-5.9,5.6-10,6.3c-0.1,0-0.3-0.2-0.1-0.2c3.1-1.2,5.6-3.4,7.2-6.3c1.2-2.2,1.8-4.5,1.9-7h-4.2c-0.8,0-1.8,0-3.1,0.2
			l-0.2-0.8c1.6,0.1,2.5,0.2,3.4,0.2h4.2c0.1-1,0.1-2.1,0.1-3.4c0-0.9,0-1.6,0-2.2h-5.2c-0.8,0-1.8,0-3.1,0.2l-0.2-0.8
			c1.6,0.1,2.5,0.2,3.4,0.2h13.5c1.8-2.1,2-2.3,2.2-2.3c0.3,0,0.4,0.1,1.8,1.3c1,0.9,1.1,1,1.1,1.2c0,0.2-0.1,0.3-0.3,0.3h-9
			c0,0.3-0.1,0.5-0.6,0.8c0,1.9,0,3.4-0.2,4.8h4.2c1.8-2.2,1.9-2.3,2.1-2.3c0.3,0,0.5,0.1,1.7,1.2c0.9,0.8,1.1,1.1,1.1,1.2
			c0,0.2-0.1,0.3-0.3,0.3L48.8,38z"/>
		<path class="st0" d="M49.4,76.6c0.8,0,1.8,0,2.9,0c2.3,0,4.5-0.1,6.7-0.4c0.1,0,0.2,0.2,0,0.3c-1,0.5-1.7,1.5-1.9,2.7
			c0,0.3-0.3,0.6-0.7,0.6c-1.3,0.1-2.5,0.1-3.8,0.1c-3.7,0-6-0.6-7.6-1.6c-1.4-0.8-2.3-2.2-2.7-3.7c-1.6,2.3-3.8,4.1-6.3,5.3
			c-0.1,0-0.3-0.1-0.1-0.2c1.6-1.2,3.8-4.7,4.9-8.7c0.1-0.6,0.2-0.9,0.4-1.5c3.5,1.2,3.7,1.3,3.7,1.7c0,0.3-0.1,0.4-0.9,0.6
			c-0.3,0.8-0.8,1.6-1.3,2.4c0.5,0.8,1.2,1.4,2.1,1.7c0.5,0.2,1,0.3,1.5,0.4v-5c0-0.9,0-1.6-0.1-2.5h-6.5c-0.9,0-1.8,0.1-2.7,0.2
			l-0.2-0.8c1.2,0.1,2.2,0.2,3,0.2h14.3c1.7-2.1,1.7-2.1,1.9-2.1s0.3,0,1.6,1.3c0.9,0.8,0.9,0.9,0.9,1.1c0,0.1-0.1,0.2-0.2,0.2
			c0,0,0,0,0,0h-8.4c0,0.2-0.1,0.3-0.5,0.5v3.4h2.9c1.6-2,1.6-2,1.8-2c0.3,0,0.3,0,1.6,1.2c0.8,0.8,0.9,0.8,0.9,1
			c0,0.1-0.1,0.2-0.2,0.2c0,0,0,0-0.1,0h-7V76.6z M43.9,66.6c0,0.7-0.6,1-2,1c-0.8,0-1.1-0.2-1.1-0.8c0-0.4,0.1-2.4,0.1-5.2
			c0-1.2,0-2.7-0.1-3.7c2.6,0.5,3.3,0.8,3.5,1h6.4c1.1-1.3,1.2-1.3,1.5-1.3c0.2,0,0.4,0,1.6,0.9c1,0.8,1.1,0.9,1.1,1.1
			c0,0.2,0,0.2-0.6,0.7v2.2c0,2.1,0.1,3.1,0.1,3.5c0,0.7-0.7,1.1-2.1,1.1c-1,0-1.1-0.1-1.1-0.8v-0.5h-7.2V66.6z M44.3,59.4
			c-0.1,0.1-0.2,0.2-0.4,0.3v2.4h7.2v-2.7L44.3,59.4z M51.1,65.3v-2.8h-7.2v2.8L51.1,65.3z"/>
		<path class="st0" d="M38.8,95.8c-0.8,1.1-1.7,2.1-2.6,2.9c-0.1,0.1-0.3-0.1-0.2-0.2c1.2-1.8,2.6-5.5,4-10.3
			c0.1-0.6,0.3-1.1,0.4-1.7c3.2,1.2,3.6,1.5,3.6,1.8c0,0.3-0.2,0.6-1.1,0.8c-0.6,1.4-1.3,2.7-2.1,4c1.3,0.5,1.5,0.7,1.5,1
			c0,0.2-0.1,0.4-0.7,0.6v5.4c0,5.8,0,7.3,0,7.9c0,0.7-0.7,1-1.9,1c-0.9,0-1.1-0.2-1.1-0.8s0.1-2.3,0.1-5.9L38.8,95.8z M54.5,88.3
			c1.2-1.4,1.2-1.4,1.5-1.4c0.2,0,0.3,0,1.4,0.9c0.9,0.8,0.9,0.9,0.9,1.1c0,0.2-0.1,0.3-0.6,0.8v4.3c0,9.2,0.1,12.8,0.1,13.5
			c0,0.7-0.7,1.2-2.1,1.2c-0.7,0-0.9-0.2-0.9-0.9v-0.9h-8.3v0.8c0,0.7-0.5,1.2-1.8,1.2c-0.8,0-1-0.1-1-0.9c0-0.6,0.2-4.4,0.2-14.3
			c0-3.6,0-5.2-0.1-6.5c2.3,0.5,3.1,0.8,3.3,1.1L54.5,88.3z M54.9,106.4V88.8h-7.8c-0.1,0.1-0.3,0.2-0.5,0.3v17.3L54.9,106.4z
			 M52.1,93.2c0.9-1.4,1-1.4,1.1-1.4s0.2,0,0.9,0.8c0.5,0.6,0.6,0.7,0.6,0.9c0,0.1-0.1,0.2-0.3,0.2h-2.8v3.8c0.6-0.9,0.7-1,0.9-1
			c0.2,0,0.2,0,0.9,0.7c0.7,0.6,0.7,0.7,0.7,0.9s0,0.2-0.4,0.6v1c0,2.5,0.1,4,0.1,4.4c0,0.7-0.4,1-1.6,1c-0.6,0-0.7-0.2-0.7-0.8
			v-0.6h-1.9v0.7c0,0.6-0.4,0.9-1.5,0.9c-0.5,0-0.6-0.1-0.6-0.7c0-0.5,0.1-2,0.1-4.4c0-1,0-2-0.1-3.3c0.9,0.2,1.4,0.4,1.8,0.6v-3.6
			h-0.1c-0.4,0-1.2,0-2.3,0.2L46.8,93c0.9,0.1,1.7,0.2,2.6,0.2h0.1c0-1.3,0-2.6-0.1-3.8c2.7,0.2,2.8,0.4,2.8,0.7
			c0,0.2,0,0.3-0.5,0.6v2.6L52.1,93.2z M51.6,102.9v-5h-1.5c-0.1,0.1-0.2,0.2-0.4,0.3v4.7L51.6,102.9z"/>
		<path class="st0" d="M45.3,138.5v-24h0.8v24H45.3z"/>
		<path class="st0" d="M45.3,162.5v-24h0.8v24H45.3z"/>
		<path class="st0" d="M8.2,18.7c0,3.9,0.1,5.7,0.1,6.3c0,0.7-0.5,1.2-2,1.2c-0.6,0-0.8-0.2-0.8-0.9v-0.5H3.7v2c0,0.7-0.6,1-1.9,1
			c-0.5,0-0.7-0.1-0.7-0.9c0-0.7,0.1-4.5,0.1-7.9c0-2.8,0-4.1-0.1-5.5c2.3,0.6,3,0.9,3.2,1.2h1c1-1.2,1.1-1.3,1.3-1.3
			c0.2,0,0.3,0,1.4,0.9c0.9,0.7,1,0.9,1,1.1c0,0.2,0,0.3-0.7,0.9L8.2,18.7z M5.5,24.2v-9.1H4.2c-0.2,0.1-0.3,0.3-0.5,0.3v8.7
			L5.5,24.2z M18.3,16.7c1.8-2.3,1.9-2.4,2.1-2.4s0.4,0,1.7,1.4c0.8,0.8,0.9,1,0.9,1.2s-0.1,0.3-0.4,0.3H12.1c-1,1.5-2.2,3-3.5,4.2
			c-0.1,0.1-0.3,0-0.2-0.1c1.3-2.6,2.1-5.4,2.6-8.2c0.1-0.6,0.2-1.2,0.3-1.9c3.8,0.9,4.1,1.1,4.1,1.4c0,0.4-0.2,0.5-1.1,0.8
			c-0.5,1.1-1.2,2.3-1.8,3.3H18.3z M15,20.9c1.4-1.5,1.5-1.6,1.7-1.6c0.3,0,0.4,0.1,1.4,0.9c1.1,0.9,1.2,1.1,1.2,1.3
			c0,0.3,0,0.4-1.8,1.3c-4.3,5-5.1,6-5.1,6.6s0.1,0.7,3.6,0.7c2.5,0,3.5-0.3,4.1-0.8c0.9-1.1,1.5-2.3,1.9-3.7c0-0.1,0.2-0.1,0.2,0
			c-0.1,2-0.1,2.6-0.1,2.9c0,0.4,0.2,0.8,0.4,1.1c0.3,0.4,0.4,0.8,0.4,1.3c0,1.1-0.7,1.9-7.2,1.9c-5.5,0-6.2-0.9-6.2-2.5
			c0-1.3,0.1-1.7,5.7-9h-2.8c-0.8,0-1.6,0.1-2.3,0.2l-0.2-0.8c0.9,0.1,1.7,0.2,2.6,0.2L15,20.9z"/>
		<path class="st0" d="M20.4,47.1c1-1.9,1.2-2,1.3-2s0.2,0,0.9,0.9c0.7,1,0.8,1.1,0.8,1.3s-0.1,0.3-0.4,0.3h-2.5v2.2
			c0,7.8,0.1,10,0.1,11.2c0,0.7-0.5,1.2-1.9,1.2c-0.9,0-1.2-0.1-1.2-0.9v-1.4h-2.7v1.3c0,0.8-0.7,1.1-1.9,1.1c-1,0-1.1-0.2-1.1-0.9
			c0-0.7,0.2-3.7,0.2-11.4v-2.3h-1.1c0.3,0.4,0.4,0.5,0.4,0.7c0,0.2-0.1,0.3-0.5,0.3H7.1v4.8h0.1c1.1-1.4,1.2-1.5,1.4-1.5
			c0.2,0,0.4,0.1,1.5,1c0.7,0.6,0.9,0.8,0.9,1.1s0,0.3-0.7,0.8v1.2c0,1.8,0.1,3.3,0.1,4c0,0.7-0.9,1.2-1.7,1.2c-0.9,0-1.1-0.2-1.1-1
			v-0.6H4v1.1C4,61.6,3.4,62,2.2,62c-0.9,0-1-0.1-1-0.9c0-0.4,0.1-2.6,0.1-5.1c0-1.5,0-2.5-0.1-3.7c1,0.2,2,0.5,3,1h0.1v-4.8H3
			c-0.8,0-1.6,0-2.4,0.2l-0.2-0.8C1.2,48,2.1,48.1,3,48.1h1.4v-1.7c0-1.1,0-1.8,0-2.3c-1.4,0.1-2.8,0.2-4.1,0.2C0,44.3,0,44,0.1,44
			c2.6-0.6,5.1-1.6,7.4-3c0.3-0.1,0.5-0.3,0.7-0.5c2.6,1.8,2.9,2.2,2.9,2.6c0,0.4-0.3,0.4-1.6,0.3c-0.7,0.1-1.4,0.2-2.1,0.3
			c0,0,0,0.1,0,0.1c0,0.2-0.1,0.3-0.6,0.5v3.7h0.8c1.3-1.9,1.4-1.9,1.5-1.9c0.2,0,0.3,0.1,1.1,1H12c0.1-2.3,0-4.6-0.2-6.9
			c3,0.4,3.7,0.7,3.7,1c0,0.4-0.2,0.5-0.8,0.9v5h2.7c0.1-2.3,0-4.6-0.2-6.9c3,0.4,4,0.6,4,1s-0.2,0.6-0.9,0.8V47.1z M7.5,59.3v-5.4
			H4.3C4.2,53.9,4.1,54,4,54.1v5.2H7.5z M14.8,47.6v5h2.7v-5H14.8z M17.5,59.3v-6.2h-2.7v6.2L17.5,59.3z"/>
		<path class="st0" d="M2.5,85.8c0.6,0.9,0.9,2,0.8,3.1c0.1,1-0.7,1.9-1.7,2c-0.6,0.1-1.2-0.4-1.3-1c0-0.1,0-0.1,0-0.2
			c0-0.4,0.2-0.6,0.8-1.2c0.7-0.7,1.1-1.7,1.1-2.7C2.2,85.7,2.4,85.7,2.5,85.8z M8.7,70c0.8-1.1,0.9-1.2,1.1-1.2
			c0.1,0,0.3,0,1.2,0.8c0.7,0.6,0.9,0.7,0.9,1c0,0.2,0,0.2-0.6,0.7v2.1c0,1.8,0.1,3.6,0.1,4.2c0,0.8-0.4,1.1-1.7,1.1
			c-0.5,0-0.6-0.2-0.6-0.8v-0.3H7.2v2.8H8c1.2-1.5,1.3-1.6,1.5-1.6c0.2,0,0.3,0,1.2,0.9c0.6,0.6,0.7,0.8,0.7,0.9s-0.1,0.3-0.2,0.3
			h-4v1.8c1.4-0.1,2.7-0.3,4.2-0.5c0.1,0,0.1,0,0.1,0.1c0,0.1,0,0.1-0.1,0.1c-3,1.3-6.1,2.4-9.3,3.3c-0.1,0.5-0.3,0.6-0.5,0.6
			C1.2,86.3,1,86,0.3,83c0.5,0,1,0,1.6,0c1.1,0,2.1-0.1,3-0.2v-2H3.8c-0.8,0-1.6,0.1-2.4,0.2l-0.2-0.8c0.9,0.1,1.8,0.2,2.7,0.2h1.1
			v-2.8H3.2v0.6c0,0.7-0.4,0.9-1.3,0.9C1.1,79.1,1,79,1,78.4c0-0.5,0.1-2.7,0.1-5.9c0-2,0-2.7-0.1-3.5c0.9,0.2,1.7,0.5,2.5,1H8.7z
			 M3.2,72c1,0.3,1.7,1.1,1.9,2.1v-2.6c0-0.3,0-0.7,0-1.1H3.5c-0.1,0.1-0.2,0.2-0.4,0.3L3.2,72z M3.2,77.1h1.9V75
			c-0.1,0.5-0.5,0.8-1,0.9c-0.4,0-0.6-0.4-0.6-0.8c0-0.3,0.1-0.7,0.1-1.2c0.1-0.5-0.1-1.1-0.4-1.5V77.1z M6.2,88.7
			c0,1.1-0.6,1.7-1.5,1.7c-0.5-0.1-0.9-0.5-0.9-1c0-0.3,0-0.6,0.1-1.1c0.2-0.9,0-1.8-0.5-2.6c-0.1-0.1,0.1-0.2,0.2-0.1
			C5.1,85.9,6.2,87.2,6.2,88.7z M8.9,88.4c0.1,0.7-0.4,1.3-1.1,1.4c0,0-0.1,0-0.1,0c-0.6,0-1-0.5-1-1.2c0-1.3-0.6-2.5-1.6-3.4
			c-0.1-0.1,0-0.2,0.2-0.1C8.1,85.7,8.9,87,8.9,88.4L8.9,88.4z M9,70.5H7.3c0,0.1-0.1,0.2-0.4,0.4v4.3c0.2-0.8,0.4-1.8,0.5-2.4
			c0.1-0.4,0.1-0.7,0.1-1.1c0.5,0.2,1,0.5,1.4,0.8L9,70.5z M9,77.1v-4c-0.1,0-0.2,0.1-0.3,0.2c-0.5,0.7-1,1.5-1.7,2.6v1.2H9z
			 M11.6,87.6c0,0.7-0.4,1.5-1.2,1.5c-0.5,0-0.9-0.3-1-1.2c-0.1-1.3-0.9-2.5-2.2-3c-0.1-0.1,0-0.2,0.1-0.2
			C10.5,84.8,11.6,86.3,11.6,87.6L11.6,87.6z M19.2,74.9c1.4-1.8,1.6-2,1.8-2c0.2,0,0.5,0.2,1.4,1.1c0.8,0.8,0.9,0.9,0.9,1.1
			c0,0.2-0.1,0.3-0.3,0.3h-5.1v5.6h0.9c1.1-1.4,1.2-1.5,1.4-1.5c0.3,0,0.5,0.1,1.4,0.9c0.9,0.8,1.1,0.9,1.1,1.2s-0.1,0.4-0.7,0.9
			v2.4c0,1.8,0.1,3.9,0.1,4.9c0,0.7-0.8,1.1-1.9,1.1c-0.8,0-1-0.1-1-0.9v-0.8h-4.7V90c0,0.7-0.4,1.2-1.8,1.2c-0.9,0-0.9-0.1-0.9-0.9
			c0-0.4,0.1-3,0.1-6.6c0-1.2,0-2.5-0.1-3.7c2,0.6,2.7,0.8,3,1.1h0.4v-7.5c0-1.6,0-3.1-0.2-4.7c3.4,0.2,3.7,0.6,3.7,0.9
			c0,0.2-0.2,0.4-0.8,0.7v4.5H19.2z M19.2,88.7v-7.2h-4.4c-0.1,0.1-0.2,0.2-0.3,0.3v7L19.2,88.7z"/>
		<path class="st0" d="M9.9,107.3c0,4.9,0.2,8,0.2,8.6c0,0.7-0.6,1.1-1.8,1.1c-0.9,0-1.1-0.1-1.1-0.9v-1.2H4v2.3
			c0,0.7-0.6,1.1-1.7,1.1c-0.9,0-1.1-0.1-1.1-0.9c0-0.6,0.2-5.1,0.2-8c0-3.7,0-5.4-0.1-7.3c1.1,0.3,1.8,0.5,2.3,0.7
			c0.1-1.2,0.2-2.1,0.3-3.4c0-0.4,0-0.8,0-1.4c3.2,0.6,3.7,0.8,3.7,1.2c0,0.2-0.2,0.5-0.9,0.7c-0.8,1.2-1.5,2.2-2.3,3.2H7
			c1-1.2,1.1-1.3,1.3-1.3c0.3,0,0.4,0,1.3,0.8c1,0.8,1.1,1,1.1,1.2s0,0.3-0.7,0.8L9.9,107.3z M4.5,103.6c0,0.1-0.2,0.2-0.5,0.4v4.7
			h3.2v-5.1L4.5,103.6z M7.2,114.4v-5.2H4v5.2L7.2,114.4z M18.8,102.7c1.2-1.4,1.3-1.5,1.5-1.5c0.3,0,0.4,0,1.7,1.1
			c0.7,0.6,0.8,0.7,0.8,0.9c0,0.2-0.1,0.3-0.8,0.9c0,6.7-0.1,10.5-0.6,12.5c-0.3,2-2.1,3.5-4.2,3.3c-0.5,0-0.6-0.1-0.7-0.6
			c-0.4-1.3-1-2-2.8-2.4c-0.1,0-0.1-0.3,0-0.3c1.2,0.1,2.3,0.1,3.5,0c0.8,0,1.3-0.4,1.5-1.9c0.4-3.9,0.6-7.7,0.5-11.6h-4.9
			c-1.1,1.7-2.3,3.2-3.8,4.5c-0.1,0.1-0.3-0.1-0.2-0.2c1-1.5,2.1-5.1,2.6-8.3c0.1-0.6,0.2-1,0.2-1.6c3.8,1,4,1.2,4,1.5
			c0,0.3-0.2,0.4-1,0.7c-0.4,1-1,2-1.5,2.9L18.8,102.7z M13.7,111.1c-0.1-1.9-0.3-3.1-1.4-4c-0.1-0.1,0-0.2,0.1-0.2
			c3.1,0.4,4.6,2.2,4.6,3.9c0.1,1-0.6,1.9-1.6,2.1c-0.1,0-0.2,0-0.3,0C14.3,112.9,13.8,112.3,13.7,111.1z"/>
		<path class="st0" d="M7.7,132.6c1-1.3,1.1-1.4,1.3-1.4c0.2,0,0.3,0,1.4,0.9c0.8,0.6,0.9,0.7,0.9,1c0,0.2,0,0.3-0.7,0.7
			c-0.2,2.9-0.9,5.7-2,8.4c1.2,0.5,2,1.7,2.2,3c0.1,0.8-0.6,1.5-1.4,1.6c0,0,0,0-0.1,0c-0.6,0-1-0.3-1.3-1.1
			c-0.2-0.5-0.4-0.9-0.7-1.4c-1.6,2.1-3.9,3.5-7.1,4.4c-0.1,0-0.2-0.2-0.1-0.2c2.6-1.2,4.6-3.4,5.7-6c-0.4-0.4-0.9-0.8-1.4-1.1
			l-0.2,1.1c-0.1,0.6-0.6,0.9-1.5,0.9c-0.9,0-1.2-0.2-1.2-0.6c0-0.1,0-0.2,0-0.3c0.6-2.8,1.3-6.1,1.8-9.3H2.7
			c-0.8,0-1.6,0.1-2.4,0.2l-0.2-0.8c0.9,0.1,1.7,0.2,2.6,0.2h0.7c0.2-1.5,0.5-3,0.7-4.5c0.1-0.5,0.1-0.9,0.1-1.4
			c3.1,0.5,3.5,0.7,3.5,1c0,0.3-0.1,0.4-0.9,0.7c-0.2,1.4-0.5,2.8-0.7,4.2L7.7,132.6z M6,133.1c-0.5,2.8-1,5.4-1.5,7.9
			c0.6,0.1,1.2,0.2,1.8,0.3c0.9-2.6,1.5-5.4,1.6-8.2L6,133.1z M19.1,137.4c1.6-2.2,1.6-2.2,1.9-2.2s0.3,0,1.3,1.1s1,1.1,1,1.3
			c0,0.1-0.1,0.2-0.2,0.2c0,0,0,0-0.1,0h-5.3v0.7c0,4.2,0.1,6.6,0.1,7.3c0.1,1-0.5,2-1.4,2.5c-0.5,0.3-1.1,0.5-1.7,0.5
			c-0.5,0-0.6-0.2-0.8-0.6c-0.3-0.9-1-1.7-2.7-2.3c-0.1,0-0.1-0.1-0.1-0.1c0-0.1,0.1-0.1,0.1-0.1c0.9,0,1.8,0,2.6-0.1
			c0.6-0.1,0.9-0.4,0.9-1.1v-6.6h-1.5c-0.6,0-1.6,0-2.7,0.2l-0.2-0.8c1.2,0.1,2.3,0.2,3,0.2h1.5v-0.5c0-2,0-4-0.1-5.4
			c0.9,0.2,1.6,0.3,2.1,0.4c0.6-1.2,1-2.2,1.4-3.3h-4.8c-0.8,0-1.6,0.1-2.4,0.2l-0.2-0.8c0.9,0.1,1.8,0.2,2.7,0.2h4.6
			c1.2-1.4,1.3-1.4,1.5-1.4c0.3,0,0.4,0,1.8,1.2c1,0.8,1.1,0.9,1.1,1.2c0,0.3-0.1,0.4-1.3,0.7c-1.1,0.7-2.1,1.5-3.5,2.4
			c0.9,0.3,1.1,0.5,1.1,0.7c0,0.2-0.1,0.5-0.9,0.8v3.9L19.1,137.4z"/>
		<path class="st0" d="M15.1,158.3c1.4-1.6,1.5-1.7,1.7-1.7s0.3,0,1.6,1c1.2,0.9,1.2,1,1.2,1.2c0,0.2-0.1,0.4-0.8,1v5.1
			c0,7.4,0.1,9.6,0.1,10.2c0,0.7-0.6,1.2-2.2,1.2c-1.1,0-1.2-0.1-1.2-0.9v-1.8H7.6v1.8c0,0.9-0.6,1.2-2,1.2c-1,0-1.2-0.1-1.2-0.9
			c0-0.4,0.1-3.1,0.1-9.9c0-6.3,0-7.2-0.1-8.7c2.7,0.6,3.4,0.9,3.6,1.2L15.1,158.3z M7.6,165.4h7.8v-6.6H8.1
			c-0.1,0.1-0.3,0.3-0.4,0.4L7.6,165.4z M15.4,173v-7.2H7.6v7.2H15.4z"/>
		<path class="st0" d="M17.6,194.9c1.9-2.4,2.1-2.5,2.3-2.5c0.3,0,0.4,0.1,1.9,1.5c0.8,0.7,1,1.1,1,1.2s-0.1,0.3-0.3,0.3H13
			c0,3.4,0.2,6.8,0.2,7.6c0.1,1.1-0.4,2.1-1.4,2.6c-0.8,0.4-1.6,0.6-2.5,0.6c-0.4,0-0.6-0.2-0.8-0.6c-0.4-1.1-1.1-1.8-3-2.4
			c-0.1,0-0.1-0.3,0-0.3c1.1,0.1,2.2,0,3.3,0c0.8-0.1,1.1-0.5,1.1-1.1v-6.4h-6c-0.8,0-1.8,0-3.1,0.2l-0.2-0.8
			c1.6,0.1,2.5,0.2,3.4,0.2h6c0.1-1.5,0-3-0.2-4.4c1.2,0.1,2,0.2,2.7,0.3c0.9-1.3,1.8-2.8,2.7-4.3H6.3c-0.8,0-1.8,0-3.1,0.2
			l-0.2-0.8c1.6,0.1,2.5,0.2,3.4,0.2h8.5c1.4-1.5,1.5-1.5,1.8-1.5c0.3,0,0.5,0,2,1.4c1.3,1.1,1.4,1.2,1.4,1.6c0,0.4-0.1,0.4-1.7,0.7
			c-1.8,1-3.2,1.8-5,2.8c0.6,0.2,0.7,0.3,0.7,0.5c0,0.3-0.1,0.4-1.1,0.9v2.5L17.6,194.9z"/>
		<path class="st0" d="M20.1,218.7c-1.7,0-3-1.4-3-3c0-1.7,1.4-3,3-3c1.6,0,3,1.4,3,3c0,1.6-1.3,3-2.9,3
			C20.2,218.7,20.2,218.7,20.1,218.7z M20.1,213.5c-1.2,0-2.2,1-2.2,2.2c0,1.2,1,2.2,2.2,2.2c1.2,0,2.2-1,2.2-2.2
			C22.3,214.5,21.4,213.5,20.1,213.5C20.2,213.5,20.1,213.5,20.1,213.5L20.1,213.5z"/>
	</g>
</g>
</svg>
