<?xml version="1.0" encoding="utf-8"?>
<!-- Generator: Adobe Illustrator 23.0.0, SVG Export Plug-In . SVG Version: 6.00 Build 0)  -->
<svg version="1.1" id="圖層_1" xmlns="http://www.w3.org/2000/svg" xmlns:xlink="http://www.w3.org/1999/xlink" x="0px" y="0px"
	 viewBox="0 0 208.1 58.8" style="enable-background:new 0 0 208.1 58.8;" xml:space="preserve">
<style type="text/css">
	.st0{fill:#EA5514;}
</style>
<path class="st0" d="M45.5,11.7h4.1v0.7c0,0.6,0.2,0.8,0.9,0.8c1.3,0,2-0.3,2-1c0-0.2-0.1-1.9-0.1-6.5V3.3c0.6-0.6,0.7-0.6,0.7-0.8
	S53,2.1,52,1.3c-1-0.8-1.1-0.8-1.4-0.8c-0.2,0-0.3,0-1.3,1.2h-3.4c-0.2-0.3-0.9-0.5-3.3-1c0.1,1,0.1,1.8,0.1,5.5
	c0,3.9-0.1,6.1-0.1,6.5c0,0.4,0.2,0.6,1,0.6c1.2,0,1.8-0.4,1.8-1L45.5,11.7z M49.6,5.3V8h-4.1V5.3H49.6z M49.6,2.2v2.6h-4.1V2.4
	c0.1,0,0.2-0.1,0.4-0.2L49.6,2.2z M45.5,11.2V8.5h4.1v2.8L45.5,11.2z M41.5,13.5c-0.1,0-0.2,0.1-0.1,0.2c0.9,0.7,1.4,1.7,1.5,2.8
	c0,0.7,0.5,1.3,1.2,1.3c0.1,0,0.1,0,0.2,0c0.9,0,1.6-0.7,1.6-1.6c0,0,0,0,0-0.1C46,14.8,44.8,13.5,41.5,13.5z M35.1,14.5
	c0.1,1.4-0.7,2.8-2,3.4c-0.6,0.3-1,1-1,1.7c0,0.9,0.7,1.6,1.6,1.6c0,0,0.1,0,0.1,0c1.4,0,2.6-1.2,2.5-2.7c0,0,0-0.1,0-0.1
	c0-1.4-0.3-2.7-0.9-4C35.3,14.4,35.1,14.4,35.1,14.5z M38.9,4.3h3.2c0.2,0,0.2-0.1,0.2-0.3s0-0.3-0.7-1c-0.8-0.9-0.9-0.9-1.1-0.9
	s-0.3,0-1.4,1.7h-0.2V1.6c0.8-0.3,0.9-0.5,0.9-0.7c0-0.4-0.2-0.6-3.6-0.8c0.1,1.2,0.1,1.7,0.1,3.7h-1.8c-0.9,0-1.8-0.1-2.7-0.2
	l0.2,0.8c0.8-0.1,1.6-0.2,2.4-0.2h0.9c-0.6,2.4-2.5,6.1-4.1,7.4c-0.1,0.1,0,0.3,0.2,0.2C33.4,11,35,9.6,36.3,8v0.5
	c-0.1,2.7-0.1,3.9-0.1,4.4c0,0.6,0.2,0.8,1.1,0.8c1,0,1.8-0.3,1.8-0.9c0-0.4-0.1-1.4-0.1-6.5c0.6,0.6,1,1.5,1,2.3
	C40,9.3,40.4,9.6,41,9.6c0.7,0,1.3-0.5,1.3-1.2c0-0.1,0-0.1,0-0.2c0-1.2-1.1-2.4-3.4-2.4L38.9,4.3z M40.3,15.4
	c0.6-0.3,0.7-0.5,0.7-0.7c0-0.3-0.5-0.6-3.7-0.9c0.1,0.8,0.2,1.6,0.1,2.4c0,1,0,2.8,0,3.6c0,1.8,0.5,2.4,5.1,2.4c6.3,0,7-0.8,7-1.9
	c0-0.4-0.2-0.8-0.5-1.1c-0.3-0.3-0.5-0.7-0.5-1.1c0-0.5,0.1-1.4,0.2-3c0-0.1-0.2-0.2-0.2,0c-0.3,1.2-1,2.4-1.8,3.4
	c-0.7,0.7-1.4,1-4.1,1c-2.2,0-2.4-0.2-2.4-1L40.3,15.4z M49.1,14.1c-0.1,0-0.1,0-0.2,0.1c0,0.1,0,0.1,0.1,0.2l0,0
	c1.1,1,1.7,2.4,1.7,3.8c0.1,1.1,0.7,1.6,1.5,1.6c1,0,1.8-0.7,1.9-1.7c0-0.1,0-0.2,0-0.3C54.1,15.8,52.1,14.4,49.1,14.1L49.1,14.1z
	 M68.2,5c0.6-0.6,0.7-0.6,0.7-0.9c0-0.2-0.1-0.3-1-1.1c-1.1-0.9-1.1-0.9-1.4-0.9c-0.2,0-0.3,0.1-1.3,1.3h-1
	c-0.2-0.3-0.9-0.6-3.2-1.2c0.1,1.4,0.1,2.7,0.1,5.5c0,3.5-0.1,7.2-0.1,7.9c0,0.8,0.2,0.9,0.7,0.9c1.3,0,1.9-0.3,1.9-1v-2h1.8v0.5
	c0,0.7,0.2,0.9,0.8,0.9c1.5,0,2-0.4,2-1.2c0-0.6-0.1-2.4-0.1-6.3V5z M63.7,13.1V4.4c0.2-0.1,0.4-0.2,0.5-0.3h1.3v9.1H63.7z
	 M72.3,9.7c-0.9,0-1.7-0.1-2.6-0.2l0.2,0.8c0.8-0.1,1.6-0.2,2.4-0.2h2.8c-5.6,7.3-5.7,7.8-5.7,9c0,1.5,0.7,2.5,6.2,2.5
	c6.5,0,7.2-0.8,7.2-1.9c0-0.5-0.1-0.9-0.4-1.3c-0.2-0.3-0.4-0.7-0.4-1.1c0-0.3,0-1,0.1-3c0-0.1-0.1-0.2-0.2,0
	c-0.4,1.3-1,2.6-1.9,3.7c-0.6,0.6-1.5,0.8-4.1,0.8c-3.5,0-3.6-0.2-3.6-0.7s0.7-1.6,5.1-6.6c1.8-0.9,1.8-1,1.8-1.3
	c0-0.2-0.1-0.4-1.2-1.3c-1-0.8-1.1-0.9-1.4-0.9c-0.2,0-0.3,0-1.7,1.6L72.3,9.7z M72.5,5.5c0.7-1.1,1.3-2.2,1.8-3.3
	c0.9-0.3,1.1-0.4,1.1-0.8c0-0.3-0.2-0.5-4.1-1.4c-0.1,0.6-0.1,1.3-0.3,1.9c-0.5,2.9-1.4,5.6-2.6,8.2c-0.1,0.1,0.1,0.2,0.2,0.1
	C70,9,71.2,7.5,72.2,6h10.6c0.3,0,0.4-0.1,0.4-0.3S83,5.3,82.2,4.5c-1.3-1.3-1.5-1.4-1.7-1.4c-0.2,0-0.3,0.1-2.1,2.4L72.5,5.5z
	 M109.2,2.1c0.6-0.3,0.9-0.5,0.9-0.8s-1-0.6-4-1c0.2,2.3,0.3,4.6,0.2,6.9h-2.7v-5c0.6-0.3,0.8-0.5,0.8-0.9c0-0.3-0.7-0.6-3.7-1
	c0.2,2.3,0.3,4.6,0.2,6.9h-1.6c-0.8-0.9-0.9-1-1.1-1c-0.2,0-0.3,0-1.5,1.9h-0.8V4.5c0.4-0.2,0.6-0.3,0.6-0.5c0,0,0-0.1,0-0.1
	c0.7-0.1,1.4-0.2,2.1-0.3c1.2,0.1,1.6,0.1,1.6-0.3c0-0.4-0.3-0.8-2.9-2.6C97,0.8,96.7,1,96.5,1.1c-2.3,1.3-4.8,2.3-7.4,3
	c-0.1,0-0.1,0.3,0,0.3c1.4,0,2.7-0.1,4.1-0.2c0,0.6,0,1.2,0,2.3v1.7h-1.4c-0.9,0-1.8-0.1-2.6-0.2l0.2,0.8c0.8-0.1,1.6-0.2,2.4-0.2
	h1.4v4.8h-0.1c-0.9-0.5-1.9-0.9-3-1c0.1,1.2,0.1,2.1,0.1,3.7c0,2.4-0.1,4.7-0.1,5.1c0,0.8,0.2,0.9,1,0.9c1.1,0,1.8-0.4,1.8-1.2v-1.1
	h3.6v0.6c0,0.8,0.2,1,1.1,1c0.8,0,1.7-0.5,1.7-1.2c0-0.7-0.1-2.2-0.1-4v-1.2c0.7-0.6,0.7-0.6,0.7-0.8S99.7,13.6,99,13
	c-1.1-1-1.2-1-1.5-1c-0.2,0-0.3,0.1-1.4,1.5h-0.1V8.6h3.8c0.4,0,0.5-0.1,0.5-0.3c0-0.2,0-0.3-0.4-0.7h1.1V10
	c0,7.7-0.2,10.7-0.2,11.4c0,0.6,0.1,0.9,1.1,0.9c1.1,0,1.9-0.3,1.9-1.1v-1.3h2.7v1.4c0,0.8,0.2,0.9,1.2,0.9c1.4,0,1.9-0.5,1.9-1.2
	c0-1.2-0.1-3.4-0.1-11.2V7.7h2.5c0.3,0,0.4-0.1,0.4-0.3s0-0.3-0.8-1.3c-0.6-0.9-0.7-0.9-0.9-0.9c-0.1,0-0.3,0.1-1.3,2L109.2,2.1z
	 M106.3,7.7v5h-2.7v-5H106.3z M103.7,19.3v-6.2h2.7v6.2H103.7z M92.9,19.3v-5.2c0.1-0.1,0.2-0.2,0.3-0.3h3.2v5.4H92.9z M119.9,17.1
	c0,1-0.4,2-1.1,2.7c-0.6,0.6-0.8,0.9-0.8,1.3c0,0.6,0.5,1.2,1.1,1.2c0.1,0,0.1,0,0.2,0c1-0.1,1.8-1,1.7-2c0-1.1-0.2-2.2-0.8-3.1
	C120.1,17,119.9,16.9,119.9,17.1z M121.4,16.8c-0.1,0-0.3,0-0.2,0.1c0.5,0.8,0.7,1.7,0.5,2.6c0,0.5-0.1,0.8-0.1,1.1
	c0,0.5,0.4,1,0.9,1c0.9,0,1.5-0.6,1.5-1.7C123.8,18.5,122.8,17.2,121.4,16.8z M123,16.4c-0.1,0-0.3,0-0.2,0.1c1,0.8,1.6,2.1,1.6,3.4
	c0,0.7,0.3,1.2,1,1.2c0.7,0,1.2-0.6,1.2-1.3c0,0,0-0.1,0-0.1C126.6,18.3,125.7,16.9,123,16.4z M124.9,16c-0.1,0-0.2,0.1-0.1,0.2
	c1.2,0.5,2.1,1.6,2.2,3c0.1,0.9,0.6,1.2,1,1.2c0.9,0,1.2-0.7,1.2-1.5C129.3,17.5,128.2,16,124.9,16z M121.2,1.3
	c-0.8-0.5-1.6-0.9-2.5-1c0.1,0.8,0.1,1.5,0.1,3.5c0,3.3-0.1,5.4-0.1,5.9c0,0.6,0.1,0.7,0.9,0.7c0.8,0,1.3-0.2,1.3-0.9V8.9h1.7v2.8
	h-1c-0.9,0-1.8-0.1-2.7-0.2l0.2,0.8c0.8-0.1,1.6-0.2,2.4-0.2h1.1v2c-0.9,0-1.9,0.1-3,0.2c-0.5,0-1,0-1.6,0c0.7,2.9,0.9,3.3,1.2,3.3
	c0.2,0,0.4-0.1,0.5-0.6c3.2-0.9,6.3-2,9.3-3.3c0.1,0,0.1-0.1,0.1-0.1c0-0.1-0.1-0.1-0.1-0.1c-1.5,0.2-2.8,0.4-4.2,0.5v-1.8h4
	c0.2,0,0.2-0.1,0.2-0.3s-0.1-0.3-0.7-0.9c-0.9-0.9-1-0.9-1.2-0.9c-0.2,0-0.3,0.1-1.5,1.6h-0.8V8.9h1.8v0.3c0,0.6,0.1,0.8,0.6,0.8
	c1.3,0,1.7-0.3,1.7-1.1c0-0.6-0.1-2.4-0.1-4.2V2.6c0.6-0.5,0.6-0.6,0.6-0.7c0-0.2-0.1-0.3-0.9-1c-0.9-0.7-1-0.8-1.2-0.8
	c-0.2,0-0.2,0-1.1,1.2L121.2,1.3z M124.6,8.4V7.2c0.7-1.1,1.2-1.9,1.7-2.6c0.1-0.1,0.2-0.1,0.3-0.2v4H124.6z M120.8,3.6
	c0.3,0.4,0.5,1,0.4,1.5c0,0.5-0.1,0.9-0.1,1.2c0,0.4,0.2,0.8,0.6,0.8c0.5,0,0.9-0.4,1-0.9v2.1h-1.9V3.6z M120.8,2
	c0.1-0.1,0.3-0.2,0.4-0.3h1.5c0,0.4,0,0.7,0,1.1v2.6c-0.2-1-0.9-1.8-1.9-2.1V2z M126.6,3.7c-0.4-0.3-0.9-0.6-1.4-0.8
	c0,0.4-0.1,0.7-0.1,1.1c-0.1,0.6-0.3,1.6-0.5,2.4V2.1c0.2-0.2,0.3-0.2,0.4-0.4h1.7V3.7z M135.6,6.1V1.7c0.7-0.3,0.8-0.5,0.8-0.7
	c0-0.4-0.4-0.7-3.7-0.9c0.1,1.6,0.2,3.1,0.2,4.7v7.5h-0.4c-0.2-0.2-0.9-0.5-3-1.1c0.1,1.2,0.1,2.5,0.1,3.7c0,3.7-0.1,6.2-0.1,6.6
	c0,0.8,0.1,0.9,0.9,0.9c1.4,0,1.8-0.4,1.8-1.2v-0.9h4.7v0.8c0,0.8,0.1,0.9,1,0.9c1.1,0,1.9-0.4,1.9-1.1c0-0.9-0.1-3-0.1-4.9v-2.4
	c0.6-0.5,0.7-0.6,0.7-0.9c0-0.2-0.1-0.4-1.1-1.2c-0.9-0.8-1.1-0.9-1.4-0.9c-0.2,0-0.3,0.1-1.4,1.5h-0.9V6.6h5.1
	c0.2,0,0.3-0.1,0.3-0.3c0-0.2-0.1-0.3-0.9-1.1c-0.9-0.9-1.2-1.1-1.4-1.1c-0.2,0-0.4,0.1-1.8,2L135.6,6.1z M132.2,19.9v-7
	c0.1-0.1,0.2-0.2,0.3-0.3h4.4v7.2H132.2z M170.1,12.8h-24v0.8h24V12.8z M194.1,12.8h-24v0.8h24V12.8z M8,44.1h7.2v0.5
	c0,0.7,0.2,0.8,1.1,0.8c1.4,0,2.1-0.4,2.1-1.1c0-0.4-0.1-1.4-0.1-3.5v-2.2c0.6-0.5,0.6-0.5,0.6-0.7c0-0.2,0-0.3-1.1-1.1
	c-1.2-0.9-1.3-0.9-1.6-0.9c-0.3,0-0.3,0-1.5,1.3H8.4c-0.2-0.2-0.8-0.5-3.5-1C5,37.2,5,38.7,5,39.9C5,42.7,5,44.7,5,45.1
	c0,0.6,0.2,0.8,1.1,0.8c1.4,0,2-0.3,2-1V44.1z M15.1,37.7v2.7H8V38c0.1-0.1,0.3-0.2,0.4-0.3H15.1z M8,43.6v-2.8h7.2v2.8L8,43.6z
	 M13.4,51.5h7c0.1,0,0.2-0.1,0.2-0.2c0,0,0,0,0-0.1c0-0.2,0-0.3-0.9-1C18.5,49,18.5,49,18.2,49c-0.2,0-0.3,0-1.8,2h-2.9v-3.4
	c0.4-0.2,0.5-0.3,0.5-0.5h8.4c0.1,0,0.2-0.1,0.3-0.2c0,0,0,0,0,0c0-0.2-0.1-0.3-0.9-1.1c-1.3-1.3-1.4-1.3-1.6-1.3s-0.3,0-1.9,2.1
	H3.8c-0.8,0-1.7,0-3-0.2l0.2,0.8c0.9-0.1,1.8-0.2,2.7-0.2h6.5c0.1,0.8,0.1,1.6,0.1,2.5v5c-0.5-0.1-1-0.2-1.5-0.4
	c-0.9-0.3-1.6-0.9-2.1-1.7c0.5-0.7,1-1.5,1.3-2.4C8.9,49.9,9,49.8,9,49.5c0-0.3-0.2-0.5-3.7-1.7c-0.1,0.6-0.2,1-0.4,1.5
	c-1.1,4-3.3,7.5-4.9,8.7c-0.1,0.1,0,0.3,0.1,0.2c2.5-1.2,4.7-3.1,6.3-5.3c0.3,1.6,1.3,2.9,2.7,3.7c1.6,1,3.9,1.6,7.6,1.6
	c1.3,0,2.5,0,3.8-0.1c0.3,0,0.6-0.3,0.7-0.6c0.2-1.1,0.9-2.1,1.9-2.7c0.1-0.1,0.1-0.3,0-0.3c-2.2,0.3-4.5,0.4-6.7,0.4
	c-1.1,0-2.1,0-2.9,0V51.5z M51,38.9c0.2,0,0.3-0.1,0.3-0.3s-0.2-0.4-1.1-1.2c-1.4-1.2-1.5-1.3-1.7-1.3c-0.2,0-0.3,0.1-2.3,2.3H33.3
	c-0.8,0-1.8,0-3.4-0.2l0.2,0.8c1.4-0.1,2.3-0.2,3.1-0.2h7.5c-0.2,0.5-0.4,1-0.7,1.5c-2.4,4.7-7.6,10.6-11.1,12.7
	c-0.1,0.1,0,0.3,0.2,0.3c3.6-1.5,7-3.6,9.8-6.3v1.4c0,5-0.1,8.4-0.1,9.1c0,0.7,0.3,0.9,1.2,0.9c1.4,0,2.2-0.4,2.2-1.1
	c0-0.8-0.2-4.5-0.2-8.9v-3.4c0.5-0.3,0.6-0.4,0.6-0.6c0-0.2-0.1-0.3-0.7-0.5c0.9-1.1,1.7-2.3,2.4-3.5c0.7-0.1,1-0.3,1-0.6
	c0-0.2-0.2-0.6-2.1-1L51,38.9z M43.1,44.1c-0.1,0-0.1,0-0.2,0.1c0,0.1,0,0.1,0.1,0.1c2.3,1.6,4.1,3.9,5,6.6c0.4,1.2,1,1.7,1.8,1.7
	c1,0,1.8-0.7,1.8-2.2C51.7,47.8,48.2,44.7,43.1,44.1z M67.8,40.4c0,2.8-0.1,5-0.1,5.5c0,0.5,0.3,0.8,1.2,0.8c1.6,0,2-0.3,2-0.9
	c0-0.5-0.1-2.7-0.1-5.2v-0.2h6.1c-0.2,0.9-0.4,1.8-0.6,2.6c0,0.1,0,0.2,0.2,0.1c1.2-0.6,1.7-0.9,2.2-1.2c0.4-0.2,0.7-0.3,1.2-0.3
	c0.6,0,0.9-0.2,0.9-0.5c0-0.4-0.2-0.7-1.1-1.5c-1.4-1.2-1.6-1.2-1.8-1.2c-0.2,0-0.4,0.1-1.6,1.5h-5.4v-1.6c0.3-0.1,0.5-0.3,0.5-0.4
	H78c0.2,0,0.3-0.1,0.3-0.2c0-0.2,0-0.3-1-1.1c-1-0.9-1.1-0.9-1.3-0.9c-0.2,0-0.4,0-1.7,1.7H64c-0.7,0-1.6,0-2.9-0.2l0.2,0.8
	c0.9-0.1,1.7-0.2,2.6-0.2h3.7c0.1,0.7,0.1,1.3,0.1,2h-6.2c-0.2-0.5-0.4-1-0.8-1.4c-0.1-0.1-0.2-0.1-0.2,0c0,1-0.6,2-1.6,2.4
	c-0.5,0.3-0.8,0.9-0.8,1.4c0,0.8,0.6,1.4,1.3,1.4c0.1,0,0.2,0,0.2,0c1.4,0,2-1.4,2-2.7c0-0.2,0-0.5-0.1-0.7L67.8,40.4z M71.5,45.3
	c0.7-0.1,1.5-0.1,1.9-0.1h4.3c0.1,0,0.2-0.1,0.2-0.2c0-0.1,0-0.3-0.6-0.7c-0.8-0.7-1-0.8-1.1-0.8c-0.2,0-0.3,0-1.2,1.2h-1.5
	c-0.7,0-1.4,0-2.1-0.1L71.5,45.3z M75.9,42.9c0.1,0,0.2-0.1,0.2-0.2c0,0,0,0,0-0.1c0-0.1,0-0.2-0.6-0.8c-0.6-0.6-0.8-0.7-0.9-0.7
	c-0.1,0-0.2,0-1.2,1.2h-0.3c-0.6,0-1.2,0-1.8-0.1l0.2,0.7c0.7-0.1,1.2-0.1,1.6-0.1H75.9z M61,45.3c0.8-0.1,1.5-0.1,1.9-0.1h4
	c0.1,0,0.2-0.1,0.2-0.2c0,0,0,0,0-0.1c0-0.1-0.1-0.3-0.6-0.8c-0.6-0.6-0.8-0.6-0.9-0.6c-0.1,0-0.2,0-1.2,1.2h-1.5
	c-0.7,0-1.4,0-2.1-0.1L61,45.3z M66.9,42.9c0.1,0,0.2-0.1,0.2-0.2c0,0,0,0,0-0.1c0-0.1,0-0.3-0.6-0.8c-0.7-0.6-0.8-0.7-0.9-0.7
	s-0.2,0-1.2,1.2h-0.3c-0.7,0-1.4,0-2.1-0.1l0.2,0.7c0.7-0.1,1.5-0.1,1.9-0.1H66.9z M61.4,47.2c-0.8,0-1.8,0-3.1-0.2l0.2,0.8
	c0.9-0.1,1.9-0.2,2.9-0.2h5.9c-0.1,0.8-0.3,1.4-0.5,2.2h-2.7c-0.2-0.2-0.9-0.4-3.2-0.8c0.1,1.2,0.1,1.9,0.1,3c0,2.3-0.1,4.9-0.1,5.4
	c0,0.6,0.1,0.7,0.9,0.7c1.4,0,1.9-0.3,1.9-1c0-0.4,0-2.5,0-5.7v-0.9c0.1-0.1,0.3-0.2,0.4-0.4h1.5c0,0.5,0,0.9,0,1.6
	c0,2.2-0.1,4.8-0.1,5c0,0.6,0.1,0.8,0.9,0.8c1.5,0,2-0.3,2-0.9c0-0.3-0.1-2.8-0.1-4.9v-1.3c0.1-0.1,0.2-0.1,0.3-0.2h1.6
	c0,0.4,0,0.9,0,1.6c0,2.1-0.1,4.8-0.1,5c0,0.6,0.1,0.8,0.7,0.8c1.7,0,2.1-0.3,2.1-0.9v-0.5c0.7,0.2,1.2,0.8,1.4,1.5
	c0.1,0.4,0.2,0.6,0.6,0.6c0.5,0,1-0.1,1.5-0.3c0.9-0.4,1.4-1.3,1.4-2.2c0-0.3-0.1-1.3-0.1-3.5v-1.3c0.6-0.6,0.6-0.6,0.6-0.8
	c0-0.2-0.1-0.3-0.6-0.7c-1.4-1-1.5-1-1.8-1c-0.2,0-0.3,0-1.5,1.3h-6.4c0.7-0.6,1.3-1,2.2-1.7c0.6-0.1,0.7-0.2,0.7-0.5h9.2
	c0.2,0,0.3-0.1,0.3-0.2c0-0.2-0.1-0.3-1-1.1c-1-0.9-1.2-1-1.4-1c-0.2,0-0.4,0.1-1.8,1.8L61.4,47.2z M73,50.6
	c0.1-0.1,0.2-0.1,0.3-0.2h1.7v5.2c0,0.2-0.2,0.4-0.4,0.4c-0.5,0.1-1,0.1-1.5,0.1c0-1,0-2.6,0-4.1V50.6z M97.1,49.3
	c0.4-0.6,0.7-1.1,1-1.6c0.9-0.3,1.1-0.5,1.1-0.8c0-0.4-0.4-0.6-2.8-1.3h7.4v0.3c0,0.7,0.2,0.9,1.2,0.9c1.4,0,2-0.4,2-1.1
	c0-0.2-0.1-1.7-0.1-2.9v-0.5c0.6-0.5,0.7-0.6,0.7-0.8c0-0.2,0-0.3-0.9-1c-1.2-0.9-1.3-0.9-1.5-0.9c-0.2,0-0.3,0-1.5,1.4h-1.9v-2.2
	c0.2-0.1,0.3-0.2,0.4-0.4h6.9c0.1,0,0.2-0.1,0.3-0.2c0,0,0,0,0-0.1c0-0.2-0.1-0.3-1-1.2c-1.2-1-1.2-1.1-1.5-1.1s-0.3,0-1.9,2H91
	c-1.3,0-2.6,0-3.9-0.2l0.2,0.8c1.2-0.1,2.4-0.2,3.7-0.2h3.3v2.6h-1.6c-0.1-0.3-0.8-0.5-3.3-1.1c0.1,1,0.1,2.1,0.1,3.4
	c0,1.2-0.1,2.7-0.1,3c0,0.7,0.2,0.8,0.9,0.8c1.3,0,1.9-0.3,1.9-1.3v-0.1h3.6c-0.1,0.4-0.3,0.7-0.5,1c-0.5,0.9-1,1.8-1.6,2.7h-3.6
	c-1.1,0-2.1-0.1-3.2-0.2l0.2,0.8c1-0.1,2-0.2,3-0.2h3.3c-0.8,1.2-1.7,2.5-2.8,3.9c-0.1,0.1-0.2,0.3-0.3,0.5c0,0.4,1,0.6,2,0.6
	c0.6,0,1.1-0.2,1.4-0.7l0.7-1c1.1,0.3,2.1,0.6,3.1,1c-2.3,2.3-5.7,3.6-10,4c-0.1,0-0.1,0.2,0,0.2c5.7,0.2,9.6-0.8,12.3-3.1
	c1.2,0.7,2.3,1.4,3.4,2.4c0.5,0.5,1.1,0.8,1.8,0.8c0.8,0,1.5-0.6,1.6-1.5c0-0.9-0.4-1.4-1.4-2c-1.2-0.7-2.4-1.2-3.7-1.4
	c0.6-0.7,1.1-1.5,1.5-2.3c0.9-0.3,1.1-0.4,1.1-0.7c0-0.2-0.3-0.5-1.8-0.8h6.8c0.2,0,0.3-0.1,0.3-0.3c0-0.2-0.1-0.3-1-1.2
	c-1.2-1.1-1.3-1.2-1.6-1.2c-0.2,0-0.4,0.1-2,2.1H97.1z M100.1,49.7c-0.2,0.5-0.4,1-0.6,1.5c-0.3,0.6-0.6,1.2-1.1,1.8
	c-1.2-0.1-2.4-0.2-3.8-0.3c0.7-1,1.4-2,2-3H100.1z M92.2,41.7c0.1-0.1,0.3-0.2,0.4-0.3h1.7v3.7h-2.1L92.2,41.7z M96.9,38.6
	c0.2-0.1,0.3-0.2,0.4-0.3H99v2.6h-2.1V38.6z M103.8,41.4v3.7h-2.1v-3.7H103.8z M96.9,45.1v-3.7H99v3.7H96.9z M121.2,45.3h2.8
	c0.2,0,0.3-0.1,0.3-0.2c0-0.1,0-0.2-0.7-1c-0.7-0.8-0.8-0.9-1-0.9c-0.2,0-0.2,0-1.3,1.6v-5.6c0.4-0.2,0.6-0.3,0.6-0.6h2.4
	c0.1,0,0.3-0.1,0.3-0.2c0,0,0,0,0,0c0-0.1-0.1-0.2-0.7-0.9c-1-1-1.1-1.1-1.2-1.1s-0.2,0-1.6,1.7h-2.5c-0.9,0-1.9-0.1-2.8-0.2
	l0.2,0.8c0.8-0.1,1.7-0.2,2.5-0.2c0.1,0.7,0.1,1.5,0.1,2.2v3.9c-0.9,0-1.7-0.1-2.6-0.2l0.2,0.8c0.8-0.1,1.6-0.2,2.4-0.2v5.9
	l-1.4,0.2c-0.5,0.1-1,0.1-1.5,0.1c1.2,3.8,1.5,4,1.9,4c0.2,0,0.4-0.2,0.5-1c2.5-1.2,4.8-2.6,7.1-4.1c0.1-0.1,0-0.3-0.1-0.3
	c-1.2,0.3-2.4,0.5-3.7,0.7L121.2,45.3z M131.9,56.9v-4.4h5.5c0.1,0,0.2,0,0.2-0.2s0-0.3-0.9-1.1c-1.1-1-1.3-1.1-1.5-1.1
	c-0.2,0-0.4,0.1-1.8,1.9h-1.6v-4.4h1.8v0.5c0,0.7,0.2,0.9,1,0.9c1.5,0,2-0.5,2-1.2c0-0.5-0.1-2.9-0.1-5.8v-2.8
	c0.7-0.6,0.8-0.7,0.8-0.9c0-0.2-0.1-0.3-1-1.1c-1.2-1-1.3-1-1.6-1c-0.2,0-0.3,0-1.4,1.2h-5.6c-0.2-0.2-0.9-0.5-3.2-1
	c0.1,1.4,0.1,2.3,0.1,4.6c0,4.3-0.1,7-0.1,7.4c0,0.7,0.2,0.9,1.1,0.9c1.2,0,1.7-0.3,1.7-1.2v-0.5h1.7v4.4h-2.2
	c-0.9,0-1.8-0.1-2.6-0.2l0.2,0.8c0.8-0.1,1.6-0.2,2.4-0.2h2.2v4.4h-5.2c-0.7,0-1.8,0-3-0.2l0.2,0.8c1.1-0.1,2.2-0.2,2.7-0.2h14.4
	c0.1,0,0.2-0.1,0.2-0.2c0,0,0,0,0-0.1c0-0.2-0.1-0.3-1-1.2c-1.2-1.1-1.3-1.1-1.5-1.1s-0.3,0-1.8,2L131.9,56.9z M127.3,47.2v-4.3h1.7
	v4.3L127.3,47.2z M131.9,38.4c0.3-0.2,0.4-0.3,0.4-0.5h1.4v4.5h-1.8V38.4z M129,37.9c0,0.3,0,0.7,0,1.2v3.3h-1.7v-4.1
	c0.2-0.1,0.3-0.2,0.4-0.4L129,37.9z M131.9,47.2v-4.3h1.8v4.3L131.9,47.2z M157.1,41.9v-4c0.6-0.3,0.8-0.5,0.8-0.7
	c0-0.4-0.3-0.6-4.1-0.9c0.1,1.3,0.1,2.9,0.1,5.5v0.1H150c-0.2-0.3-1-0.6-3.6-1.1c0.1,1.3,0.1,2.9,0.1,6.5c0,5.3-0.2,9.7-0.2,10.3
	c0,0.8,0.2,0.9,1,0.9c1.5,0,2.1-0.5,2.1-1.2v-1.1h12.3v1.1c0,0.7,0.1,0.9,1.2,0.9c1.4,0,2.1-0.5,2.1-1.2c0-0.6-0.1-4.3-0.1-9.4v-4.3
	c0.6-0.4,0.7-0.6,0.7-0.8s-0.2-0.4-1-1c-1.2-0.9-1.4-1-1.6-1c-0.2,0-0.3,0.1-1.6,1.4L157.1,41.9z M157.1,55.7v-6.9h4.7v6.9
	L157.1,55.7z M149.5,48.8h4.5v6.9h-4.5V48.8z M153.9,48.3h-4.5v-5.7c0.2-0.1,0.4-0.2,0.5-0.3h3.9V48.3z M161.7,42.3v6h-4.7v-6H161.7
	z M182.8,43.2c0.7-0.5,0.7-0.6,0.7-0.8c0-0.2-0.1-0.3-1.1-1.2c-0.9-0.8-1-0.8-1.3-0.8c-0.2,0-0.3,0.1-1.3,1.3h-2.6
	c0.8-1.1,1.5-2.1,2.3-3.2c0.7-0.2,0.9-0.5,0.9-0.7c0-0.4-0.5-0.6-3.7-1.2c0,0.7,0,1,0,1.4c-0.1,1.2-0.2,2.2-0.3,3.4
	c-0.5-0.2-1.2-0.4-2.3-0.7c0.1,1.8,0.1,3.6,0.1,7.3c0,2.9-0.2,7.3-0.2,8c0,0.8,0.2,0.9,1.1,0.9c1.1,0,1.7-0.3,1.7-1.1v-2.3h3.2v1.2
	c0,0.8,0.2,0.9,1.1,0.9c1.2,0,1.8-0.3,1.8-1.1c0-0.6-0.2-3.7-0.2-8.6L182.8,43.2z M176.9,52.9v-5.2h3.2v5.2H176.9z M180.1,42.1v5.1
	h-3.2v-4.7c0.3-0.2,0.5-0.3,0.5-0.4L180.1,42.1z M188,51.3c1,0,1.9-0.8,1.9-1.8c0-0.1,0-0.2,0-0.3c0-1.8-1.4-3.5-4.6-3.9
	c-0.1,0-0.2,0.1-0.1,0.2c1.1,0.9,1.3,2.1,1.4,4C186.7,50.8,187.2,51.3,188,51.3L188,51.3z M187.4,41.1c0.6-0.9,1.1-1.9,1.5-2.9
	c0.8-0.2,1-0.4,1-0.7c0-0.4-0.2-0.6-4-1.5c0,0.6-0.1,1-0.2,1.6c-0.6,3.2-1.6,6.8-2.6,8.3c-0.1,0.1,0.1,0.3,0.2,0.2
	c1.5-1.3,2.8-2.8,3.8-4.5h4.9c0.1,3.9,0,7.8-0.5,11.6c-0.2,1.5-0.7,1.8-1.5,1.9c-1.2,0.1-2.3,0.1-3.5,0c-0.1,0-0.1,0.2,0,0.3
	c1.8,0.5,2.5,1.2,2.8,2.4c0.1,0.5,0.2,0.6,0.7,0.6c2,0.2,3.9-1.2,4.2-3.3c0.5-2,0.6-5.9,0.6-12.5c0.7-0.6,0.8-0.6,0.8-0.9
	c0-0.3-0.1-0.4-0.8-0.9c-1.3-1.1-1.4-1.1-1.7-1.1c-0.3,0-0.3,0-1.5,1.5H187.4z M208.1,55.8c0-1.7-1.3-3-3-3c-1.7,0-3,1.3-3,3
	c0,1.7,1.3,3,3,3c0,0,0,0,0,0c1.6,0,3-1.2,3-2.9C208.1,55.8,208.1,55.8,208.1,55.8z M207.2,55.8c0,1.2-1,2.2-2.2,2.2s-2.2-1-2.2-2.2
	c0-1.2,1-2.2,2.2-2.2l0,0C206.3,53.6,207.2,54.5,207.2,55.8C207.2,55.7,207.2,55.7,207.2,55.8z"/>
</svg>
