<?xml version="1.0" encoding="utf-8"?>
<!-- Generator: Adobe Illustrator 23.0.0, SVG Export Plug-In . SVG Version: 6.00 Build 0)  -->
<svg version="1.1" id="圖層_1" xmlns="http://www.w3.org/2000/svg" xmlns:xlink="http://www.w3.org/1999/xlink" x="0px" y="0px"
	 viewBox="0 0 189.1 58.5" style="enable-background:new 0 0 189.1 58.5;" xml:space="preserve">
<style type="text/css">
	.st0{fill:#EA5514;}
</style>
<path class="st0" d="M35.3,1.1c0.8,0.5,1,1.5,1,3c-0.1,0.7,0.5,1.3,1.2,1.4c0.1,0,0.1,0,0.2,0c1,0,1.7-0.9,1.7-1.9c0,0,0,0,0-0.1
	c0-1.4-1.5-2.6-4-2.8C35.3,0.9,35.2,1,35.3,1.1z M36.7,15.9c0,1-0.5,1.9-1.4,2.5c-0.4,0.3-0.7,0.8-0.7,1.3c0,0.8,0.7,1.4,1.4,1.4
	c0,0,0.1,0,0.1,0c1.1-0.1,2-1,1.9-2.2c0-1.1-0.4-2.2-1.2-3C36.8,15.7,36.7,15.8,36.7,15.9z M38.7,15.6c-0.1,0-0.2,0-0.1,0.2
	c0.4,1,0.5,2.1,0.3,3.1c-0.1,0.6,0.3,1.2,0.9,1.2c0.1,0,0.1,0,0.2,0c0.8,0,1.5-0.7,1.5-1.5C41.5,17.6,40.8,16.2,38.7,15.6z M44.8,18
	c0-1.3-1-2.4-3.1-2.7c-0.1,0-0.2,0.1-0.1,0.2c0.6,0.8,0.9,1.8,0.7,2.8c-0.1,0.6,0.3,1.1,0.9,1.1c0.1,0,0.1,0,0.2,0
	C44.1,19.3,44.8,18.7,44.8,18z M45.5,17.6c0,0.6,0.5,1.1,1.1,1c0,0,0,0,0.1,0c0.7,0,1.3-0.6,1.3-1.3c0-1.5-1.3-2.2-3.3-2.4
	c-0.1,0-0.2,0.1-0.1,0.2C45.3,15.6,45.4,16.5,45.5,17.6L45.5,17.6z M48.7,13.8c0.3-0.9,0.5-1.7,0.7-2.5c0.6-0.4,0.7-0.5,0.7-0.7
	c0-0.2-0.1-0.3-0.9-0.9c-0.9-0.7-1.1-0.8-1.3-0.8c-0.2,0-0.3,0-1.3,1.1h-0.4c0.3-0.9,0.7-2,0.9-2.7C47.9,6.8,48,6.7,48,6.5
	s0-0.3-0.9-0.9c-1-0.7-1.1-0.8-1.3-0.8c-0.2,0-0.3,0.1-1.4,1.2h-1.5c0.4-1.1,0.8-2.2,1.1-3.4c0.9-0.2,1.1-0.4,1.1-0.8
	c0-0.4-0.4-0.7-4-1.8c-0.1,1.1-0.3,2.2-0.6,3.2C40.3,4.2,40,5.1,39.8,6h-3.6c-1,0-2.1-0.1-3.1-0.2l0.2,0.8c0.9-0.1,1.9-0.2,2.8-0.2
	h3.4c-0.8,2.3-1.9,4.6-3.2,6.7c-1.5,2.5-3.6,4.7-6.1,6.3c-0.1,0.1,0,0.3,0.1,0.2c2.9-1.2,5.5-3,7.6-5.4H49c-0.1,1.6-0.5,3.1-1.1,4.6
	c-0.3,0.5-0.9,0.9-1.6,0.8c-0.7,0-1.3,0.1-2.6,0c-0.1,0-0.1,0.2,0,0.3c1.8,0.6,2.1,1,2.4,2.1c0.1,0.5,0.3,0.6,0.9,0.6
	c1.1,0.1,2.2-0.3,3-1.1c0.7-0.8,1.3-2.7,1.8-5.9c0.7-0.5,0.8-0.6,0.8-0.8c0-0.2-0.1-0.4-1.1-1.2c-1.1-0.9-1.2-0.9-1.4-0.9
	c-0.2,0-0.3,0-1.3,1.1L48.7,13.8z M44.4,6.5c-0.2,0.9-0.6,2.1-1.1,3.5H41c0.6-1.1,1.2-2.3,1.6-3.5H44.4z M46.7,10.5
	c-0.2,0.9-0.6,2-0.9,3.3h-7.4c0.9-1,1.7-2.2,2.4-3.3L46.7,10.5z M62.9,16.2c0,3.3-0.1,5-0.1,5.6c0,0.6,0.1,0.8,1.1,0.8
	c1.4,0,2.1-0.4,2.1-1c0-0.6,0-2.1,0-7.9V8.3c0.6-0.2,0.7-0.4,0.7-0.6c0-0.3-0.3-0.5-1.8-1c0.9-1.2,1.7-2.5,2.4-3.9
	c0.9-0.2,1.1-0.4,1.1-0.7s-0.3-0.6-3.8-2c-0.1,0.6-0.3,1.2-0.5,1.7c-1.6,4.6-3.6,8.5-5.3,10.4c-0.1,0.1,0.1,0.3,0.2,0.2
	c1.4-1,2.8-2.2,3.9-3.5L62.9,16.2z M75.5,9.2V1.8c0.6-0.4,0.9-0.5,0.9-0.8c0-0.3-0.3-0.6-4.2-0.9c0.1,1.3,0.1,2,0.1,9.1h-2.8
	c-0.7,0-1.8,0-3-0.2l0.2,0.8c1.1-0.1,2.2-0.2,2.7-0.2h2.8c0,7.5-0.2,11.4-0.2,12.1c0,0.8,0.2,0.9,1.3,0.9c1.5,0,2.1-0.3,2.1-1
	c0-0.6-0.1-4.8-0.1-11.9h6.3c0.2,0,0.3-0.1,0.3-0.3s0-0.3-0.9-1.2c-1.4-1.4-1.5-1.4-1.8-1.4c-0.2,0-0.3,0.1-2,2.4L75.5,9.2z
	 M103.2,6.6v1.1c-0.7-0.2-1.5-0.3-2.3-0.4c0,0.3,0.1,0.6,0,0.9c0.1,1.5-0.4,3-1.3,4.3c-0.4-0.1-1-0.2-1.6-0.4c0,0.3-0.1,0.6-0.2,0.8
	c-0.2,0.8-0.4,1.4-0.7,2.1c-1.1-0.3-2.2-0.3-3.3-0.1c-0.1,0-0.2,0.2,0,0.2c1.2,0.5,2.1,1.6,2.4,2.8c0.2,0.5,0.7,0.9,1.2,0.8
	c0.9,0,1.7-0.7,1.7-1.6c0-0.6-0.3-1.2-0.9-1.6c0.7-0.5,1.4-1,2.2-1.5c0.9-0.1,1.2-0.3,1.2-0.6c0-0.2-0.2-0.4-1.6-0.8
	c1.5-0.9,2.6-2.4,2.8-4.1c0.1,0,0.2-0.1,0.3-0.1c0,2.2-0.1,3.5-0.1,3.7c0,0.6,0.1,0.7,0.8,0.7c1,0,1.5-0.3,1.5-0.8
	c0-0.3-0.1-2.2-0.1-5.4h4.5c0.2,0,0.3-0.1,0.3-0.2c0-0.2-0.1-0.3-0.8-0.9c-0.8-0.8-1-0.8-1.2-0.8c-0.2,0-0.3,0.1-1.4,1.5h-1.4V5.2
	c0.4-0.2,0.5-0.3,0.5-0.5c0-0.3-0.4-0.4-2.8-0.6c0.1,0.7,0.1,1.4,0.1,2h-1.8c-0.1-0.1-0.3-0.3-0.7-0.7c-0.8-0.7-0.8-0.7-1-0.7
	c-0.2,0-0.3,0.1-1.3,1.4h-0.6V5.2c0.4-0.2,0.5-0.3,0.5-0.5c0-0.3-0.4-0.4-2.7-0.6c0.1,0.7,0.1,1.4,0.1,2h-0.4
	c-0.9,0-1.8-0.1-2.6-0.2l0.2,0.8c0.8-0.1,1.6-0.2,2.4-0.2h0.4v1.2c-0.8-0.3-1.6-0.4-2.4-0.5c0,0.3,0.1,0.6,0,0.9
	c0.1,1.6-0.2,3.2-1.1,4.6c0.1-1.1,0.1-2.4,0.1-4V4c0.2-0.1,0.3-0.2,0.5-0.3H110c0.2,0,0.3-0.1,0.3-0.2c0-0.2,0-0.3-0.9-1.1
	c-1.3-1.2-1.4-1.2-1.6-1.2s-0.3,0.1-2,2.1h-4.7V1.7c0.9-0.4,1-0.5,1-0.8c0-0.4-0.5-0.6-4.2-0.9C97.9,0.9,98,1.7,98,2.6v0.6h-5.1
	c-0.1-0.3-0.8-0.5-3.5-1.1c0.2,1.9,0.2,3.5,0.2,7.3c0.1,3.1,0,6.1-0.5,9.1c-0.2,1.4-0.7,2.7-1.4,3.9c0,0.1,0,0.1,0,0.2
	c0,0,0.1,0,0.2,0c1.4-1.2,2.4-2.7,3.1-4.4c0.6-1.6,1-3.3,1.1-4.9c1.8-0.9,3-2.7,3.1-4.7c0.2-0.1,0.3-0.2,0.5-0.3
	c0,2.2-0.1,3.6-0.1,3.8c0,0.6,0.1,0.7,0.8,0.7c1,0,1.4-0.3,1.4-0.8c0-0.3-0.1-2.2-0.1-5.3L103.2,6.6z M100.2,8.4
	c0.4-0.2,0.5-0.3,0.5-0.4c0-0.2-0.2-0.3-2.3-0.6c0,0.4,0,0.9,0,1.6c0,1,0,1.6,0,2c0,0.4,0.2,0.6,0.6,0.6c0.8,0,1.2-0.1,1.2-0.7V8.4z
	 M104,17.3c-0.1,0-0.1,0-0.1,0.1c0,0.1,0,0.1,0.1,0.1c0.7,0.4,1.3,0.9,1.7,1.7c-1.9,0-3.6,0-5.4,0c1.8-1.2,3-2.2,4.7-3.5
	c0.9-0.1,1.2-0.2,1.2-0.5c0-0.4-0.2-0.5-3.6-1.8c-0.2,0.4-0.4,0.9-0.6,1.3c-0.8,1.6-1.7,3.1-2.8,4.5c-1.8,0-3.6,0-5.7-0.1
	c-0.8,0-1.2,0-1.9-0.1c1,3.4,1.2,3.6,1.5,3.6c0.2,0,0.3-0.1,0.6-0.6c5.7-0.9,8.3-1.3,12.4-2.1c0.2,0.4,0.3,0.8,0.4,1.3
	c0.1,0.7,0.7,1.2,1.4,1.2c1,0,1.8-0.8,1.8-1.7c0,0,0,0,0-0.1C109.7,19.1,108.1,17.3,104,17.3z M107.9,8.5c0.5-0.2,0.6-0.3,0.6-0.5
	c0-0.2-0.5-0.4-2.5-0.5c0,0.6,0,1.1,0,1.8c0,1,0,1.7,0,2.1c0,0.5,0.3,0.9,2.2,0.9c2,0,2.6-0.5,2.6-1c0-0.3-0.1-0.6-0.4-0.8
	c-0.2-0.2-0.3-0.4-0.3-0.6c0-0.3,0-0.8,0.1-1.6c0-0.1-0.1-0.2-0.2,0c-0.2,0.6-0.5,1.3-0.8,1.9c-0.2,0.4-0.4,0.4-0.9,0.4
	s-0.5-0.1-0.5-0.4L107.9,8.5z M140.3,12.9h-24v0.8h24V12.9z M164.3,12.9h-24v0.8h24V12.9z M0.2,47.6c1.4-0.1,2.3-0.2,3.1-0.2h17.7
	c0.2,0,0.3-0.1,0.3-0.3s0-0.2-1.3-1.5c-1.3-1.3-1.4-1.4-1.7-1.4c-0.2,0-0.3,0-2.2,2.5H3.4c-0.8,0-1.8,0-3.4-0.2L0.2,47.6z
	 M46.3,40.4c-0.2,0.8-0.4,1.4-0.8,2.5c0,0.1,0,0.2,0.2,0.1c0.9-0.4,1.3-0.5,1.8-0.7c0.6-0.2,1.2-0.3,1.8-0.2c0.9,0,1.1-0.3,1.1-0.7
	c0-0.4-0.3-0.8-1.2-1.7c-1.2-1.1-1.4-1.2-1.7-1.2c-0.3,0-0.4,0.1-1.7,1.4h-4.9v-2.2c0.9-0.4,1-0.5,1-0.8c0-0.4-0.5-0.6-4.3-0.9
	c0.1,0.7,0.1,1.3,0.1,2v1.9h-5.5c-0.3-0.5-0.6-1-1-1.5c-0.1-0.1-0.3-0.1-0.3,0c0.2,1-0.3,2.1-1.2,2.6c-0.6,0.3-1,1-1,1.7
	c0,0.8,0.6,1.5,1.4,1.5c0.1,0,0.1,0,0.2,0c1.3,0,2.3-1,2.3-2.3c0,0,0-0.1,0-0.1c0-0.5-0.1-1-0.2-1.5L46.3,40.4z M40.9,50h5.9
	c0.1,0,0.2-0.1,0.2-0.2c0,0,0,0,0-0.1c0-0.2-0.2-0.5-0.9-1.1c-1.3-1.2-1.4-1.3-1.6-1.3s-0.3,0.1-1.8,2.1h-1.8v-4.4
	c0.4-0.2,0.5-0.3,0.5-0.5h4.8c0.2,0,0.4-0.1,0.4-0.3s-0.1-0.4-0.9-1.1c-1.1-1.1-1.2-1.1-1.4-1.1s-0.2,0-1.7,1.9h-7.9
	c-0.7,0-1.8,0-3-0.2l0.2,0.8c1.1-0.1,2.2-0.2,2.7-0.2h3c0.1,0.8,0.1,1.6,0.1,2.4v6.5c-0.4-0.2-0.7-0.4-1-0.7
	c-0.8-0.7-1.5-1.6-1.9-2.6c0.2-0.7,0.3-1.3,0.4-2c0.6-0.2,0.8-0.4,0.8-0.6c0-0.4-0.5-0.6-3.9-1.3c0,0.5,0,0.9,0,1.5
	c-0.3,5.2-2,8.9-4,10.5c-0.1,0.1,0,0.2,0.1,0.2c3-1.6,5.3-4.2,6.4-7.5c0.3,1.8,1.1,3.5,2.4,4.8c1.5,1.4,3.4,2.3,7.4,2.3
	c1.2,0,2.4,0,3.6-0.1c0.3,0,0.6-0.3,0.7-0.6c0.1-1.1,0.8-2.2,1.8-2.7c0.1-0.1,0.1-0.3,0-0.3c-2.2,0.3-4.3,0.4-6.5,0.4
	c-1,0-2.1-0.1-3.1-0.2L40.9,50z M67.2,49.3c0.4-0.6,0.7-1.1,1-1.6c0.9-0.3,1.1-0.5,1.1-0.8c0-0.4-0.4-0.6-2.8-1.3H74v0.3
	c0,0.7,0.2,0.9,1.2,0.9c1.4,0,2-0.4,2-1.1c0-0.2-0.1-1.7-0.1-2.9v-0.5c0.6-0.5,0.7-0.6,0.7-0.8c0-0.2,0-0.3-0.9-1
	c-1.2-0.9-1.3-0.9-1.5-0.9c-0.2,0-0.3,0-1.5,1.4h-1.9v-2.2c0.2-0.1,0.3-0.2,0.4-0.4h6.9c0.1,0,0.2-0.1,0.3-0.2c0,0,0,0,0-0.1
	c0-0.2-0.1-0.3-1-1.2c-1.2-1-1.2-1.1-1.5-1.1s-0.3,0-1.9,2H61.2c-1.3,0-2.6,0-3.9-0.2l0.2,0.8c1.2-0.1,2.4-0.2,3.7-0.2h3.3V41h-1.6
	c-0.1-0.3-0.8-0.5-3.3-1.1c0.1,1,0.1,2.1,0.1,3.4c0,1.2-0.1,2.7-0.1,3c0,0.7,0.2,0.8,0.9,0.8c1.3,0,1.9-0.3,1.9-1.3v-0.1h3.6
	c-0.1,0.4-0.3,0.7-0.5,1c-0.5,0.9-1,1.8-1.6,2.7h-3.6c-1.1,0-2.1-0.1-3.2-0.2l0.2,0.8c1-0.1,2-0.2,3-0.2h3.3
	c-0.8,1.2-1.7,2.5-2.8,3.9c-0.1,0.1-0.2,0.3-0.3,0.5c0,0.4,1,0.6,2,0.6c0.6,0,1.1-0.2,1.4-0.7l0.7-1c1.1,0.3,2.1,0.6,3.1,1
	c-2.3,2.3-5.7,3.6-10,4c-0.1,0-0.1,0.2,0,0.2c5.7,0.2,9.6-0.8,12.3-3.1c1.2,0.7,2.3,1.4,3.4,2.4c0.5,0.5,1.1,0.8,1.8,0.8
	c0.8,0,1.5-0.6,1.6-1.5c0-0.9-0.4-1.4-1.4-2c-1.2-0.7-2.4-1.2-3.7-1.4c0.6-0.7,1.1-1.5,1.5-2.3c0.9-0.3,1.1-0.4,1.1-0.7
	c0-0.2-0.3-0.5-1.8-0.8h6.8c0.2,0,0.3-0.1,0.3-0.3c0-0.2-0.1-0.3-1-1.2c-1.2-1.1-1.3-1.2-1.6-1.2s-0.4,0.1-2,2.1L67.2,49.3z
	 M70.3,49.8c-0.2,0.5-0.4,1-0.6,1.5c-0.3,0.6-0.6,1.2-1.1,1.8c-1.2-0.1-2.4-0.2-3.8-0.3c0.7-1,1.4-2,2-3H70.3z M62.3,41.8
	c0.1-0.1,0.3-0.2,0.4-0.3h1.7v3.7h-2.1L62.3,41.8z M67.1,38.7c0.2-0.1,0.3-0.2,0.4-0.3h1.8V41h-2.1V38.7z M74,41.4v3.7h-2.1v-3.7H74
	z M67.1,45.1v-3.7h2.1v3.7H67.1z M93.6,41.1c0.6-0.6,0.7-0.6,0.7-0.9c0-0.2-0.1-0.3-1-1.1c-1.1-0.9-1.1-0.9-1.4-0.9
	c-0.2,0-0.3,0.1-1.3,1.3h-1c-0.2-0.3-0.9-0.6-3.2-1.2c0.1,1.4,0.1,2.7,0.1,5.5c0,3.5-0.1,7.2-0.1,7.9c0,0.8,0.2,0.9,0.7,0.9
	c1.3,0,1.9-0.3,1.9-1v-2h1.8v0.5c0,0.7,0.2,0.9,0.8,0.9c1.5,0,2-0.4,2-1.2c0-0.6-0.1-2.4-0.1-6.3V41.1z M89.1,49.2v-8.7
	c0.2-0.1,0.4-0.2,0.5-0.3h1.3v9.1H89.1z M97.7,45.8c-0.9,0-1.7-0.1-2.6-0.2l0.2,0.8c0.8-0.1,1.6-0.2,2.4-0.2h2.8
	c-5.6,7.3-5.7,7.8-5.7,9c0,1.5,0.7,2.5,6.2,2.5c6.5,0,7.2-0.8,7.2-1.9c0-0.5-0.1-0.9-0.4-1.3c-0.2-0.3-0.4-0.7-0.4-1.1
	c0-0.3,0-1,0.1-3c0-0.1-0.1-0.2-0.2,0c-0.4,1.3-1,2.6-1.9,3.7c-0.6,0.6-1.5,0.8-4.1,0.8c-3.5,0-3.6-0.2-3.6-0.7s0.7-1.6,5.1-6.6
	c1.8-0.9,1.8-1,1.8-1.3c0-0.2-0.1-0.4-1.2-1.3c-1-0.8-1.1-0.9-1.4-0.9c-0.2,0-0.3,0-1.7,1.6L97.7,45.8z M97.8,41.6
	c0.7-1.1,1.3-2.2,1.8-3.3c0.9-0.3,1.1-0.4,1.1-0.8c0-0.3-0.2-0.5-4.1-1.4c-0.1,0.6-0.1,1.3-0.3,1.9c-0.5,2.9-1.4,5.6-2.6,8.2
	c-0.1,0.1,0.1,0.2,0.2,0.1c1.3-1.3,2.5-2.7,3.5-4.2h10.6c0.3,0,0.4-0.1,0.4-0.3s-0.1-0.4-0.9-1.2c-1.3-1.3-1.5-1.4-1.7-1.4
	c-0.2,0-0.3,0.1-2.1,2.4L97.8,41.6z M134.6,38.2c0.6-0.3,0.9-0.5,0.9-0.8s-1-0.6-4-1c0.2,2.3,0.3,4.6,0.2,6.9H129v-5
	c0.6-0.3,0.8-0.5,0.8-0.9c0-0.3-0.7-0.6-3.7-1c0.2,2.3,0.3,4.6,0.2,6.9h-1.6c-0.8-0.9-0.9-1-1.1-1c-0.2,0-0.3,0-1.5,1.9h-0.8v-3.7
	c0.4-0.2,0.6-0.3,0.6-0.5c0,0,0-0.1,0-0.1c0.7-0.1,1.4-0.2,2.1-0.3c1.2,0.1,1.6,0.1,1.6-0.3c0-0.4-0.3-0.8-2.9-2.6
	c-0.2,0.2-0.5,0.4-0.7,0.5c-2.3,1.3-4.8,2.3-7.4,3c-0.1,0-0.1,0.3,0,0.3c1.4,0,2.7-0.1,4.1-0.2c0,0.6,0,1.2,0,2.3v1.7h-1.4
	c-0.9,0-1.8-0.1-2.6-0.2l0.2,0.8c0.8-0.1,1.6-0.2,2.4-0.2h1.4v4.8h-0.1c-0.9-0.5-1.9-0.9-3-1c0.1,1.2,0.1,2.1,0.1,3.7
	c0,2.4-0.1,4.7-0.1,5.1c0,0.8,0.2,0.9,1,0.9c1.1,0,1.8-0.4,1.8-1.2v-1.1h3.6v0.6c0,0.8,0.2,1,1.1,1c0.8,0,1.7-0.5,1.7-1.2
	c0-0.7-0.1-2.2-0.1-4V51c0.7-0.6,0.7-0.6,0.7-0.8s-0.1-0.4-0.9-1.1c-1.1-1-1.2-1-1.5-1c-0.2,0-0.3,0.1-1.4,1.5h-0.1v-4.8h3.8
	c0.4,0,0.5-0.1,0.5-0.3c0-0.2,0-0.3-0.4-0.7h1.1v2.3c0,7.7-0.2,10.7-0.2,11.4c0,0.6,0.1,0.9,1.1,0.9c1.1,0,1.9-0.3,1.9-1.1v-1.3h2.7
	v1.4c0,0.8,0.2,0.9,1.2,0.9c1.4,0,1.9-0.5,1.9-1.2c0-1.2-0.1-3.4-0.1-11.2v-2.2h2.5c0.3,0,0.4-0.1,0.4-0.3c0-0.2,0-0.3-0.8-1.3
	c-0.6-0.9-0.7-0.9-0.9-0.9s-0.3,0.1-1.3,2L134.6,38.2z M131.7,43.8v5H129v-5H131.7z M129,55.4v-6.2h2.7v6.2H129z M118.2,55.4v-5.2
	c0.1-0.1,0.2-0.2,0.3-0.3h3.2v5.4H118.2z M145.2,53.2c0,1-0.4,2-1.1,2.7c-0.6,0.6-0.8,0.9-0.8,1.2c0,0.6,0.5,1.2,1.1,1.2
	c0.1,0,0.1,0,0.2,0c1-0.1,1.8-1,1.7-2c0-1.1-0.2-2.2-0.8-3.1C145.4,53,145.2,53,145.2,53.2z M146.7,52.9c-0.1,0-0.3,0-0.2,0.1
	c0.5,0.8,0.7,1.7,0.5,2.6c0,0.5-0.1,0.8-0.1,1.1c0,0.5,0.4,1,0.9,1c0.9,0,1.5-0.6,1.5-1.7C149.2,54.6,148.2,53.3,146.7,52.9z
	 M148.4,52.4c-0.1,0-0.3,0-0.2,0.1c1,0.8,1.6,2.1,1.6,3.4c0,0.7,0.3,1.2,1,1.2c0.7,0,1.2-0.6,1.2-1.3c0,0,0-0.1,0-0.1
	C152,54.4,151.1,53,148.4,52.4z M150.3,52c-0.1,0-0.2,0.1-0.1,0.2c1.2,0.5,2.1,1.6,2.2,3c0.1,0.9,0.6,1.2,1,1.2
	c0.9,0,1.2-0.7,1.2-1.5C154.6,53.6,153.5,52.1,150.3,52z M146.6,37.3c-0.8-0.5-1.6-0.9-2.5-1c0.1,0.8,0.1,1.5,0.1,3.5
	c0,3.3-0.1,5.4-0.1,5.9c0,0.6,0.1,0.7,0.9,0.7c0.8,0,1.3-0.2,1.3-0.9v-0.6h1.7v2.8h-1c-0.9,0-1.8-0.1-2.7-0.2l0.2,0.8
	c0.8-0.1,1.6-0.2,2.4-0.2h1.1v2c-0.9,0-1.9,0.1-3,0.2c-0.5,0-1,0-1.6,0c0.7,2.9,0.9,3.3,1.2,3.3c0.2,0,0.4-0.1,0.5-0.6
	c3.2-0.9,6.3-2,9.3-3.3c0.1,0,0.1-0.1,0.1-0.1c0-0.1-0.1-0.1-0.1-0.1c-1.5,0.2-2.8,0.4-4.2,0.5v-1.8h4c0.2,0,0.2-0.1,0.2-0.3
	c0-0.2-0.1-0.3-0.7-0.9c-0.9-0.9-1-0.9-1.2-0.9c-0.2,0-0.3,0.1-1.5,1.6h-0.8v-2.8h1.8v0.3c0,0.6,0.1,0.8,0.6,0.8
	c1.3,0,1.7-0.3,1.7-1.1c0-0.6-0.1-2.4-0.1-4.2v-2.1c0.6-0.5,0.6-0.6,0.6-0.7c0-0.2-0.1-0.3-0.9-1c-0.9-0.7-1-0.8-1.2-0.8
	c-0.2,0-0.2,0-1.1,1.2L146.6,37.3z M150,44.5v-1.2c0.7-1.1,1.2-1.9,1.7-2.6c0.1-0.1,0.2-0.1,0.3-0.2v4L150,44.5z M146.2,39.7
	c0.3,0.4,0.5,1,0.4,1.5c0,0.5-0.1,0.9-0.1,1.2c0,0.4,0.2,0.8,0.6,0.8c0.5,0,0.9-0.4,1-0.9v2.1h-1.9V39.7z M146.2,38.1
	c0.1-0.1,0.3-0.2,0.4-0.3h1.5c0,0.4,0,0.7,0,1.1v2.6c-0.2-1-0.9-1.8-1.9-2.1V38.1z M152,39.8c-0.4-0.3-0.9-0.6-1.4-0.8
	c0,0.4-0.1,0.7-0.1,1.1c-0.1,0.6-0.3,1.6-0.5,2.4v-4.3c0.2-0.2,0.3-0.2,0.4-0.4h1.7V39.8z M160.9,42.2v-4.5c0.7-0.3,0.8-0.5,0.8-0.7
	c0-0.4-0.4-0.7-3.7-0.9c0.1,1.6,0.2,3.1,0.2,4.7v7.5h-0.4c-0.2-0.2-0.9-0.5-3-1.1c0.1,1.2,0.1,2.5,0.1,3.7c0,3.7-0.1,6.2-0.1,6.6
	c0,0.8,0.1,0.9,0.9,0.9c1.4,0,1.8-0.4,1.8-1.2v-0.9h4.7v0.8c0,0.8,0.1,0.9,1,0.9c1.1,0,1.9-0.4,1.9-1.1c0-0.9-0.1-3-0.1-4.9v-2.4
	c0.6-0.5,0.7-0.6,0.7-0.9c0-0.2-0.1-0.4-1.1-1.2c-0.9-0.8-1.1-0.9-1.4-0.9c-0.2,0-0.3,0.1-1.4,1.5h-0.9v-5.6h5.1
	c0.2,0,0.3-0.1,0.3-0.3c0-0.2-0.1-0.3-0.9-1.1c-0.9-0.9-1.2-1.1-1.4-1.1c-0.2,0-0.4,0.1-1.8,2L160.9,42.2z M157.5,56v-7
	c0.1-0.1,0.2-0.2,0.3-0.3h4.4V56H157.5z M183.8,46.5c-1.1,1.6-1.3,2.4-1.3,5c0,0.2,0.1,0.3,0.2,0.3c0.3,0,0.5-0.2,0.6-0.5
	c-0.1-0.2-0.1-0.5-0.1-0.8c0-1.3,0.4-1.9,2.2-3.3c3-2.4,3.7-3.6,3.7-5.7c0-2.7-2.1-4.5-5.6-4.5c-3.1,0-5.9,2.2-5.9,4.5
	c-0.1,1,0.7,1.8,1.7,1.8c0,0,0.1,0,0.1,0c0.9,0.1,1.8-0.6,1.8-1.6c0-0.1,0-0.1,0-0.2c0-0.6-0.3-1.1-0.8-1.4
	c-0.2-0.1-0.4-0.4-0.4-0.7c0-0.9,1.1-1.8,2.5-1.8c1.7,0,2.9,1.2,2.9,3.9C185.6,43.3,185,45.1,183.8,46.5L183.8,46.5z M182.9,53.7
	c-1.1,0-2,0.9-2,1.9s0.9,2,1.9,2s2-0.9,2-1.9c0,0,0,0,0,0C184.9,54.5,184,53.7,182.9,53.7L182.9,53.7z"/>
</svg>
