<?xml version="1.0" encoding="utf-8"?>
<!-- Generator: Adobe Illustrator 23.0.0, SVG Export Plug-In . SVG Version: 6.00 Build 0)  -->
<svg version="1.1" id="圖層_1" xmlns="http://www.w3.org/2000/svg" xmlns:xlink="http://www.w3.org/1999/xlink" x="0px" y="0px"
	 viewBox="0 0 189.9 58.8" style="enable-background:new 0 0 189.9 58.8;" xml:space="preserve">
<style type="text/css">
	.st0{fill:#EA5514;}
</style>
<path class="st0" d="M36.1,1.1c0.8,0.5,1,1.5,1,3c-0.1,0.7,0.5,1.3,1.2,1.4c0.1,0,0.1,0,0.2,0c1,0,1.7-0.9,1.7-1.9c0,0,0,0,0-0.1
	c0-1.4-1.5-2.6-4-2.8C36,0.9,36,1,36.1,1.1z M37.4,15.9c0,1-0.5,1.9-1.4,2.5c-0.4,0.3-0.7,0.8-0.7,1.3c0,0.8,0.7,1.4,1.4,1.4
	c0,0,0.1,0,0.1,0c1.1-0.1,2-1,1.9-2.2c0-1.1-0.4-2.2-1.2-3C37.5,15.7,37.4,15.8,37.4,15.9z M39.5,15.6c-0.1,0-0.2,0-0.1,0.2
	c0.4,1,0.5,2.1,0.3,3.1c-0.1,0.6,0.3,1.2,0.9,1.2c0.1,0,0.1,0,0.2,0c0.8,0,1.5-0.7,1.5-1.5C42.3,17.6,41.5,16.2,39.5,15.6z M45.6,18
	c0-1.3-1-2.4-3.1-2.7c-0.1,0-0.2,0.1-0.1,0.2c0.6,0.8,0.9,1.8,0.7,2.8c-0.1,0.6,0.3,1.1,0.9,1.1c0.1,0,0.1,0,0.2,0
	C44.9,19.3,45.5,18.7,45.6,18z M46.3,17.6c0,0.6,0.5,1.1,1.1,1c0,0,0,0,0.1,0c0.7,0,1.3-0.6,1.3-1.3c0-1.5-1.3-2.2-3.3-2.4
	c-0.1,0-0.2,0.1-0.1,0.2C46.1,15.6,46.2,16.5,46.3,17.6L46.3,17.6z M49.5,13.8c0.3-0.9,0.5-1.7,0.7-2.5c0.6-0.4,0.7-0.5,0.7-0.7
	c0-0.2-0.1-0.3-0.9-0.9c-0.9-0.7-1.1-0.8-1.3-0.8c-0.2,0-0.3,0-1.3,1.1H47C47.4,9,47.7,8,48,7.3c0.7-0.5,0.8-0.6,0.8-0.8
	s0-0.3-0.9-0.9c-1-0.7-1.1-0.8-1.3-0.8c-0.2,0-0.3,0.1-1.4,1.2h-1.5c0.4-1.1,0.8-2.2,1.1-3.4c0.9-0.2,1.1-0.4,1.1-0.8
	c0-0.4-0.4-0.7-4-1.8c-0.1,1.1-0.3,2.2-0.6,3.2c-0.2,0.9-0.5,1.8-0.7,2.7h-3.6c-1,0-2.1-0.1-3.1-0.2l0.2,0.8C35,6.5,36,6.4,36.9,6.5
	h3.4c-0.8,2.3-1.9,4.6-3.2,6.7c-1.5,2.5-3.6,4.7-6.1,6.3c-0.1,0.1,0,0.3,0.1,0.2c2.9-1.2,5.5-3,7.6-5.4h11.1
	c-0.1,1.6-0.5,3.1-1.1,4.6c-0.3,0.5-0.9,0.9-1.6,0.8c-0.7,0-1.3,0.1-2.6,0c-0.1,0-0.1,0.2,0,0.3c1.8,0.6,2.1,1,2.4,2.1
	c0.1,0.5,0.3,0.6,0.9,0.6c1.1,0.1,2.2-0.3,3-1.1c0.7-0.8,1.3-2.7,1.8-5.9c0.7-0.5,0.8-0.6,0.8-0.8c0-0.2-0.1-0.4-1.1-1.2
	c-1.1-0.9-1.2-0.9-1.4-0.9c-0.2,0-0.3,0-1.3,1.1L49.5,13.8z M45.2,6.5C45,7.4,44.6,8.5,44.1,10h-2.3c0.6-1.1,1.2-2.3,1.6-3.5H45.2z
	 M47.5,10.5c-0.2,0.9-0.6,2-0.9,3.3h-7.4c0.9-1,1.7-2.2,2.4-3.3L47.5,10.5z M63.7,16.2c0,3.3-0.1,5-0.1,5.6c0,0.6,0.1,0.8,1.1,0.8
	c1.4,0,2.1-0.4,2.1-1c0-0.6,0-2.1,0-7.9V8.3c0.6-0.2,0.7-0.4,0.7-0.6c0-0.3-0.3-0.5-1.8-1c0.9-1.2,1.7-2.5,2.4-3.9
	C69,2.5,69.2,2.4,69.2,2s-0.3-0.6-3.8-2c-0.1,0.6-0.3,1.2-0.5,1.7c-1.6,4.6-3.6,8.5-5.3,10.4c-0.1,0.1,0.1,0.3,0.2,0.2
	c1.4-1,2.8-2.2,3.9-3.5L63.7,16.2z M76.2,9.2V1.8c0.6-0.4,0.9-0.5,0.9-0.8c0-0.3-0.3-0.6-4.2-0.9c0.1,1.3,0.1,2,0.1,9.1h-2.8
	c-0.7,0-1.8,0-3-0.2l0.2,0.8c1.1-0.1,2.2-0.2,2.7-0.2h2.8c0,7.5-0.2,11.4-0.2,12.1c0,0.8,0.2,0.9,1.3,0.9c1.5,0,2.1-0.3,2.1-1
	c0-0.6-0.1-4.8-0.1-11.9h6.3c0.2,0,0.3-0.1,0.3-0.3s0-0.3-0.9-1.2c-1.4-1.4-1.5-1.4-1.8-1.4c-0.2,0-0.3,0.1-2,2.4L76.2,9.2z
	 M104,6.6v1.1c-0.7-0.2-1.5-0.3-2.3-0.4c0,0.3,0.1,0.6,0,0.9c0.1,1.5-0.4,3-1.3,4.3c-0.4-0.1-1-0.2-1.6-0.4c0,0.3-0.1,0.6-0.2,0.8
	c-0.2,0.8-0.4,1.4-0.7,2.1c-1.1-0.3-2.2-0.3-3.3-0.1c-0.1,0-0.2,0.2,0,0.2c1.2,0.5,2.1,1.6,2.4,2.8c0.2,0.5,0.7,0.9,1.2,0.8
	c0.9,0,1.7-0.7,1.7-1.6c0-0.6-0.3-1.2-0.9-1.6c0.7-0.5,1.4-1,2.2-1.5c0.9-0.1,1.2-0.3,1.2-0.6c0-0.2-0.2-0.4-1.6-0.8
	c1.5-0.9,2.6-2.4,2.8-4.1c0.1,0,0.2-0.1,0.3-0.1c0,2.2-0.1,3.5-0.1,3.7c0,0.6,0.1,0.7,0.8,0.7c1,0,1.5-0.3,1.5-0.8
	c0-0.3-0.1-2.2-0.1-5.4h4.5c0.2,0,0.3-0.1,0.3-0.2c0-0.2-0.1-0.3-0.8-0.9c-0.8-0.8-1-0.8-1.2-0.8c-0.2,0-0.3,0.1-1.4,1.5h-1.4V5.2
	c0.4-0.2,0.5-0.3,0.5-0.5c0-0.3-0.4-0.4-2.8-0.6c0.1,0.7,0.1,1.4,0.1,2h-1.8c-0.1-0.1-0.3-0.3-0.7-0.7c-0.8-0.7-0.8-0.7-1-0.7
	c-0.2,0-0.3,0.1-1.3,1.4h-0.6V5.2C98.9,5,99,4.9,99,4.7c0-0.3-0.4-0.4-2.7-0.6c0.1,0.7,0.1,1.4,0.1,2H96c-0.9,0-1.8-0.1-2.6-0.2
	l0.2,0.8c0.8-0.1,1.6-0.2,2.4-0.2h0.4v1.2c-0.8-0.3-1.6-0.4-2.4-0.5c0,0.3,0.1,0.6,0,0.9c0.1,1.6-0.2,3.2-1.1,4.6
	c0.1-1.1,0.1-2.4,0.1-4V4c0.2-0.1,0.3-0.2,0.5-0.3h17.3c0.2,0,0.3-0.1,0.3-0.2c0-0.2,0-0.3-0.9-1.1c-1.3-1.2-1.4-1.2-1.6-1.2
	s-0.3,0.1-2,2.1h-4.7V1.7c0.9-0.4,1-0.5,1-0.8c0-0.4-0.5-0.6-4.2-0.9c0.1,0.9,0.2,1.7,0.1,2.6v0.6h-5.1c-0.1-0.3-0.8-0.5-3.5-1.1
	c0.2,1.9,0.2,3.5,0.2,7.3c0.1,3.1,0,6.1-0.5,9.1c-0.2,1.4-0.7,2.7-1.4,3.9c0,0.1,0,0.1,0,0.2c0,0,0.1,0,0.2,0
	c1.4-1.2,2.4-2.7,3.1-4.4c0.6-1.6,1-3.3,1.1-4.9c1.8-0.9,3-2.7,3.1-4.7c0.2-0.1,0.3-0.2,0.5-0.3c0,2.2-0.1,3.6-0.1,3.8
	c0,0.6,0.1,0.7,0.8,0.7c1,0,1.4-0.3,1.4-0.8c0-0.3-0.1-2.2-0.1-5.3L104,6.6z M100.9,8.4c0.4-0.2,0.5-0.3,0.5-0.4
	c0-0.2-0.2-0.3-2.3-0.6c0,0.4,0,0.9,0,1.6c0,1,0,1.6,0,2c0,0.4,0.2,0.6,0.6,0.6c0.8,0,1.2-0.1,1.2-0.7V8.4z M104.7,17.3
	c-0.1,0-0.1,0-0.1,0.1c0,0.1,0,0.1,0.1,0.1c0.7,0.4,1.3,0.9,1.7,1.7c-1.9,0-3.6,0-5.4,0c1.8-1.2,3-2.2,4.7-3.5
	c0.9-0.1,1.2-0.2,1.2-0.5c0-0.4-0.2-0.5-3.6-1.8c-0.2,0.4-0.4,0.9-0.6,1.3c-0.8,1.6-1.7,3.1-2.8,4.5c-1.8,0-3.6,0-5.7-0.1
	c-0.8,0-1.2,0-1.9-0.1c1,3.4,1.2,3.6,1.5,3.6c0.2,0,0.3-0.1,0.6-0.6c5.7-0.9,8.3-1.3,12.4-2.1c0.2,0.4,0.3,0.8,0.4,1.3
	c0.1,0.7,0.7,1.2,1.4,1.2c1,0,1.8-0.8,1.8-1.7c0,0,0,0,0-0.1C110.4,19.1,108.9,17.3,104.7,17.3z M108.6,8.5c0.5-0.2,0.6-0.3,0.6-0.5
	c0-0.2-0.5-0.4-2.5-0.5c0,0.6,0,1.1,0,1.8c0,1,0,1.7,0,2.1c0,0.5,0.3,0.9,2.2,0.9c2,0,2.6-0.5,2.6-1c0-0.3-0.1-0.6-0.4-0.8
	c-0.2-0.2-0.3-0.4-0.3-0.6c0-0.3,0-0.8,0.1-1.6c0-0.1-0.1-0.2-0.2,0c-0.2,0.6-0.5,1.3-0.8,1.9c-0.2,0.4-0.4,0.4-0.9,0.4
	s-0.5-0.1-0.5-0.4L108.6,8.5z M141,12.9h-24v0.8h24V12.9z M165,12.9h-24v0.8h24V12.9z M18.4,37.9v1.7h-1c-0.8-0.4-1.6-0.7-2.5-0.8
	c0,1.1,0,1.9,0,2.4c0,0.7,0,1.3,0,1.8c0,1.1,0.4,1.5,3.3,1.5c3.3,0,3.9-0.5,3.9-1.3c0-0.3-0.1-0.6-0.3-0.8c-0.1-0.2-0.1-0.4-0.1-0.7
	c0-0.5,0.1-1,0.2-1.5c0-0.1-0.1-0.2-0.2-0.1c-0.2,0.5-0.6,1-0.9,1.4c-0.6,0.7-1.1,1-2.6,1c-1,0-1.2-0.2-1.2-0.7v-1.5
	c0.1,0,0.2-0.1,0.3-0.2h1.1v0.5c0,0.4,0.2,0.7,0.9,0.7c1,0,1.5-0.3,1.5-0.8c0-0.4-0.1-1-0.1-1.4v-0.5c0.5-0.4,0.6-0.5,0.6-0.6
	c0-0.2,0-0.3-0.7-0.9c-0.8-0.7-0.9-0.7-1.2-0.7c-0.2,0-0.2,0-1.1,1h-0.9c-0.9,0-1.9-0.1-2.8-0.2l0.2,0.8c0.9-0.1,1.7-0.2,2.6-0.2
	H18.4z M10.9,37.9v1.7h-1c-0.7-0.4-1.6-0.7-2.4-0.8c0,1.1,0,1.9,0,2.4c0,0.7,0,1.3,0,1.8c0,1.1,0.4,1.5,3.3,1.5
	c2.9,0,3.5-0.6,3.5-1.4c0-0.3-0.1-0.6-0.3-0.8c-0.1-0.2-0.1-0.4-0.1-0.6c0-0.5,0.1-1,0.2-1.5c0-0.1-0.1-0.2-0.2-0.1
	c-0.2,0.5-0.5,1.1-0.9,1.5c-0.5,0.7-1.3,1.1-2.2,1c-1.2,0-1.3-0.2-1.3-0.7v-1.5c0.1,0,0.2-0.1,0.3-0.2h1.1v0.5c0,0.4,0.3,0.7,1,0.7
	c1,0,1.4-0.3,1.4-0.8c0-0.4-0.1-1-0.1-1.4v-0.5c0.5-0.4,0.6-0.5,0.6-0.6c0-0.2,0-0.3-0.7-0.9c-0.8-0.7-0.9-0.7-1.1-0.7
	c-0.2,0-0.2,0-1.1,1h-1c-0.9,0-1.9-0.1-2.8-0.2L7.2,38c0.9-0.1,1.7-0.2,2.6-0.2H10.9z M1.8,36.9c0.9,0.8,1.4,1.9,1.4,3
	c0.1,1.2,0.5,1.8,1.4,1.8c0.9,0.1,1.7-0.5,1.8-1.5c0-0.1,0-0.2,0-0.3c0-1.5-1.4-3-4.4-3.3C1.8,36.7,1.7,36.8,1.8,36.9z M22.1,50.5
	c0.2,0,0.3-0.1,0.3-0.2c0-0.2,0-0.3-0.8-1c-0.9-0.9-1-0.9-1.2-0.9c-0.2,0-0.2,0-1.6,1.7h-1.2v-2.3h3.7c0.1,0,0.2-0.1,0.2-0.2
	c0,0,0,0,0,0c0-0.2-0.1-0.3-0.8-1c-0.8-0.8-0.9-0.9-1.1-0.9c-0.2,0-0.2,0-1.5,1.6h-0.6V46c0.5-0.3,0.6-0.5,0.6-0.7
	c0-0.3-0.3-0.5-3.1-0.7c0.1,1,0.1,1.5,0.1,2.6h-2.2V46c0.5-0.3,0.6-0.5,0.6-0.7c0-0.3-0.3-0.5-3.1-0.7c0.1,1,0.1,1.5,0.1,2.6h-0.1
	c-0.9,0-1.8-0.1-2.6-0.2l0.2,0.8c0.8-0.1,1.6-0.2,2.4-0.2h0.1V50H10c-1,0-1.9-0.1-2.9-0.2l0.2,0.8c1.4-0.1,2-0.2,2.7-0.2h1.3
	c-0.1,0.1-0.2,0.3-0.2,0.4c-1,1.4-2.3,2.5-3.9,3.2c-0.3-0.2-0.5-0.5-0.8-0.8v-5.7C7,47,7.2,46.9,7.2,46.7c0-0.3-0.1-0.4-1.2-1.4
	c-0.8-0.7-0.9-0.8-1.2-0.8c-0.2,0-0.3,0.1-1.5,1.6H2.5c-0.8,0-1.6,0-2.4-0.2l0.2,0.8c0.7-0.1,1.4-0.2,2.1-0.2h1.1v6.8
	c-0.7,0.3-1.4,0.7-2.1,0.9c-0.5,0.2-1,0.3-1.4,0.4C1.3,57.6,1.7,58,2,58c0.3,0,0.4-0.2,0.7-0.8c1.2-1,2.3-2.2,3.4-3.4
	c0.2,1.1,0.9,2.1,1.7,2.8c1.2,1,2.4,1.3,7.9,1.3c3.6,0,4.7,0,5.3-0.1c0.5,0,0.7-0.3,0.7-0.8c0.2-0.9,0.7-1.7,1.4-2.2
	c0.1-0.1,0.1-0.3-0.1-0.3c-3.3,0.4-6.6,0.6-10,0.6c-1.6,0.1-3.2,0-4.7-0.4c-0.3-0.1-0.6-0.3-0.9-0.5c2-0.2,3.9-0.8,5.7-1.8
	c1,0,1.1-0.1,1.1-0.5c0-0.3-0.3-0.5-2-1.5L22.1,50.5z M12.9,47.7h2.2V50h-2.2V47.7z M15,50.9c-0.1,0-0.2,0.2-0.1,0.3
	c1.2,0.5,2.3,1.3,3.1,2.4c0.5,0.7,0.9,0.9,1.4,0.9c0.7,0,1.2-0.5,1.2-1.1c0,0,0-0.1,0-0.1C20.7,52.3,19.6,50.9,15,50.9z M34.6,42.1
	h2.5c0.1,0,0.1,0,0.1,0v0.1c0,0.7,0.1,0.8,0.8,0.8c1.1,0,1.6-0.2,1.6-0.9v-0.2h7.9c0,0.6,0.2,0.7,0.9,0.7c0.9,0,1.6-0.3,1.6-1.1
	c0-0.6-0.1-1.7-0.1-2.4v-0.5c0.6-0.5,0.6-0.6,0.6-0.7c0-0.2-0.1-0.3-0.9-1c-0.9-0.7-1-0.7-1.2-0.7c-0.2,0-0.3,0.1-1.2,1.1H40
	c-0.8-0.4-1.8-0.7-2.7-0.8c0.1,0.8,0.1,1.5,0.1,2.4c0,1.1,0,2-0.1,2.6c-0.1-0.1-0.2-0.3-0.5-0.7c-0.7-1-0.8-1-1-1
	c-0.2,0-0.3,0-1.3,1.8V38c0.7-0.4,0.8-0.5,0.8-0.8c0-0.4-0.6-0.6-3.6-0.9c0.2,1.8,0.2,3.6,0.2,5.4h-0.4c-0.9,0-1.7-0.1-2.6-0.2
	l0.2,0.8c0.8-0.1,1.6-0.2,2.4-0.2H32V47l-1,0.2c-0.8,0.2-1.5,0.3-2.1,0.4C30,51,30.1,51,30.4,51c0.2,0,0.4-0.1,0.6-0.7l1.1-0.7v4.6
	c0,0.8-0.2,1.1-0.8,1.2c-0.7,0.1-1.2,0.1-2.1,0.2c-0.1,0-0.1,0.2,0,0.2c1.5,0.5,1.9,1.2,2.2,2c0.1,0.5,0.3,0.6,0.7,0.6
	c0.6,0,1.1-0.2,1.6-0.5c0.8-0.5,1.2-1.4,1.2-2.3c0-0.8-0.1-1.9-0.1-7.6c0.9-0.7,1.9-1.5,3-2.2c0.1,0,0.1-0.1,0-0.2
	c0,0-0.1-0.1-0.2-0.1c-1,0.3-1.9,0.6-2.8,0.8L34.6,42.1z M44.1,41.3h-1.2v-3.2c0.3-0.2,0.4-0.3,0.4-0.4h0.8c0,0.4,0,0.8,0,1.1
	L44.1,41.3z M47.5,37.7v3.6h-1.3v-3.2c0.3-0.2,0.4-0.3,0.4-0.4L47.5,37.7z M40.8,37.7c0,0.4,0,0.8,0,1.1v2.5h-1.2V38
	c0.1-0.1,0.3-0.2,0.4-0.3L40.8,37.7z M44.7,47.1v-2.3h4.9c0.2,0,0.2,0,0.2-0.2s-0.1-0.2-0.8-0.9c-0.9-0.9-1-1-1.2-1s-0.2,0-1.6,1.6
	h-1.6v-0.8c0.7-0.3,0.8-0.4,0.8-0.7c0-0.4-0.4-0.5-3.7-0.8c0.1,0.7,0.1,1.5,0.1,2.3h-1.7c-0.9,0-1.8-0.1-2.7-0.2l0.2,0.8
	c0.8-0.1,1.6-0.2,2.4-0.2h1.8v2.3h-3c-0.9,0-1.8-0.1-2.6-0.2l0.2,0.8c0.8-0.1,1.6-0.2,2.4-0.2h0.5c0.5,0.3,0.6,1,0.6,2
	c0,0.8,0.2,1.2,0.8,1.3H39c-0.9,0-1.8-0.1-2.6-0.2l0.2,0.8c0.8-0.1,1.6-0.2,2.4-0.2h2.9c0,0.6,0,1.5,0,2.7h-2.4
	c-0.9,0-1.8-0.1-2.6-0.2l0.2,0.8c0.8-0.1,1.6-0.2,2.4-0.2h2.4c0,1.5-0.1,2.8-0.1,3.1c0,0.6,0.1,0.8,1,0.8c1.5,0,2-0.4,2-1.1
	c0-0.3-0.1-1.4-0.1-2.9h5.5c0.1,0,0.2,0,0.2-0.2s0-0.2-0.9-1.1c-0.9-1-1-1-1.2-1s-0.3,0-1.7,1.8h-2V52c0.3-0.2,0.4-0.3,0.4-0.5h6
	c0.1,0,0.2,0,0.2-0.2s0-0.2-0.9-1.1c-0.9-0.9-1-0.9-1.2-0.9s-0.3,0-1.7,1.8h-2.4c0.5-0.5,1-0.9,2-1.8c0.7-0.1,0.8-0.2,0.8-0.5
	s-0.1-0.4-2.3-1.1h5.7c0.1,0,0.2,0,0.2-0.2s0-0.2-0.9-1.1s-0.9-0.9-1.2-0.9c-0.2,0-0.2,0-1.6,1.7L44.7,47.1z M41.6,50.9
	c0.6-0.2,1-0.7,1-1.3c0-0.9-0.6-1.7-2.4-2h4.7c0,0.3-0.1,0.6-0.1,0.9c-0.1,0.8-0.3,1.6-0.5,2.4H41.6z M63.2,38.2
	c-0.8,0-1.7,0-3.3-0.2l0.2,0.8c1.4-0.1,2.2-0.2,3.1-0.2h9.8c-0.9,1.5-1.8,3-2.8,4.3c-0.6-0.1-1.6-0.2-2.8-0.3
	c0.2,1.6,0.2,3.2,0.2,4.9v6.4c0,0.6-0.3,1-1.1,1.1c-1,0.1-2.1,0.1-3.1,0c-0.1,0-0.1,0.2,0,0.3c1.9,0.5,2.3,1.3,2.7,2.4
	c0.1,0.4,0.4,0.7,0.8,0.6c0.9,0,1.8-0.2,2.7-0.6c1-0.5,1.6-1.5,1.5-2.6c0-0.8-0.2-4.4-0.2-7.9v-2.7c1-0.5,1.1-0.6,1.1-0.9
	c0-0.2-0.1-0.3-0.7-0.5c1.9-1,3.6-1.9,5.3-2.8c1.5-0.3,1.7-0.4,1.7-0.8c0-0.2-0.1-0.4-1.1-1.3c-1.9-1.7-2.1-1.7-2.4-1.7
	c-0.2,0-0.4,0.1-1.9,1.6H63.2z M88.7,51.8c0,3.6-0.1,5.2-0.1,5.8s0.1,0.8,1.1,0.8c1.2,0,1.8-0.4,1.8-1c0-0.6,0-2.1,0-7.8v-5.4
	c0.6-0.2,0.7-0.4,0.7-0.6c0-0.3-0.3-0.5-1.5-1c0.8-1.3,1.4-2.6,1.9-4c0.9-0.3,1.1-0.5,1.1-0.8c0-0.3-0.2-0.6-3.6-1.8
	c-0.1,0.6-0.2,1.2-0.3,1.7c-1,4.7-2.4,8.4-3.6,10.3c-0.1,0.1,0.1,0.3,0.2,0.2c1-0.9,1.8-1.9,2.5-3L88.7,51.8z M97.4,53.7v0.6
	c0,0.6,0.2,0.8,0.8,0.8c1.2,0,1.8-0.3,1.8-1c0-0.4-0.1-1.9-0.1-4.1v-1.6c0.6-0.4,0.6-0.5,0.6-0.6c0-0.2,0-0.3-0.6-0.8
	c-1-0.9-1.1-0.9-1.3-0.9c-0.2,0-0.3,0-1.1,1.1v-4.8h2.7c0.2,0,0.3-0.1,0.3-0.2c0-0.1,0-0.2-0.6-0.8c-0.8-1-0.9-1-1.1-1
	c-0.2,0-0.2,0-1.2,1.6h-0.1V38c0.8-0.4,0.9-0.6,0.9-0.8c0-0.3-0.3-0.6-3.6-0.9c0.1,1.4,0.2,2.8,0.1,4.2v1.3h-0.4
	c-0.9,0-1.7-0.1-2.6-0.2l0.2,0.8c1.1-0.1,1.9-0.2,2.3-0.2h0.4V47c-0.7-0.3-1.5-0.5-2.2-0.7c0.1,1.3,0.1,1.7,0.1,3.6
	c0,3-0.2,5.2-0.2,5.6c0,0.7,0.1,0.8,1,0.8c1.1,0,1.6-0.3,1.6-1v-1.7L97.4,53.7z M95.2,53.2V48c0.1-0.1,0.2-0.2,0.3-0.3h1.9v5.6H95.2
	z M109.2,42.1c0.1,0,0.3-0.1,0.3-0.2c0,0,0,0,0,0c0-0.2-0.1-0.4-0.8-1.1c-0.9-0.9-1-1-1.2-1c-0.2,0-0.3,0-1.6,1.8h-3.1
	c0.6-1.2,1.1-2.4,1.4-3.6c0.7-0.2,0.8-0.4,0.8-0.7c0-0.4-0.4-0.5-3.6-1.3c0,0.6,0,1-0.1,1.6c-0.4,4.2-1.1,7-1.9,8.5
	c-0.1,0.1,0.1,0.3,0.2,0.2c0.7-0.7,1.3-1.4,1.8-2.3c-0.1,2.8,0.1,5.7,0.8,8.4c-1.2,2.7-3.4,4.9-6.1,6.2c-0.1,0,0,0.3,0.1,0.2
	c2.7-0.7,5.2-2.2,7-4.3c0.8,1.3,1.8,2.5,3,3.5c0.2,0.2,0.5,0.3,0.7,0.3c0.2,0,0.3-0.2,0.5-0.5c0.3-0.9,1-1.6,1.9-1.9
	c0.1,0,0.2-0.2,0-0.3c-1.7-0.9-3.3-2.2-4.6-3.6c1.1-2.6,1.8-5.3,2-8.1c0.7-0.2,0.8-0.4,0.8-0.6c0-0.3-0.5-0.6-2.5-1.2L109.2,42.1z
	 M104.1,42.1c0,2.5-0.3,5-0.9,7.5c-0.8-2.1-1.2-4.3-1.3-6.5c0.2-0.3,0.4-0.7,0.6-1L104.1,42.1z M135.4,38.2c0.6-0.3,0.9-0.5,0.9-0.8
	s-1-0.6-4-1c0.2,2.3,0.3,4.6,0.2,6.9h-2.7v-5c0.6-0.3,0.8-0.5,0.8-0.9c0-0.3-0.7-0.6-3.7-1c0.2,2.3,0.3,4.6,0.2,6.9h-1.6
	c-0.8-0.9-0.9-1-1.1-1c-0.2,0-0.3,0-1.5,1.9H122v-3.7c0.4-0.2,0.6-0.3,0.6-0.5c0,0,0-0.1,0-0.1c0.7-0.1,1.4-0.2,2.1-0.3
	c1.2,0.1,1.6,0.1,1.6-0.3c0-0.4-0.3-0.8-2.9-2.6c-0.2,0.2-0.5,0.4-0.7,0.5c-2.3,1.3-4.8,2.3-7.4,3c-0.1,0-0.1,0.3,0,0.3
	c1.4,0,2.7-0.1,4.1-0.2c0,0.6,0,1.2,0,2.3v1.7H118c-0.9,0-1.8-0.1-2.6-0.2l0.2,0.8c0.8-0.1,1.6-0.2,2.4-0.2h1.4v4.8h-0.1
	c-0.9-0.5-1.9-0.9-3-1c0.1,1.2,0.1,2.1,0.1,3.7c0,2.4-0.1,4.7-0.1,5.1c0,0.8,0.2,0.9,1,0.9c1.1,0,1.8-0.4,1.8-1.2v-1.1h3.6v0.6
	c0,0.8,0.2,1,1.1,1c0.8,0,1.7-0.5,1.7-1.2c0-0.7-0.1-2.2-0.1-4V51c0.7-0.6,0.7-0.6,0.7-0.8s-0.1-0.4-0.9-1.1c-1.1-1-1.2-1-1.5-1
	c-0.2,0-0.3,0.1-1.4,1.5H122v-4.8h3.8c0.4,0,0.5-0.1,0.5-0.3c0-0.2,0-0.3-0.4-0.7h1.1v2.3c0,7.7-0.2,10.7-0.2,11.4
	c0,0.6,0.1,0.9,1.1,0.9c1.1,0,1.9-0.3,1.9-1.1v-1.3h2.7v1.4c0,0.8,0.2,0.9,1.2,0.9c1.4,0,1.9-0.5,1.9-1.2c0-1.2-0.1-3.4-0.1-11.2
	v-2.2h2.5c0.3,0,0.4-0.1,0.4-0.3c0-0.2,0-0.3-0.8-1.3c-0.6-0.9-0.7-0.9-0.9-0.9c-0.1,0-0.3,0.1-1.3,2L135.4,38.2z M132.5,43.8v5
	h-2.7v-5H132.5z M129.8,55.4v-6.2h2.7v6.2H129.8z M119,55.4v-5.2c0.1-0.1,0.2-0.2,0.3-0.3h3.2v5.4H119z M146,53.2c0,1-0.4,2-1.1,2.7
	c-0.6,0.6-0.8,0.9-0.8,1.2c0,0.6,0.5,1.2,1.1,1.2c0.1,0,0.1,0,0.2,0c1-0.1,1.8-1,1.7-2c0-1.1-0.2-2.2-0.8-3.1
	C146.2,53,146,53,146,53.2z M147.5,52.9c-0.1,0-0.3,0-0.2,0.1c0.5,0.8,0.7,1.7,0.5,2.6c0,0.5-0.1,0.8-0.1,1.1c0,0.5,0.4,1,0.9,1
	c0.9,0,1.5-0.6,1.5-1.7C149.9,54.6,148.9,53.3,147.5,52.9z M149.2,52.4c-0.1,0-0.3,0-0.2,0.1c1,0.8,1.6,2.1,1.6,3.4
	c0,0.7,0.3,1.2,1,1.2c0.7,0,1.2-0.6,1.2-1.3c0,0,0-0.1,0-0.1C152.7,54.4,151.8,53,149.2,52.4z M151,52c-0.1,0-0.2,0.1-0.1,0.2
	c1.2,0.5,2.1,1.6,2.2,3c0.1,0.9,0.6,1.2,1,1.2c0.9,0,1.2-0.7,1.2-1.5C155.4,53.6,154.3,52.1,151,52z M147.3,37.3
	c-0.8-0.5-1.6-0.9-2.5-1c0.1,0.8,0.1,1.5,0.1,3.5c0,3.3-0.1,5.4-0.1,5.9c0,0.6,0.1,0.7,0.9,0.7c0.8,0,1.3-0.2,1.3-0.9v-0.6h1.7v2.8
	h-1c-0.9,0-1.8-0.1-2.7-0.2l0.2,0.8c0.8-0.1,1.6-0.2,2.4-0.2h1.1v2c-0.9,0-1.9,0.1-3,0.2c-0.5,0-1,0-1.6,0c0.7,2.9,0.9,3.3,1.2,3.3
	c0.2,0,0.4-0.1,0.5-0.6c3.2-0.9,6.3-2,9.3-3.3c0.1,0,0.1-0.1,0.1-0.1c0-0.1-0.1-0.1-0.1-0.1c-1.5,0.2-2.8,0.4-4.2,0.5v-1.8h4
	c0.2,0,0.2-0.1,0.2-0.3c0-0.2-0.1-0.3-0.7-0.9c-0.9-0.9-1-0.9-1.2-0.9c-0.2,0-0.3,0.1-1.5,1.6H151v-2.8h1.8v0.3
	c0,0.6,0.1,0.8,0.6,0.8c1.3,0,1.7-0.3,1.7-1.1c0-0.6-0.1-2.4-0.1-4.2v-2.1c0.6-0.5,0.6-0.6,0.6-0.7c0-0.2-0.1-0.3-0.9-1
	c-0.9-0.7-1-0.8-1.2-0.8c-0.2,0-0.2,0-1.1,1.2L147.3,37.3z M150.7,44.5v-1.2c0.7-1.1,1.2-1.9,1.7-2.6c0.1-0.1,0.2-0.1,0.3-0.2v4
	L150.7,44.5z M147,39.7c0.3,0.4,0.5,1,0.4,1.5c0,0.5-0.1,0.9-0.1,1.2c0,0.4,0.2,0.8,0.6,0.8c0.5,0,0.9-0.4,1-0.9v2.1H147V39.7z
	 M147,38.1c0.1-0.1,0.3-0.2,0.4-0.3h1.5c0,0.4,0,0.7,0,1.1v2.6c-0.2-1-0.9-1.8-1.9-2.1V38.1z M152.8,39.8c-0.4-0.3-0.9-0.6-1.4-0.8
	c0,0.4-0.1,0.7-0.1,1.1c-0.1,0.6-0.3,1.6-0.5,2.4v-4.3c0.2-0.2,0.3-0.2,0.4-0.4h1.7V39.8z M161.7,42.2v-4.5c0.7-0.3,0.8-0.5,0.8-0.7
	c0-0.4-0.4-0.7-3.7-0.9c0.1,1.6,0.2,3.1,0.2,4.7v7.5h-0.4c-0.2-0.2-0.9-0.5-3-1.1c0.1,1.2,0.1,2.5,0.1,3.7c0,3.7-0.1,6.2-0.1,6.6
	c0,0.8,0.1,0.9,0.9,0.9c1.4,0,1.8-0.4,1.8-1.2v-0.9h4.7v0.8c0,0.8,0.1,0.9,1,0.9c1.1,0,1.9-0.4,1.9-1.1c0-0.9-0.1-3-0.1-4.9v-2.4
	c0.6-0.5,0.7-0.6,0.7-0.9c0-0.2-0.1-0.4-1.1-1.2c-0.9-0.8-1.1-0.9-1.4-0.9c-0.2,0-0.3,0.1-1.4,1.5h-0.9v-5.6h5.1
	c0.2,0,0.3-0.1,0.3-0.3c0-0.2-0.1-0.3-0.9-1.1c-0.9-0.9-1.2-1.1-1.4-1.1c-0.2,0-0.4,0.1-1.8,2L161.7,42.2z M158.3,56v-7
	c0.1-0.1,0.2-0.2,0.3-0.3h4.4V56H158.3z M184.6,46.5c-1.1,1.6-1.3,2.4-1.3,5c0,0.2,0.1,0.3,0.2,0.3c0.3,0,0.5-0.2,0.6-0.5
	c-0.1-0.2-0.1-0.5-0.1-0.8c0-1.3,0.4-1.9,2.2-3.3c3-2.4,3.7-3.6,3.7-5.7c0-2.7-2.1-4.5-5.6-4.5c-3.1,0-5.9,2.2-5.9,4.5
	c-0.1,1,0.7,1.8,1.7,1.8c0,0,0.1,0,0.1,0c0.9,0.1,1.8-0.6,1.8-1.6c0-0.1,0-0.1,0-0.2c0-0.6-0.3-1.1-0.8-1.4
	c-0.2-0.1-0.4-0.4-0.4-0.7c0-0.9,1.1-1.8,2.5-1.8c1.7,0,2.9,1.2,2.9,3.9C186.3,43.3,185.7,45.1,184.6,46.5L184.6,46.5z M183.7,53.7
	c-1.1,0-2,0.9-2,1.9c0,1.1,0.9,2,1.9,2c1.1,0,2-0.9,2-1.9c0,0,0,0,0,0C185.6,54.5,184.8,53.7,183.7,53.7L183.7,53.7z"/>
</svg>
